{
.appVersion = "1075";
classes = (
{
code = "";
name = DevaIMatras;
},
{
automatic = 1;

glyphs = (
{
glyphname = A;
lastChange = "2018-02-21 16:13:09 +0000";
layers = (
{
anchors = (
{
name = bottom;
position = "{285, 0}";
},
{
name = ogonek;
position = "{520, 0}";
},
{
name = top;
position = "{289, 603}";
}
);
layerId = "555729A4-F539-4650-9C4F-3880CB033E7B";
paths = (
{
closed = 1;
nodes = (
"227 0 LINE",
"227 43 LINE",
"156 63 LINE",
"193 202 LINE",
"379 202 LINE",
"418 63 LINE",
"350 43 LINE",
"350 0 LINE",
"579 0 LINE",
"579 38 LINE",
"517 58 LINE",
"354 602 LINE",
"354 602 OFFCURVE",
"342 610 OFFCURVE",
"338 610 CURVE SMOOTH",
"336 610 OFFCURVE",
"265 602 OFFCURVE",
"228 596 CURVE",
"198 498 OFFCURVE",
"89 129 OFFCURVE",
"68 58 CURVE",
"6 38 LINE",
"6 0 LINE"
);
},
{
closed = 1;
nodes = (
"237 365 OFFCURVE",
"269 482 OFFCURVE",
"280 523 CURVE",
"292 523 LINE",
"304 473 OFFCURVE",
"341 336 OFFCURVE",
"364 255 CURVE",
"208 255 LINE"
);
}
);
width = 575;
},
{
anchors = (
{
name = bottom;
position = "{328, 0}";
},
{
name = ogonek;
position = "{582, 0}";
},
{
name = top;
position = "{329, 612}";
}
);
layerId = "CB0A0A08-290D-4820-BDFF-3CAB47D8DECF";
paths = (
{
closed = 1;
nodes = (
"281 0 LINE",
"281 80 LINE",
"212 97 LINE",
"227 171 LINE",
"384 171 LINE",
"404 97 LINE",
"336 80 LINE",
"336 0 LINE",
"666 0 LINE",
"666 72 LINE",
"604 92 LINE",
"433 612 LINE",
"433 612 OFFCURVE",
"412 625 OFFCURVE",
"409 625 CURVE SMOOTH",
"402 625 OFFCURVE",
"267 612 OFFCURVE",
"225 606 CURVE",
"194 512 OFFCURVE",
"77 161 OFFCURVE",
"56 92 CURVE",
"-6 72 LINE",
"-6 0 LINE"
);
},
{
closed = 1;
nodes = (
"269 348 OFFCURVE",
"289 432 OFFCURVE",
"300 471 CURVE",
"310 471 LINE",
"321 423 OFFCURVE",
"342 333 OFFCURVE",
"359 266 CURVE",
"249 266 LINE"
);
}
);
width = 664;
},
{
anchors = (
{
name = bottom;
position = "{265, 0}";
},
{
name = ogonek;
position = "{460, 0}";
},
{
name = top;
position = "{267, 591}";
}
);
layerId = "4F39836F-1187-466E-8FAB-7EBF43C51BB4";
paths = (
{
closed = 1;
nodes = (
"170 0 LINE",
"170 18 LINE",
"109 27 LINE",
"161 212 LINE",
"372 212 LINE",
"425 27 LINE",
"365 18 LINE",
"365 0 LINE",
"513 0 LINE",
"513 17 LINE",
"456 25 LINE",
"293 593 LINE",
"293 593 OFFCURVE",
"282 601 OFFCURVE",
"279 601 CURVE SMOOTH",
"274 601 OFFCURVE",
"243 596 OFFCURVE",
"243 596 CURVE",
"188 406 OFFCURVE",
"134 215 OFFCURVE",
"79 25 CURVE",
"22 17 LINE",
"22 0 LINE"
);
},
{
closed = 1;
nodes = (
"199 349 OFFCURVE",
"231 460 OFFCURVE",
"262 570 CURVE",
"271 570 LINE",
"302 460 OFFCURVE",
"334 349 OFFCURVE",
"365 239 CURVE",
"168 239 LINE"
);
}
);
width = 538;
}
);
leftKerningGroup = A;
rightKerningGroup = A;
unicode = 0041;
},
{
glyphname = AE;
lastChange = "2018-02-21 16:13:17 +0000";
layers = (
{
anchors = (
{
name = top;
position = "{490, 591}";
}
);
layerId = "4F39836F-1187-466E-8FAB-7EBF43C51BB4";
paths = (
{
closed = 1;
nodes = (
"173 0 LINE",
"173 17 LINE",
"114 27 LINE",
"215 212 LINE",
"426 212 LINE",
"426 25 LINE",
"369 17 LINE",
"369 0 LINE",
"714 0 LINE",
"711 122 LINE",
"692 122 LINE",
"682 27 LINE",
"456 27 LINE",
"456 292 LINE",
"643 292 LINE",
"643 319 LINE",
"456 319 LINE",
"456 564 LINE",
"674 564 LINE",
"681 469 LINE",
"700 469 LINE",
"706 591 LINE",
"343 591 LINE",
"343 571 LINE",
"388.624 564.057 LINE",
"81 25 LINE",
"25 17 LINE",
"25 0 LINE"
);
},
{
closed = 1;
nodes = (
"415 564 LINE",
"426 564 LINE",
"426 239 LINE",
"230 239 LINE"
);
}
);
width = 753;
},
{
anchors = (
{
name = top;
position = "{449, 650}";
}
);
layerId = "555729A4-F539-4650-9C4F-3880CB033E7B";
paths = (
{
closed = 1;
nodes = (
"227 0 LINE",
"227 43 LINE",
"158 63 LINE",
"218 203 LINE",
"380 203 LINE",
"380 58 LINE",
"318 38 LINE",
"318 0 LINE",
"721 0 LINE",
"717 179 LINE",
"663 179 LINE",
"647 49 LINE",
"473 65 LINE",
"473 285 LINE",
"612 290 LINE",
"612 337 LINE",
"473 342 LINE",
"473 540 LINE",
"623 554 LINE",
"634 428 LINE",
"688 428 LINE",
"701 603 LINE",
"214 603 LINE",
"214 565 LINE",
"283 545 LINE",
"68 58 LINE",
"6 38 LINE",
"6 0 LINE"
);
},
{
closed = 1;
nodes = (
"357 540 LINE",
"380 540 LINE",
"380 256 LINE",
"231 256 LINE"
);
}
);
width = 751;
},
{
anchors = (
{
name = top;
position = "{570, 650}";
}
);
layerId = "CB0A0A08-290D-4820-BDFF-3CAB47D8DECF";
paths = (
{
closed = 1;
nodes = (
"287 0 LINE",
"287 80 LINE",
"218 97 LINE",
"259 171 LINE",
"449 171 LINE",
"449 97 LINE",
"389 72 LINE",
"389 0 LINE",
"902 0 LINE",
"898 199 LINE",
"809 199 LINE",
"791 88 LINE",
"640 104 LINE",
"640 259 LINE",
"773 266 LINE",
"773 360 LINE",
"640 365 LINE",
"640 510 LINE",
"782 524 LINE",
"795 417 LINE",
"884 417 LINE",
"897 612 LINE",
"267 612 LINE",
"267 540 LINE",
"327 515 LINE",
"63 92 LINE",
"0 72 LINE",
"0 0 LINE"
);
},
{
closed = 1;
nodes = (
"437 500 LINE",
"449 500 LINE",
"449 266 LINE",
"312 266 LINE"
);
}
);
width = 927;
}
);
leftKerningGroup = A;
rightKerningGroup = E;
unicode = 00C6;
},
{
glyphname = B;
lastChange = "2018-02-21 15:45:08 +0000";
layers = (
{
background = {
paths = (
{
closed = 1;
nodes = (
"301 0 LINE SMOOTH",
"400 0 OFFCURVE",
"483 40 OFFCURVE",
"483 174 CURVE SMOOTH",
"483 250 OFFCURVE",
"429 300 OFFCURVE",
"353 313 CURVE",
"353 319 LINE",
"382 333 OFFCURVE",
"443 361 OFFCURVE",
"443 447 CURVE SMOOTH",
"443 567 OFFCURVE",
"388 603 OFFCURVE",
"289 603 CURVE SMOOTH",
"42 603 LINE",
"42 565 LINE",
"104 545 LINE",
"104 58 LINE",
"42 38 LINE",
"42 0 LINE"
);
},
{
closed = 1;
nodes = (
"197 273 LINE",
"300 273 LINE SMOOTH",
"352 273 OFFCURVE",
"385 269 OFFCURVE",
"385 186 CURVE SMOOTH",
"385 83 OFFCURVE",
"369 47 OFFCURVE",
"329 47 CURVE",
"197 61 LINE"
);
},
{
closed = 1;
nodes = (
"197 544 LINE",
"302 556 LINE",
"335 556 OFFCURVE",
"345 519 OFFCURVE",
"345 432 CURVE SMOOTH",
"345 346 OFFCURVE",
"318 330 OFFCURVE",
"266 330 CURVE SMOOTH",
"197 330 LINE"
);
}
);
};
layerId = "555729A4-F539-4650-9C4F-3880CB033E7B";
paths = (
{
closed = 1;
nodes = (
"301 0 LINE SMOOTH",
"400 0 OFFCURVE",
"483 40 OFFCURVE",
"483 174 CURVE SMOOTH",
"483 250 OFFCURVE",
"429 300 OFFCURVE",
"353 313 CURVE",
"353 319 LINE",
"382 333 OFFCURVE",
"443 361 OFFCURVE",
"443 447 CURVE SMOOTH",
"443 567 OFFCURVE",
"388 603 OFFCURVE",
"289 603 CURVE SMOOTH",
"42 603 LINE",
"42 565 LINE",
"104 545 LINE",
"104 58 LINE",
"42 38 LINE",
"42 0 LINE"
);
},
{
closed = 1;
nodes = (
"197 273 LINE",
"300 273 LINE SMOOTH",
"352 273 OFFCURVE",
"385 269 OFFCURVE",
"385 186 CURVE SMOOTH",
"385 83 OFFCURVE",
"369 47 OFFCURVE",
"329 47 CURVE SMOOTH",
"197 61 LINE"
);
},
{
closed = 1;
nodes = (
"197 544 LINE",
"302 556 LINE SMOOTH",
"335 556 OFFCURVE",
"345 519 OFFCURVE",
"345 432 CURVE SMOOTH",
"345 346 OFFCURVE",
"318 330 OFFCURVE",
"266 330 CURVE SMOOTH",
"197 330 LINE"
);
}
);
width = 511;
},
{
layerId = "CB0A0A08-290D-4820-BDFF-3CAB47D8DECF";
paths = (
{
closed = 1;
nodes = (
"397 0 LINE SMOOTH",
"496 0 OFFCURVE",
"579 40 OFFCURVE",
"579 174 CURVE SMOOTH",
"579 252 OFFCURVE",
"529 304 OFFCURVE",
"459 317 CURVE",
"459 323 LINE",
"489 338 OFFCURVE",
"553 367 OFFCURVE",
"553 457 CURVE SMOOTH",
"553 575 OFFCURVE",
"498 612 OFFCURVE",
"399 612 CURVE SMOOTH",
"20 612 LINE",
"20 540 LINE",
"80 515 LINE",
"80 97 LINE",
"20 72 LINE",
"20 0 LINE"
);
},
{
closed = 1;
nodes = (
"271 257 LINE",
"322 257 LINE SMOOTH",
"362 257 OFFCURVE",
"387 253 OFFCURVE",
"387 186 CURVE SMOOTH",
"387 112 OFFCURVE",
"371 89 OFFCURVE",
"331 89 CURVE",
"271 98 LINE"
);
},
{
closed = 1;
nodes = (
"271 515 LINE",
"322 522 LINE",
"355 522 OFFCURVE",
"365 495 OFFCURVE",
"365 432 CURVE SMOOTH",
"365 366 OFFCURVE",
"343 352 OFFCURVE",
"302 352 CURVE SMOOTH",
"271 352 LINE"
);
}
);
width = 594;
},
{
layerId = "4F39836F-1187-466E-8FAB-7EBF43C51BB4";
paths = (
{
closed = 1;
nodes = (
"258 0 LINE SMOOTH",
"351 0 OFFCURVE",
"435 26 OFFCURVE",
"435 164 CURVE SMOOTH",
"435 240 OFFCURVE",
"393 290 OFFCURVE",
"315 304 CURVE",
"315 309 LINE",
"340 319 OFFCURVE",
"395 352 OFFCURVE",
"395 447 CURVE SMOOTH",
"395 559 OFFCURVE",
"344 591 OFFCURVE",
"251 591 CURVE SMOOTH",
"47 591 LINE",
"47 574 LINE",
"104 566 LINE",
"104 25 LINE",
"47 17 LINE",
"47 0 LINE"
);
},
{
closed = 1;
nodes = (
"134 288 LINE",
"277 288 LINE SMOOTH",
"307 288 OFFCURVE",
"405 274 OFFCURVE",
"405 165 CURVE SMOOTH",
"405 63 OFFCURVE",
"362 27 OFFCURVE",
"267 27 CURVE SMOOTH",
"134 27 LINE"
);
},
{
closed = 1;
nodes = (
"134 564 LINE",
"259 564 LINE SMOOTH",
"343 564 OFFCURVE",
"365 517 OFFCURVE",
"365 442 CURVE SMOOTH",
"365 346 OFFCURVE",
"306 315 OFFCURVE",
"248 315 CURVE SMOOTH",
"134 315 LINE"
);
}
);
width = 480;
}
);
leftKerningGroup = H;
rightKerningGroup = B;
unicode = 0042;
},
{
glyphname = C;
lastChange = "2018-02-12 15:36:47 +0000";
layers = (
{
anchors = (
{
name = bottom;
position = "{235, 0}";
},
{
name = top;
position = "{261, 603}";
}
);
background = {
paths = (
{
closed = 1;
nodes = (
"209 611 OFFCURVE",
"105 544 OFFCURVE",
"73 494 CURVE",
"55 449 OFFCURVE",
"43 369 OFFCURVE",
"43 277 CURVE SMOOTH",
"43 78 OFFCURVE",
"134 -9 OFFCURVE",
"223 -9 CURVE SMOOTH",
"238 -9 OFFCURVE",
"369 4 OFFCURVE",
"405 14 CURVE",
"404 191 LINE",
"353 192 LINE",
"335.876 65 LINE",
"270 65 LINE SMOOTH",
"201 65 OFFCURVE",
"142 109 OFFCURVE",
"142 312 CURVE SMOOTH",
"142 433 OFFCURVE",
"159 518 OFFCURVE",
"192 535 CURVE SMOOTH",
"200 539 OFFCURVE",
"209 541 OFFCURVE",
"224 541 CURVE SMOOTH",
"246 541 OFFCURVE",
"304 537 OFFCURVE",
"340 530 CURVE",
"352 428 LINE",
"406 428 LINE",
"418 601 LINE",
"358 606 OFFCURVE",
"259 611 OFFCURVE",
"239 611 CURVE SMOOTH"
);
}
);
};
layerId = "555729A4-F539-4650-9C4F-3880CB033E7B";
paths = (
{
closed = 1;
nodes = (
"209 611 OFFCURVE",
"105 544 OFFCURVE",
"73 494 CURVE",
"55 449 OFFCURVE",
"43 369 OFFCURVE",
"43 277 CURVE SMOOTH",
"43 78 OFFCURVE",
"134 -9 OFFCURVE",
"223 -9 CURVE SMOOTH",
"238 -9 OFFCURVE",
"375 4 OFFCURVE",
"411 14 CURVE",
"410 191 LINE",
"359 192 LINE",
"342 65 LINE",
"270 65 LINE SMOOTH",
"201 65 OFFCURVE",
"142 109 OFFCURVE",
"142 312 CURVE SMOOTH",
"142 433 OFFCURVE",
"159 518 OFFCURVE",
"192 535 CURVE SMOOTH",
"200 539 OFFCURVE",
"209 541 OFFCURVE",
"224 541 CURVE SMOOTH",
"246 541 OFFCURVE",
"310 537 OFFCURVE",
"346 530 CURVE",
"358 428 LINE",
"412 428 LINE",
"424 601 LINE",
"364 606 OFFCURVE",
"259 611 OFFCURVE",
"239 611 CURVE SMOOTH"
);
}
);
width = 456;
},
{
anchors = (
{
name = bottom;
position = "{252, 0}";
},
{
name = top;
position = "{262, 612}";
}
);
background = {
paths = (
{
closed = 1;
nodes = (
"246 625 OFFCURVE",
"97 540 OFFCURVE",
"48 485 CURVE",
"32 442 OFFCURVE",
"15 374 OFFCURVE",
"15 287 CURVE SMOOTH",
"15 77 OFFCURVE",
"95 -13 OFFCURVE",
"276 -13 CURVE SMOOTH",
"291 -13 OFFCURVE",
"418 2 OFFCURVE",
"472 14 CURVE",
"466 224 LINE",
"379 224 LINE",
"360 101 LINE",
"323 101 LINE SMOOTH",
"249 101 OFFCURVE",
"214 151 OFFCURVE",
"214 308 CURVE SMOOTH",
"214 428 OFFCURVE",
"227 527 OFFCURVE",
"242 527 CURVE SMOOTH",
"267 527 OFFCURVE",
"328 515 OFFCURVE",
"355 510 CURVE",
"370 384 LINE",
"459 384 LINE",
"471 601 LINE",
"416 609 OFFCURVE",
"312 625 OFFCURVE",
"292 625 CURVE SMOOTH"
);
}
);
};
layerId = "CB0A0A08-290D-4820-BDFF-3CAB47D8DECF";
paths = (
{
closed = 1;
nodes = (
"246 625 OFFCURVE",
"97 540 OFFCURVE",
"48 485 CURVE",
"32 442 OFFCURVE",
"15 374 OFFCURVE",
"15 287 CURVE SMOOTH",
"15 77 OFFCURVE",
"95 -13 OFFCURVE",
"276 -13 CURVE SMOOTH",
"291 -13 OFFCURVE",
"418 2 OFFCURVE",
"472 14 CURVE",
"466 224 LINE",
"379 224 LINE",
"360.257 101 LINE",
"323 101 LINE SMOOTH",
"249 101 OFFCURVE",
"214 151 OFFCURVE",
"214 308 CURVE SMOOTH",
"214 428 OFFCURVE",
"228 515 OFFCURVE",
"242 524 CURVE SMOOTH",
"248 528 OFFCURVE",
"255 529 OFFCURVE",
"265 529 CURVE SMOOTH",
"289 529 OFFCURVE",
"330 519 OFFCURVE",
"355 510 CURVE",
"370 384 LINE",
"459 384 LINE",
"471 601 LINE",
"416 609 OFFCURVE",
"312 625 OFFCURVE",
"292 625 CURVE SMOOTH"
);
}
);
width = 496;
},
{
anchors = (
{
name = bottom;
position = "{235, 0}";
},
{
name = top;
position = "{261, 591}";
}
);
background = {
paths = (
{
closed = 1;
nodes = (
"221 601 OFFCURVE",
"136 549 OFFCURVE",
"90 475 CURVE",
"66 426 OFFCURVE",
"55 358 OFFCURVE",
"55 280 CURVE SMOOTH",
"55 106 OFFCURVE",
"125 -10 OFFCURVE",
"272 -10 CURVE SMOOTH",
"314 -10 OFFCURVE",
"367 -4 OFFCURVE",
"368 -4 CURVE",
"369 132 LINE",
"351 132 LINE",
"339.816 15 LINE",
"279 15 LINE SMOOTH",
"156 15 OFFCURVE",
"85 96 OFFCURVE",
"85 301 CURVE SMOOTH",
"85 424 OFFCURVE",
"121 482 OFFCURVE",
"160 517 CURVE SMOOTH",
"202 555 OFFCURVE",
"236 572 OFFCURVE",
"254 572 CURVE SMOOTH",
"279 572 OFFCURVE",
"323 567 OFFCURVE",
"336 564 CURVE",
"343 461 LINE",
"362 461 LINE",
"368 587 LINE",
"340 592 OFFCURVE",
"279 601 OFFCURVE",
"250 601 CURVE SMOOTH"
);
}
);
};
layerId = "4F39836F-1187-466E-8FAB-7EBF43C51BB4";
paths = (
{
closed = 1;
nodes = (
"221 601 OFFCURVE",
"136 549 OFFCURVE",
"90 475 CURVE",
"66 426 OFFCURVE",
"55 358 OFFCURVE",
"55 280 CURVE SMOOTH",
"55 106 OFFCURVE",
"125 -10 OFFCURVE",
"272 -10 CURVE SMOOTH",
"324 -10 OFFCURVE",
"377 -4 OFFCURVE",
"378 -4 CURVE",
"379 132 LINE",
"361 132 LINE",
"350 15 LINE",
"279 15 LINE SMOOTH",
"156 15 OFFCURVE",
"85 96 OFFCURVE",
"85 301 CURVE SMOOTH",
"85 424 OFFCURVE",
"121 482 OFFCURVE",
"160 517 CURVE SMOOTH",
"202 555 OFFCURVE",
"236 572 OFFCURVE",
"254 572 CURVE SMOOTH",
"279 572 OFFCURVE",
"333 567 OFFCURVE",
"346 564 CURVE",
"353 461 LINE",
"372 461 LINE",
"378 587 LINE",
"350 592 OFFCURVE",
"279 601 OFFCURVE",
"250 601 CURVE SMOOTH"
);
}
);
width = 431;
}
);
leftKerningGroup = O;
rightKerningGroup = C;
unicode = 0043;
},
{
glyphname = D;
lastChange = "2018-02-21 15:45:24 +0000";
layers = (
{
anchors = (
{
name = center;
position = "{172, 308}";
},
{
name = top;
position = "{287, 603}";
}
);
layerId = "555729A4-F539-4650-9C4F-3880CB033E7B";
paths = (
{
closed = 1;
nodes = (
"319 0 LINE SMOOTH",
"450 0 OFFCURVE",
"530 96 OFFCURVE",
"530 318 CURVE SMOOTH",
"530 535 OFFCURVE",
"420 603 OFFCURVE",
"319 603 CURVE SMOOTH",
"42 603 LINE",
"42 565 LINE",
"104 545 LINE",
"104 58 LINE",
"42 38 LINE",
"42 0 LINE"
);
},
{
closed = 1;
nodes = (
"197 542 LINE",
"338 556 LINE SMOOTH",
"396 556 OFFCURVE",
"431 442 OFFCURVE",
"431 312 CURVE SMOOTH",
"431 150 OFFCURVE",
"396 47 OFFCURVE",
"338 47 CURVE SMOOTH",
"197 63 LINE"
);
}
);
width = 574;
},
{
anchors = (
{
name = center;
position = "{190, 308}";
},
{
name = top;
position = "{308, 612}";
}
);
layerId = "CB0A0A08-290D-4820-BDFF-3CAB47D8DECF";
paths = (
{
closed = 1;
nodes = (
"388 0 LINE SMOOTH",
"519 0 OFFCURVE",
"599 97 OFFCURVE",
"599 322 CURVE SMOOTH",
"599 542 OFFCURVE",
"489 612 OFFCURVE",
"388 612 CURVE SMOOTH",
"20 612 LINE",
"20 540 LINE",
"80 515 LINE",
"80 97 LINE",
"20 72 LINE",
"20 0 LINE"
);
},
{
closed = 1;
nodes = (
"271 515 LINE",
"337 522 LINE",
"380 522 OFFCURVE",
"404 427 OFFCURVE",
"404 312 CURVE SMOOTH",
"404 174 OFFCURVE",
"380 91 OFFCURVE",
"337 91 CURVE",
"271 98 LINE"
);
}
);
width = 614;
},
{
anchors = (
{
name = center;
position = "{155, 308}";
},
{
name = top;
position = "{254, 591}";
}
);
layerId = "4F39836F-1187-466E-8FAB-7EBF43C51BB4";
paths = (
{
closed = 1;
nodes = (
"256 0 LINE SMOOTH",
"381 0 OFFCURVE",
"457 94 OFFCURVE",
"457 310 CURVE SMOOTH",
"457 525 OFFCURVE",
"352 591 OFFCURVE",
"256 591 CURVE SMOOTH",
"47 591 LINE",
"47 574 LINE",
"104 566 LINE",
"104 25 LINE",
"47 17 LINE",
"47 0 LINE"
);
},
{
closed = 1;
nodes = (
"134 564 LINE",
"262 564 LINE SMOOTH",
"348 564 OFFCURVE",
"427 488 OFFCURVE",
"427 308 CURVE SMOOTH",
"427 87 OFFCURVE",
"349 27 OFFCURVE",
"262 27 CURVE SMOOTH",
"134 27 LINE"
);
}
);
width = 512;
}
);
leftKerningGroup = H;
rightKerningGroup = O;
unicode = 0044;
},
{
glyphname = E;
lastChange = "2018-02-21 15:51:28 +0000";
layers = (
{
anchors = (
{
name = bottom;
position = "{254, 0}";
},
{
name = ogonek;
position = "{416, 0}";
},
{
name = top;
position = "{253, 603}";
}
);
layerId = "555729A4-F539-4650-9C4F-3880CB033E7B";
paths = (
{
closed = 1;
nodes = (
"445 0 LINE",
"441 179 LINE",
"387 179 LINE",
"371 49 LINE",
"197 65 LINE",
"197 285 LINE",
"343 290 LINE",
"343 337 LINE",
"197 342 LINE",
"197 540 LINE",
"362 554 LINE",
"373 428 LINE",
"427 428 LINE",
"440 603 LINE",
"42 603 LINE",
"42 565 LINE",
"104 545 LINE",
"104 58 LINE",
"42 38 LINE",
"42 0 LINE"
);
}
);
width = 475;
},
{
anchors = (
{
name = bottom;
position = "{292, 0}";
},
{
name = ogonek;
position = "{483, 0}";
},
{
name = top;
position = "{291, 612}";
}
);
layerId = "CB0A0A08-290D-4820-BDFF-3CAB47D8DECF";
paths = (
{
closed = 1;
nodes = (
"533 0 LINE",
"529 199 LINE",
"440 199 LINE",
"422 88 LINE",
"271 104 LINE",
"271 259 LINE",
"404 266 LINE",
"404 360 LINE",
"271 365 LINE",
"271 510 LINE",
"413 524 LINE",
"426 417 LINE",
"515 417 LINE",
"528 612 LINE",
"20 612 LINE",
"20 540 LINE",
"80 515 LINE",
"80 97 LINE",
"20 72 LINE",
"20 0 LINE"
);
}
);
width = 558;
},
{
anchors = (
{
name = bottom;
position = "{233, 0}";
},
{
name = ogonek;
position = "{371, 0}";
},
{
name = top;
position = "{232, 591}";
}
);
layerId = "4F39836F-1187-466E-8FAB-7EBF43C51BB4";
paths = (
{
closed = 1;
nodes = (
"392 0 LINE",
"389 122 LINE",
"370 122 LINE",
"360 27 LINE",
"134 27 LINE",
"134 300 LINE",
"297 302 LINE",
"297 325 LINE",
"134 327 LINE",
"134 564 LINE",
"352 564 LINE",
"359 469 LINE",
"378 469 LINE",
"384 591 LINE",
"47 591 LINE",
"47 574 LINE",
"104 566 LINE",
"104 25 LINE",
"47 17 LINE",
"47 0 LINE"
);
}
);
width = 437;
}
);
leftKerningGroup = H;
rightKerningGroup = E;
unicode = 0045;
},
{
glyphname = F;
lastChange = "2018-02-21 16:13:33 +0000";
layers = (
{
layerId = "555729A4-F539-4650-9C4F-3880CB033E7B";
paths = (
{
closed = 1;
nodes = (
"297 0 LINE",
"297 43 LINE",
"197 65 LINE",
"197 268 LINE",
"336 273 LINE",
"336 320 LINE",
"197 325 LINE",
"197 540 LINE",
"343 554 LINE",
"354 428 LINE",
"408 428 LINE",
"421 603 LINE",
"42 603 LINE",
"42 565 LINE",
"104 545 LINE",
"104 58 LINE",
"42 38 LINE",
"42 0 LINE"
);
}
);
width = 443;
},
{
layerId = "CB0A0A08-290D-4820-BDFF-3CAB47D8DECF";
paths = (
{
closed = 1;
nodes = (
"371 0 LINE",
"371 74 LINE",
"271 105 LINE",
"271 240 LINE",
"424 247 LINE",
"424 341 LINE",
"271 346 LINE",
"271 510 LINE",
"393 524 LINE",
"406 407 LINE",
"495 407 LINE",
"508 612 LINE",
"20 612 LINE",
"20 540 LINE",
"80 515 LINE",
"80 97 LINE",
"20 72 LINE",
"20 0 LINE"
);
}
);
width = 520;
},
{
layerId = "4F39836F-1187-466E-8FAB-7EBF43C51BB4";
paths = (
{
closed = 1;
nodes = (
"209 0 LINE",
"209 18 LINE",
"134 27 LINE",
"134 284 LINE",
"283 286 LINE",
"283 309 LINE",
"134 311 LINE",
"134 564 LINE",
"344 564 LINE",
"351 461 LINE",
"370 461 LINE",
"376 591 LINE",
"47 591 LINE",
"47 574 LINE",
"104 566 LINE",
"104 25 LINE",
"47 17 LINE",
"47 0 LINE"
);
}
);
width = 406;
}
);
leftKerningGroup = H;
rightKerningGroup = F;
unicode = 0046;
},
{
glyphname = Fhook;
lastChange = "2018-03-30 19:32:11 +0000";
layers = (
{
layerId = "CB0A0A08-290D-4820-BDFF-3CAB47D8DECF";
paths = (
{
closed = 1;
nodes = (
"261 240 LINE",
"424 247 LINE",
"424 341 LINE",
"261 346 LINE"
);
},
{
closed = 1;
nodes = (
"271 510 LINE",
"393 524 LINE",
"406 407 LINE",
"495 407 LINE",
"508 612 LINE",
"20 612 LINE",
"20 540 LINE",
"80 515 LINE"
);
},
{
closed = 1;
nodes = (
"136 -153 OFFCURVE",
"271 -24 OFFCURVE",
"271 58 CURVE SMOOTH",
"271 612 LINE",
"80 612 LINE",
"80 70 LINE SMOOTH",
"80 38 OFFCURVE",
"79 -34 OFFCURVE",
"48 -39 CURVE SMOOTH",
"33 -42 OFFCURVE",
"-30 -42 OFFCURVE",
"-58 -42 CURVE",
"-58 -129 LINE",
"2 -138 OFFCURVE",
"69 -153 OFFCURVE",
"97 -153 CURVE SMOOTH"
);
}
);
width = 520;
},
{
layerId = "4F39836F-1187-466E-8FAB-7EBF43C51BB4";
paths = (
{
closed = 1;
nodes = (
"124 284 LINE",
"283 286 LINE",
"283 309 LINE",
"124 311 LINE"
);
},
{
closed = 1;
nodes = (
"134 564 LINE",
"344 564 LINE",
"351 461 LINE",
"370 461 LINE",
"376 591 LINE",
"47 591 LINE",
"47 574 LINE",
"104 566 LINE"
);
},
{
closed = 1;
nodes = (
"81 -115 OFFCURVE",
"134 -53 OFFCURVE",
"134 19 CURVE SMOOTH",
"134 591 LINE",
"104 591 LINE",
"104 17 LINE SMOOTH",
"104 -53 OFFCURVE",
"55 -87 OFFCURVE",
"50 -87 CURVE SMOOTH",
"40 -87 OFFCURVE",
"-2 -87 OFFCURVE",
"-16 -87 CURVE",
"-16 -106 LINE",
"2 -109 OFFCURVE",
"39 -115 OFFCURVE",
"50 -115 CURVE SMOOTH"
);
}
);
width = 406;
},
{
layerId = "555729A4-F539-4650-9C4F-3880CB033E7B";
paths = (
{
closed = 1;
nodes = (
"187 268 LINE",
"336 273 LINE",
"336 320 LINE",
"187 325 LINE"
);
},
{
closed = 1;
nodes = (
"197 540 LINE",
"343 554 LINE",
"354 428 LINE",
"408 428 LINE",
"421 603 LINE",
"42 603 LINE",
"42 565 LINE",
"104 545 LINE"
);
},
{
closed = 1;
nodes = (
"93 -123 OFFCURVE",
"197 -24 OFFCURVE",
"197 38 CURVE SMOOTH",
"197 603 LINE",
"104 603 LINE",
"104 70 LINE SMOOTH",
"104 35 OFFCURVE",
"102 -43 OFFCURVE",
"72 -49 CURVE SMOOTH",
"57 -52 OFFCURVE",
"-10 -52 OFFCURVE",
"-38 -52 CURVE",
"-38 -99 LINE",
"-2 -108 OFFCURVE",
"46 -123 OFFCURVE",
"62 -123 CURVE SMOOTH"
);
}
);
width = 443;
}
);
unicode = 0191;
},
{
glyphname = G;
lastChange = "2018-02-12 15:36:47 +0000";
layers = (
{
anchors = (
{
name = bottom;
position = "{261, 0}";
},
{
name = top;
position = "{284, 603}";
}
);
background = {
paths = (
{
closed = 1;
nodes = (
"209 611 OFFCURVE",
"105 544 OFFCURVE",
"73 494 CURVE",
"55 449 OFFCURVE",
"43 369 OFFCURVE",
"43 277 CURVE SMOOTH",
"43 83 OFFCURVE",
"137 -9 OFFCURVE",
"256 -9 CURVE SMOOTH",
"276 -9 OFFCURVE",
"419 38 OFFCURVE",
"449 59 CURVE",
"449 239 LINE",
"501 252 LINE",
"501 291 LINE",
"270 291 LINE",
"270 245 LINE",
"363 228 LINE",
"363 69 LINE",
"260 59 LINE",
"195 59 OFFCURVE",
"142 109 OFFCURVE",
"142 312 CURVE SMOOTH",
"142 433 OFFCURVE",
"159 518 OFFCURVE",
"192 535 CURVE SMOOTH",
"200 539 OFFCURVE",
"209 541 OFFCURVE",
"224 541 CURVE SMOOTH",
"246 541 OFFCURVE",
"323 534 OFFCURVE",
"360 527 CURVE",
"372 428 LINE",
"426 428 LINE",
"438 599 LINE",
"378 604 OFFCURVE",
"259 611 OFFCURVE",
"239 611 CURVE SMOOTH"
);
}
);
};
layerId = "555729A4-F539-4650-9C4F-3880CB033E7B";
paths = (
{
closed = 1;
nodes = (
"209 611 OFFCURVE",
"105 544 OFFCURVE",
"73 494 CURVE",
"55 449 OFFCURVE",
"43 369 OFFCURVE",
"43 277 CURVE SMOOTH",
"43 83 OFFCURVE",
"137 -9 OFFCURVE",
"256 -9 CURVE SMOOTH",
"276 -9 OFFCURVE",
"425 38 OFFCURVE",
"455 59 CURVE",
"455 239 LINE",
"507 252 LINE",
"507 291 LINE",
"276 291 LINE",
"276 245 LINE",
"369 228 LINE",
"369 69 LINE",
"260 59 LINE",
"195 59 OFFCURVE",
"142 109 OFFCURVE",
"142 312 CURVE SMOOTH",
"142 433 OFFCURVE",
"159 518 OFFCURVE",
"192 535 CURVE SMOOTH",
"200 539 OFFCURVE",
"209 541 OFFCURVE",
"224 541 CURVE SMOOTH",
"246 541 OFFCURVE",
"329 534 OFFCURVE",
"366 527 CURVE",
"378 428 LINE",
"432 428 LINE",
"444 599 LINE",
"384 604 OFFCURVE",
"259 611 OFFCURVE",
"239 611 CURVE SMOOTH"
);
}
);
width = 534;
},
{
anchors = (
{
name = bottom;
position = "{299, 0}";
},
{
name = top;
position = "{307, 612}";
}
);
background = {
paths = (
{
closed = 1;
nodes = (
"246 625 OFFCURVE",
"97 540 OFFCURVE",
"48 485 CURVE",
"32 442 OFFCURVE",
"15 374 OFFCURVE",
"15 287 CURVE SMOOTH",
"15 77 OFFCURVE",
"117 -13 OFFCURVE",
"318 -13 CURVE SMOOTH",
"338 -13 OFFCURVE",
"509 35 OFFCURVE",
"539 51 CURVE",
"539 230 LINE",
"599 243 LINE",
"599 316 LINE",
"290 316 LINE",
"290 239 LINE",
"383 222 LINE",
"383 104 LINE",
"311 97 LINE",
"237 97 OFFCURVE",
"214 147 OFFCURVE",
"214 308 CURVE SMOOTH",
"214 428 OFFCURVE",
"227 525 OFFCURVE",
"242 527 CURVE",
"265 527 OFFCURVE",
"378 515 OFFCURVE",
"411 509 CURVE",
"423 396 LINE",
"516 396 LINE",
"528 601 LINE",
"468 612 OFFCURVE",
"312 625 OFFCURVE",
"292 625 CURVE SMOOTH"
);
}
);
};
layerId = "CB0A0A08-290D-4820-BDFF-3CAB47D8DECF";
paths = (
{
closed = 1;
nodes = (
"246 625 OFFCURVE",
"97 540 OFFCURVE",
"48 485 CURVE",
"32 442 OFFCURVE",
"15 374 OFFCURVE",
"15 287 CURVE SMOOTH",
"15 77 OFFCURVE",
"117 -13 OFFCURVE",
"318 -13 CURVE SMOOTH",
"338 -13 OFFCURVE",
"509 35 OFFCURVE",
"539 51 CURVE",
"539 230 LINE",
"599 243 LINE",
"599 316 LINE",
"290 316 LINE",
"290 239 LINE",
"383 222 LINE",
"383 104 LINE",
"311 97 LINE",
"237 97 OFFCURVE",
"214 147 OFFCURVE",
"214 308 CURVE SMOOTH",
"214 428 OFFCURVE",
"228 515 OFFCURVE",
"242 524 CURVE SMOOTH",
"248 528 OFFCURVE",
"255 529 OFFCURVE",
"265 529 CURVE SMOOTH",
"306 529 OFFCURVE",
"384 514 OFFCURVE",
"411 509 CURVE",
"423 396 LINE",
"516 396 LINE",
"528 601 LINE",
"468 612 OFFCURVE",
"312 625 OFFCURVE",
"292 625 CURVE SMOOTH"
);
}
);
width = 599;
},
{
anchors = (
{
name = bottom;
position = "{261, 0}";
},
{
name = top;
position = "{264, 591}";
}
);
background = {
paths = (
{
closed = 1;
nodes = (
"221 601 OFFCURVE",
"136 549 OFFCURVE",
"90 475 CURVE",
"66 426 OFFCURVE",
"55 358 OFFCURVE",
"55 280 CURVE SMOOTH",
"55 95 OFFCURVE",
"127 -15 OFFCURVE",
"267 -10 CURVE SMOOTH",
"290 -9 OFFCURVE",
"376 9 OFFCURVE",
"392 15 CURVE",
"392 262 LINE",
"449 267 LINE",
"449 287 LINE",
"271 287 LINE",
"271 266 LINE",
"362 259 LINE",
"362 31 LINE",
"270 16 LINE SMOOTH",
"166 16 OFFCURVE",
"85 70 OFFCURVE",
"85 301 CURVE SMOOTH",
"85 424 OFFCURVE",
"121 482 OFFCURVE",
"160 517 CURVE SMOOTH",
"202 555 OFFCURVE",
"236 572 OFFCURVE",
"254 572 CURVE SMOOTH",
"288 572 OFFCURVE",
"339 564 OFFCURVE",
"359 560 CURVE",
"366 461 LINE",
"385 461 LINE",
"391 583 LINE",
"362 589 OFFCURVE",
"283 601 OFFCURVE",
"250 601 CURVE SMOOTH"
);
}
);
};
layerId = "4F39836F-1187-466E-8FAB-7EBF43C51BB4";
paths = (
{
closed = 1;
nodes = (
"221 601 OFFCURVE",
"136 549 OFFCURVE",
"90 475 CURVE",
"66 426 OFFCURVE",
"55 358 OFFCURVE",
"55 280 CURVE SMOOTH",
"55 95 OFFCURVE",
"127 -15 OFFCURVE",
"267 -10 CURVE SMOOTH",
"290 -9 OFFCURVE",
"386 9 OFFCURVE",
"402 15 CURVE",
"402 262 LINE",
"459 267 LINE",
"459 287 LINE",
"281 287 LINE",
"281 266 LINE",
"372 259 LINE",
"372 31 LINE",
"270 16 LINE",
"167 15 OFFCURVE",
"85 70 OFFCURVE",
"85 301 CURVE SMOOTH",
"85 424 OFFCURVE",
"121 482 OFFCURVE",
"160 517 CURVE SMOOTH",
"202 555 OFFCURVE",
"236 572 OFFCURVE",
"254 572 CURVE SMOOTH",
"288 572 OFFCURVE",
"349 564 OFFCURVE",
"369 560 CURVE",
"376 461 LINE",
"395 461 LINE",
"401 583 LINE",
"372 589 OFFCURVE",
"283 601 OFFCURVE",
"250 601 CURVE SMOOTH"
);
}
);
width = 479;
}
);
leftKerningGroup = O;
rightKerningGroup = G;
unicode = 0047;
},
{
glyphname = H;
lastChange = "2018-02-21 16:12:32 +0000";
layers = (
{
anchors = (
{
name = bottom;
position = "{308, 0}";
},
{
name = center;
position = "{310, 448}";
},
{
name = top;
position = "{310, 603}";
}
);
layerId = "555729A4-F539-4650-9C4F-3880CB033E7B";
paths = (
{
closed = 1;
nodes = (
"263 0 LINE",
"263 43 LINE",
"197 63 LINE",
"197 284 LINE",
"424 284 LINE",
"424 63 LINE",
"358 43 LINE",
"358 0 LINE",
"579 0 LINE",
"579 38 LINE",
"517 58 LINE",
"517 545 LINE",
"579 565 LINE",
"579 603 LINE",
"358 603 LINE",
"358 560 LINE",
"424 540 LINE",
"424 337 LINE",
"197 337 LINE",
"197 540 LINE",
"263 560 LINE",
"263 603 LINE",
"42 603 LINE",
"42 565 LINE",
"104 545 LINE",
"104 58 LINE",
"42 38 LINE",
"42 0 LINE"
);
}
);
width = 621;
},
{
anchors = (
{
name = bottom;
position = "{348, 0}";
},
{
name = center;
position = "{346, 462}";
},
{
name = top;
position = "{347, 612}";
}
);
layerId = "CB0A0A08-290D-4820-BDFF-3CAB47D8DECF";
paths = (
{
closed = 1;
nodes = (
"325 0 LINE",
"325 84 LINE",
"267 107 LINE",
"267 265 LINE",
"426 265 LINE",
"426 107 LINE",
"368 84 LINE",
"368 0 LINE",
"673 0 LINE",
"673 72 LINE",
"613 97 LINE",
"613 515 LINE",
"673 540 LINE",
"673 612 LINE",
"368 612 LINE",
"368 532 LINE",
"426 505 LINE",
"426 360 LINE",
"267 360 LINE",
"267 505 LINE",
"325 532 LINE",
"325 612 LINE",
"20 612 LINE",
"20 540 LINE",
"80 515 LINE",
"80 97 LINE",
"20 72 LINE",
"20 0 LINE"
);
}
);
width = 693;
},
{
anchors = (
{
name = bottom;
position = "{274, 0}";
},
{
name = center;
position = "{270, 441}";
},
{
name = top;
position = "{271, 591}";
}
);
layerId = "4F39836F-1187-466E-8FAB-7EBF43C51BB4";
paths = (
{
closed = 1;
nodes = (
"195 0 LINE",
"195 18 LINE",
"134 27 LINE",
"134 292 LINE",
"411 292 LINE",
"411 27 LINE",
"350 18 LINE",
"350 0 LINE",
"498 0 LINE",
"498 17 LINE",
"441 25 LINE",
"441 566 LINE",
"498 574 LINE",
"498 591 LINE",
"350 591 LINE",
"350 573 LINE",
"411 564 LINE",
"411 319 LINE",
"134 319 LINE",
"134 564 LINE",
"195 573 LINE",
"195 591 LINE",
"47 591 LINE",
"47 574 LINE",
"104 566 LINE",
"104 25 LINE",
"47 17 LINE",
"47 0 LINE"
);
}
);
width = 545;
}
);
leftKerningGroup = H;
rightKerningGroup = H;
unicode = 0048;
},
{
glyphname = I;
lastChange = "2018-02-21 16:14:15 +0000";
layers = (
{
anchors = (
{
name = bottom;
position = "{152, 0}";
},
{
name = ogonek;
position = "{234, 0}";
},
{
name = top;
position = "{154, 603}";
}
);
layerId = "555729A4-F539-4650-9C4F-3880CB033E7B";
paths = (
{
closed = 1;
nodes = (
"264 0 LINE",
"264 43 LINE",
"198 63 LINE",
"198 540 LINE",
"264 560 LINE",
"264 603 LINE",
"42 603 LINE",
"42 565 LINE",
"105 545 LINE",
"105 58 LINE",
"43 38 LINE",
"43 0 LINE"
);
}
);
width = 306;
},
{
anchors = (
{
name = bottom;
position = "{184, 0}";
},
{
name = ogonek;
position = "{291, 0}";
},
{
name = top;
position = "{180, 612}";
}
);
layerId = "CB0A0A08-290D-4820-BDFF-3CAB47D8DECF";
paths = (
{
closed = 1;
nodes = (
"341 0 LINE",
"341 72 LINE",
"276 97 LINE",
"276 515 LINE",
"341 540 LINE",
"341 612 LINE",
"20 612 LINE",
"20 540 LINE",
"85 515 LINE",
"85 97 LINE",
"20 72 LINE",
"20 0 LINE"
);
}
);
width = 361;
},
{
anchors = (
{
name = bottom;
position = "{118, 0}";
},
{
name = ogonek;
position = "{170, 0}";
},
{
name = top;
position = "{120, 591}";
}
);
layerId = "4F39836F-1187-466E-8FAB-7EBF43C51BB4";
paths = (
{
closed = 1;
nodes = (
"195 0 LINE",
"195 18 LINE",
"134 27 LINE",
"134 564 LINE",
"195 573 LINE",
"195 591 LINE",
"47 591 LINE",
"47 574 LINE",
"104 566 LINE",
"104 25 LINE",
"47 17 LINE",
"47 0 LINE"
);
}
);
width = 242;
}
);
leftKerningGroup = H;
leftMetricsKey = H;
rightKerningGroup = H;
rightMetricsKey = H;
unicode = 0049;
},
{
glyphname = J;
lastChange = "2018-02-21 15:53:07 +0000";
layers = (
{
anchors = (
{
name = top;
position = "{151, 603}";
}
);
layerId = "555729A4-F539-4650-9C4F-3880CB033E7B";
paths = (
{
closed = 1;
nodes = (
"93 -123 OFFCURVE",
"197 -24 OFFCURVE",
"197 38 CURVE SMOOTH",
"197 545 LINE",
"262 565 LINE",
"262 603 LINE",
"39 603 LINE",
"39 565 LINE",
"104 545 LINE",
"104 70 LINE SMOOTH",
"104 35 OFFCURVE",
"102 -43 OFFCURVE",
"72 -49 CURVE SMOOTH",
"57 -52 OFFCURVE",
"-10 -52 OFFCURVE",
"-38 -52 CURVE",
"-38 -99 LINE",
"-2 -108 OFFCURVE",
"46 -123 OFFCURVE",
"62 -123 CURVE SMOOTH"
);
}
);
width = 301;
},
{
anchors = (
{
name = top;
position = "{172, 612}";
}
);
layerId = "CB0A0A08-290D-4820-BDFF-3CAB47D8DECF";
paths = (
{
closed = 1;
nodes = (
"134 -153 OFFCURVE",
"269 -24 OFFCURVE",
"269 58 CURVE SMOOTH",
"269 515 LINE",
"334 540 LINE",
"334 612 LINE",
"13 612 LINE",
"13 540 LINE",
"78 515 LINE",
"78 70 LINE SMOOTH",
"78 38 OFFCURVE",
"77 -34 OFFCURVE",
"46 -39 CURVE SMOOTH",
"31 -42 OFFCURVE",
"-32 -42 OFFCURVE",
"-60 -42 CURVE",
"-60 -129 LINE",
"0 -138 OFFCURVE",
"67 -153 OFFCURVE",
"95 -153 CURVE SMOOTH"
);
}
);
width = 344;
},
{
anchors = (
{
name = top;
position = "{120, 591}";
}
);
layerId = "4F39836F-1187-466E-8FAB-7EBF43C51BB4";
paths = (
{
closed = 1;
nodes = (
"82 -115 OFFCURVE",
"135 -53 OFFCURVE",
"135 19 CURVE SMOOTH",
"135 564 LINE",
"196 573 LINE",
"196 591 LINE",
"48 591 LINE",
"48 574 LINE",
"105 566 LINE",
"105 17 LINE SMOOTH",
"105 -53 OFFCURVE",
"56 -87 OFFCURVE",
"51 -87 CURVE SMOOTH",
"41 -87 OFFCURVE",
"-1 -87 OFFCURVE",
"-15 -87 CURVE",
"-15 -106 LINE",
"3 -109 OFFCURVE",
"40 -115 OFFCURVE",
"51 -115 CURVE SMOOTH"
);
}
);
width = 232;
}
);
leftKerningGroup = J;
rightKerningGroup = J;
unicode = 004A;
},
{
glyphname = K;
lastChange = "2018-02-21 16:17:08 +0000";
layers = (
{
anchors = (
{
name = bottom;
position = "{303, 0}";
}
);
layerId = "555729A4-F539-4650-9C4F-3880CB033E7B";
paths = (
{
closed = 1;
nodes = (
"562 0 LINE",
"562 42 LINE",
"512 58 LINE",
"469 106 OFFCURVE",
"356 257 OFFCURVE",
"311 320 CURVE",
"474 545 LINE",
"536 565 LINE",
"536 603 LINE",
"315 603 LINE",
"315 560 LINE",
"380 540 LINE",
"227 320 LINE",
"227 292 LINE",
"274 219 OFFCURVE",
"385 63 OFFCURVE",
"427 0 CURVE"
);
},
{
closed = 1;
nodes = (
"263 0 LINE",
"263 43 LINE",
"197 63 LINE",
"197 540 LINE",
"263 560 LINE",
"263 603 LINE",
"42 603 LINE",
"42 565 LINE",
"104 545 LINE",
"104 58 LINE",
"42 38 LINE",
"42 0 LINE"
);
}
);
width = 538;
},
{
anchors = (
{
name = bottom;
position = "{354, 0}";
}
);
layerId = "CB0A0A08-290D-4820-BDFF-3CAB47D8DECF";
paths = (
{
closed = 1;
nodes = (
"666 0 LINE",
"666 72 LINE",
"610 97 LINE",
"576 146 OFFCURVE",
"484 280 OFFCURVE",
"448 334 CURVE",
"597 520 LINE",
"654 540 LINE",
"654 612 LINE",
"366 612 LINE",
"366 532 LINE",
"423 512 LINE",
"284 333 LINE",
"284 272 LINE",
"323 204 OFFCURVE",
"405 59 OFFCURVE",
"440 0 CURVE"
);
},
{
closed = 1;
nodes = (
"325 0 LINE",
"325 84 LINE",
"267 107 LINE",
"267 505 LINE",
"323 532 LINE",
"323 612 LINE",
"20 612 LINE",
"20 540 LINE",
"80 515 LINE",
"80 97 LINE",
"20 72 LINE",
"20 0 LINE"
);
}
);
width = 668;
},
{
anchors = (
{
name = bottom;
position = "{254, 0}";
}
);
layerId = "4F39836F-1187-466E-8FAB-7EBF43C51BB4";
paths = (
{
closed = 1;
nodes = (
"482 0 LINE",
"482 20 LINE",
"426 25 LINE",
"384 86 OFFCURVE",
"279 233 OFFCURVE",
"225 311 CURVE",
"407 566 LINE",
"463 574 LINE",
"463 591 LINE",
"315 591 LINE",
"315 573 LINE",
"371 564 LINE",
"195 317 LINE",
"195 302 LINE",
"264 203 OFFCURVE",
"370 54 OFFCURVE",
"407 0 CURVE"
);
},
{
closed = 1;
nodes = (
"195 0 LINE",
"195 18 LINE",
"134 27 LINE",
"134 564 LINE",
"195 573 LINE",
"195 591 LINE",
"47 591 LINE",
"47 574 LINE",
"104 566 LINE",
"104 25 LINE",
"47 17 LINE",
"47 0 LINE"
);
}
);
width = 512;
}
);
leftKerningGroup = H;
leftMetricsKey = H;
rightKerningGroup = K;
unicode = 004B;
},
{
glyphname = L;
lastChange = "2018-02-21 16:17:12 +0000";
layers = (
{
anchors = (
{
name = bottom;
position = "{243, 0}";
},
{
name = center;
position = "{104, 448}";
},
{
name = top;
position = "{150, 603}";
}
);
layerId = "555729A4-F539-4650-9C4F-3880CB033E7B";
paths = (
{
closed = 1;
nodes = (
"452 0 LINE",
"448 179 LINE",
"394 179 LINE",
"378 49 LINE",
"197 65 LINE",
"197 540 LINE",
"273 560 LINE",
"273 603 LINE",
"42 603 LINE",
"42 565 LINE",
"104 545 LINE",
"104 58 LINE",
"42 38 LINE",
"42 0 LINE"
);
}
);
width = 460;
},
{
anchors = (
{
name = bottom;
position = "{263, 0}";
},
{
name = center;
position = "{104, 462}";
},
{
name = top;
position = "{177, 612}";
}
);
layerId = "CB0A0A08-290D-4820-BDFF-3CAB47D8DECF";
paths = (
{
closed = 1;
nodes = (
"513 0 LINE",
"509 219 LINE",
"420 219 LINE",
"398 88 LINE",
"271 104 LINE",
"271 515 LINE",
"341 540 LINE",
"341 612 LINE",
"20 612 LINE",
"20 540 LINE",
"80 515 LINE",
"80 97 LINE",
"20 72 LINE",
"20 0 LINE"
);
}
);
width = 523;
},
{
anchors = (
{
name = bottom;
position = "{223, 0}";
},
{
name = center;
position = "{121, 440}";
},
{
name = top;
position = "{120, 591}";
}
);
layerId = "4F39836F-1187-466E-8FAB-7EBF43C51BB4";
paths = (
{
closed = 1;
nodes = (
"372 0 LINE",
"369 142 LINE",
"350 142 LINE",
"340 27 LINE",
"134 27 LINE",
"134 564 LINE",
"205 573 LINE",
"205 591 LINE",
"47 591 LINE",
"47 574 LINE",
"104 566 LINE",
"104 25 LINE",
"47 17 LINE",
"47 0 LINE"
);
}
);
width = 402;
}
);
leftKerningGroup = H;
leftMetricsKey = H;
rightKerningGroup = L;
unicode = 004C;
},
{
glyphname = Ldot;
lastChange = "2018-03-30 19:11:58 +0000";
layers = (
{
components = (
{
name = L;
},
{
name = periodcentered.loclCAT.case;
transform = "{1, 0, 0, 1, 108, 0}";
}
);
layerId = "4F39836F-1187-466E-8FAB-7EBF43C51BB4";
width = 402;
},
{
background = {
paths = (
{
closed = 1;
nodes = (
"399 349 LINE",
"404 436 LINE",
"389 458 LINE",
"312 453 LINE",
"319 349 LINE"
);
}
);
};
components = (
{
name = L;
},
{
name = periodcentered.loclCAT.case;
transform = "{1, 0, 0, 1, 115, 0}";
}
);
layerId = "555729A4-F539-4650-9C4F-3880CB033E7B";
width = 460;
},
{
components = (
{
name = L;
},
{
name = periodcentered.loclCAT.case;
transform = "{1, 0, 0, 1, 231, 0}";
}
);
layerId = "CB0A0A08-290D-4820-BDFF-3CAB47D8DECF";
width = 523;
}
);
leftKerningGroup = H;
rightKerningGroup = L;
unicode = 013F;
},
{
glyphname = Lslash;
lastChange = "2018-02-26 23:00:32 +0000";
layers = (
{
background = {
paths = (
{
closed = 1;
nodes = (
"41 247 LINE",
"46 244 LINE",
"246 369 LINE",
"245 385 LINE",
"239 388 LINE",
"39 264 LINE"
);
}
);
};
components = (
{
name = L;
},
{
name = slashshortcomb.case;
transform = "{1, 0, 0, 1, 17, 0}";
}
);
layerId = "4F39836F-1187-466E-8FAB-7EBF43C51BB4";
width = 402;
},
{
background = {
paths = (
{
closed = 1;
nodes = (
"37 258 LINE",
"50 255 LINE",
"323 378 LINE",
"322 428 LINE",
"308 431 LINE",
"36 309 LINE"
);
}
);
};
components = (
{
name = L;
},
{
name = slashshortcomb.case;
}
);
layerId = "555729A4-F539-4650-9C4F-3880CB033E7B";
width = 460;
},
{
components = (
{
name = L;
},
{
name = slashshortcomb.case;
}
);
layerId = "CB0A0A08-290D-4820-BDFF-3CAB47D8DECF";
width = 523;
}
);
leftKerningGroup = H;
rightKerningGroup = L;
unicode = 0141;
},
{
glyphname = M;
lastChange = "2018-02-21 16:17:21 +0000";
layers = (
{
background = {
paths = (
{
closed = 1;
nodes = (
"255 0 LINE",
"255 46 LINE",
"189 63 LINE",
"197 486 LINE",
"204 486 LINE",
"204 486 OFFCURVE",
"243 348 OFFCURVE",
"258 295 CURVE SMOOTH",
"332 42 LINE",
"332 42 OFFCURVE",
"344 34 OFFCURVE",
"348 34 CURVE SMOOTH",
"350 34 OFFCURVE",
"415 42 OFFCURVE",
"453 48 CURVE",
"528 301 LINE SMOOTH",
"547 366 OFFCURVE",
"581 486 OFFCURVE",
"581 486 CURVE",
"588 486 LINE",
"596 63 LINE",
"530 46 LINE",
"530 0 LINE",
"751 0 LINE",
"751 38 LINE",
"689 58 LINE",
"670 545 LINE",
"732 565 LINE",
"732 603 LINE",
"537 603 LINE",
"402 129 LINE",
"390 129 LINE",
"254 603 LINE",
"60 603 LINE",
"60 565 LINE",
"122 545 LINE",
"104 58 LINE",
"42 38 LINE",
"42 0 LINE"
);
}
);
};
layerId = "555729A4-F539-4650-9C4F-3880CB033E7B";
paths = (
{
closed = 1;
nodes = (
"255 0 LINE",
"255 43 LINE",
"189 63 LINE",
"197 491 LINE",
"204 491 LINE",
"204 491 OFFCURVE",
"242 348 OFFCURVE",
"258 295 CURVE SMOOTH",
"334 42 LINE",
"334 42 OFFCURVE",
"346 34 OFFCURVE",
"350 34 CURVE SMOOTH",
"352 34 OFFCURVE",
"413 42 OFFCURVE",
"451 48 CURVE",
"528 301 LINE SMOOTH",
"548 366 OFFCURVE",
"581 491 OFFCURVE",
"581 491 CURVE",
"588 491 LINE",
"596 63 LINE",
"530 43 LINE",
"530 0 LINE",
"751 0 LINE",
"751 38 LINE",
"689 58 LINE",
"670 545 LINE",
"732 565 LINE",
"732 603 LINE",
"537 603 LINE",
"402 124 LINE",
"390 124 LINE",
"254 603 LINE",
"60 603 LINE",
"60 565 LINE",
"122 545 LINE",
"104 58 LINE",
"42 38 LINE",
"42 0 LINE"
);
}
);
width = 789;
},
{
background = {
paths = (
{
closed = 1;
nodes = (
"278 0 LINE",
"278 80 LINE",
"208 105 LINE",
"218 355 LINE",
"228 355 LINE",
"228 355 OFFCURVE",
"242 293 OFFCURVE",
"261 240 CURVE SMOOTH",
"334 32 LINE",
"334 32 OFFCURVE",
"355 19 OFFCURVE",
"358 19 CURVE SMOOTH",
"367 19 OFFCURVE",
"478 35 OFFCURVE",
"478 35 CURVE",
"549 235 LINE SMOOTH",
"561 269 OFFCURVE",
"574 315 OFFCURVE",
"582 355 CURVE",
"592 355 LINE",
"599 105 LINE",
"529 80 LINE",
"529 0 LINE",
"849 0 LINE",
"849 72 LINE",
"789 97 LINE",
"769 515 LINE",
"829 540 LINE",
"829 612 LINE",
"541 612 LINE",
"435 258 LINE",
"422 258 LINE",
"317 612 LINE",
"30 612 LINE",
"30 540 LINE",
"90 515 LINE",
"70 97 LINE",
"10 72 LINE",
"10 0 LINE"
);
}
);
};
layerId = "CB0A0A08-290D-4820-BDFF-3CAB47D8DECF";
paths = (
{
closed = 1;
nodes = (
"278 0 LINE",
"278 80 LINE",
"208 105 LINE",
"218 360 LINE",
"228 360 LINE",
"228 360 OFFCURVE",
"242 293 OFFCURVE",
"261 240 CURVE SMOOTH",
"336 32 LINE",
"336 32 OFFCURVE",
"357 19 OFFCURVE",
"360 19 CURVE SMOOTH",
"369 19 OFFCURVE",
"476 35 OFFCURVE",
"476 35 CURVE",
"549 235 LINE SMOOTH",
"561 269 OFFCURVE",
"574 320 OFFCURVE",
"582 360 CURVE",
"592 360 LINE",
"599 105 LINE",
"529 80 LINE",
"529 0 LINE",
"849 0 LINE",
"849 72 LINE",
"789 97 LINE",
"769 515 LINE",
"829 540 LINE",
"829 612 LINE",
"541 612 LINE",
"435 253 LINE",
"422 253 LINE",
"317 612 LINE",
"30 612 LINE",
"30 540 LINE",
"90 515 LINE",
"70 97 LINE",
"10 72 LINE",
"10 0 LINE"
);
}
);
width = 855;
},
{
layerId = "4F39836F-1187-466E-8FAB-7EBF43C51BB4";
paths = (
{
closed = 1;
nodes = (
"192 0 LINE",
"192 18 LINE",
"131 27 LINE",
"148 542 LINE",
"154 542 LINE",
"154 542 OFFCURVE",
"205 373 OFFCURVE",
"227 304 CURVE SMOOTH",
"309 49 LINE",
"309 49 OFFCURVE",
"319 41 OFFCURVE",
"323 41 CURVE SMOOTH",
"329 41 OFFCURVE",
"355 46 OFFCURVE",
"355 46 CURVE",
"438 304 LINE SMOOTH",
"462 379 OFFCURVE",
"510 542 OFFCURVE",
"510 542 CURVE",
"516 542 LINE",
"534 27 LINE",
"473 18 LINE",
"473 0 LINE",
"621 0 LINE",
"621 17 LINE",
"564 25 LINE",
"545 566 LINE",
"602 574 LINE",
"602 591 LINE",
"497 591 LINE",
"337 68 LINE",
"331 68 LINE",
"167 591 LINE",
"64 591 LINE",
"64 574 LINE",
"121 566 LINE",
"101 25 LINE",
"44 17 LINE",
"44 0 LINE"
);
}
);
width = 657;
}
);
leftKerningGroup = M;
rightKerningGroup = M;
unicode = 004D;
},
{
glyphname = N;
lastChange = "2018-02-21 16:17:26 +0000";
layers = (
{
anchors = (
{
name = bottom;
position = "{303, 0}";
},
{
name = top;
position = "{301, 603}";
}
);
background = {
paths = (
{
closed = 1;
nodes = (
"390 -7 OFFCURVE",
"471 1 OFFCURVE",
"508 7 CURVE",
"508 545 LINE",
"570 565 LINE",
"570 603 LINE",
"357 603 LINE",
"357 557 LINE",
"423 540 LINE",
"423 505 LINE",
"433 92 LINE",
"425 92 LINE",
"425 92 OFFCURVE",
"377 233 OFFCURVE",
"363 268 CURVE SMOOTH",
"226 603 LINE",
"42 603 LINE",
"42 565 LINE",
"104 545 LINE",
"104 58 LINE",
"42 38 LINE",
"42 0 LINE",
"255 0 LINE",
"255 46 LINE",
"189 63 LINE",
"189 99 LINE",
"179 486 LINE",
"186 486 LINE",
"186 486 OFFCURVE",
"236 347 OFFCURVE",
"257 295 CURVE SMOOTH",
"372 1 LINE",
"372 1 OFFCURVE",
"384 -7 OFFCURVE",
"388 -7 CURVE SMOOTH"
);
}
);
};
layerId = "555729A4-F539-4650-9C4F-3880CB033E7B";
paths = (
{
closed = 1;
nodes = (
"393 -7 OFFCURVE",
"471 1 OFFCURVE",
"508 7 CURVE",
"508 545 LINE",
"570 565 LINE",
"570 603 LINE",
"357 603 LINE",
"357 560 LINE",
"423 540 LINE",
"423 505 LINE",
"433 87 LINE",
"425 87 LINE",
"425 87 OFFCURVE",
"377 233 OFFCURVE",
"363 268 CURVE SMOOTH",
"226 603 LINE",
"42 603 LINE",
"42 565 LINE",
"104 545 LINE",
"104 58 LINE",
"42 38 LINE",
"42 0 LINE",
"255 0 LINE",
"255 43 LINE",
"189 63 LINE",
"189 99 LINE",
"179 486 LINE",
"186 486 LINE",
"186 486 OFFCURVE",
"236 347 OFFCURVE",
"257 295 CURVE SMOOTH",
"375 1 LINE",
"375 1 OFFCURVE",
"387 -7 OFFCURVE",
"391 -7 CURVE SMOOTH"
);
}
);
width = 597;
},
{
anchors = (
{
name = bottom;
position = "{335, 0}";
},
{
name = top;
position = "{338, 612}";
}
);
layerId = "CB0A0A08-290D-4820-BDFF-3CAB47D8DECF";
paths = (
{
closed = 1;
nodes = (
"430 -13 OFFCURVE",
"599 6 OFFCURVE",
"599 6 CURVE",
"599 515 LINE",
"659 540 LINE",
"659 612 LINE",
"392 612 LINE",
"392 532 LINE",
"461 507 LINE",
"461 476 LINE",
"470 250 LINE",
"460 250 LINE",
"460 250 OFFCURVE",
"442 320 OFFCURVE",
"412 376 CURVE SMOOTH",
"287 612 LINE",
"20 612 LINE",
"20 540 LINE",
"80 515 LINE",
"80 97 LINE",
"20 72 LINE",
"20 0 LINE",
"288 0 LINE",
"288 80 LINE",
"218 105 LINE",
"218 140 LINE",
"209 360 LINE",
"219 360 LINE",
"219 360 OFFCURVE",
"240 281 OFFCURVE",
"289 193 CURVE SMOOTH",
"397 0 LINE",
"397 0 OFFCURVE",
"418 -13 OFFCURVE",
"421 -13 CURVE SMOOTH"
);
}
);
width = 669;
},
{
anchors = (
{
name = bottom;
position = "{271, 0}";
},
{
name = top;
position = "{267, 591}";
}
);
layerId = "4F39836F-1187-466E-8FAB-7EBF43C51BB4";
paths = (
{
closed = 1;
nodes = (
"404 -10 OFFCURVE",
"435 -5 OFFCURVE",
"435 -5 CURVE",
"435 566 LINE",
"492 574 LINE",
"492 591 LINE",
"344 591 LINE",
"344 573 LINE",
"405 564 LINE",
"405 544 LINE",
"408 18 LINE",
"402 18 LINE",
"402 18 OFFCURVE",
"378 85 OFFCURVE",
"360 123 CURVE SMOOTH",
"143 591 LINE",
"47 591 LINE",
"47 574 LINE",
"104 566 LINE",
"104 25 LINE",
"47 17 LINE",
"47 0 LINE",
"195 0 LINE",
"195 18 LINE",
"134 27 LINE",
"134 46 LINE",
"131 542 LINE",
"137 542 LINE",
"137 542 OFFCURVE",
"161 481 OFFCURVE",
"176 448 CURVE SMOOTH",
"385 -2 LINE",
"385 -2 OFFCURVE",
"396 -10 OFFCURVE",
"399 -10 CURVE SMOOTH"
);
}
);
width = 532;
}
);
leftKerningGroup = H;
rightKerningGroup = N;
unicode = 004E;
},
{
glyphname = Nhookleft;
lastChange = "2018-02-21 16:17:32 +0000";
layers = (
{
layerId = "4F39836F-1187-466E-8FAB-7EBF43C51BB4";
paths = (
{
closed = 1;
nodes = (
"47 591 LINE",
"47 574 LINE",
"104.971 565.137 LINE",
"104 3 LINE SMOOTH",
"104 -67 OFFCURVE",
"61 -97 OFFCURVE",
"54 -99 CURVE SMOOTH",
"33 -104 OFFCURVE",
"7 -101 OFFCURVE",
"-15 -101 CURVE",
"-15 -120 LINE",
"3 -123 OFFCURVE",
"40 -129 OFFCURVE",
"51 -129 CURVE SMOOTH",
"82 -129 OFFCURVE",
"134 -67 OFFCURVE",
"134 5 CURVE SMOOTH",
"131.208 542 LINE",
"137 542 LINE",
"146 516 OFFCURVE",
"162 478 OFFCURVE",
"176 448 CURVE SMOOTH",
"385 -2 LINE",
"399 -10 LINE",
"404 -10 OFFCURVE",
"424 -8 OFFCURVE",
"435 -5 CURVE",
"435 566 LINE",
"492 574 LINE",
"492 591 LINE",
"344 591 LINE",
"344 573 LINE",
"405 564 LINE",
"405 544 LINE",
"408 22 LINE",
"402 22 LINE",
"402 22 OFFCURVE",
"378 85 OFFCURVE",
"360 123 CURVE SMOOTH",
"143 591 LINE"
);
}
);
width = 532;
},
{
layerId = "555729A4-F539-4650-9C4F-3880CB033E7B";
paths = (
{
closed = 1;
nodes = (
"42 603 LINE",
"42 565 LINE",
"104 545 LINE",
"104 40 LINE SMOOTH",
"104 5 OFFCURVE",
"102 -73 OFFCURVE",
"72 -79 CURVE SMOOTH",
"57 -82 OFFCURVE",
"-14 -82 OFFCURVE",
"-42 -82 CURVE",
"-42 -129 LINE",
"-7 -138 OFFCURVE",
"42 -153 OFFCURVE",
"58 -153 CURVE SMOOTH",
"89 -153 OFFCURVE",
"191 -54 OFFCURVE",
"190 8 CURVE SMOOTH",
"179 486 LINE",
"186 486 LINE",
"206 426 OFFCURVE",
"237 344 OFFCURVE",
"257 295 CURVE SMOOTH",
"372 1 LINE",
"388 -7 LINE",
"390 -7 OFFCURVE",
"471 1 OFFCURVE",
"508 7 CURVE",
"508 545 LINE",
"570 565 LINE",
"570 603 LINE",
"357 603 LINE",
"357 560 LINE",
"423 540 LINE",
"423 505 LINE",
"433 92 LINE",
"425 92 LINE",
"425 92 OFFCURVE",
"377 233 OFFCURVE",
"363 268 CURVE SMOOTH",
"226 603 LINE"
);
}
);
width = 597;
},
{
layerId = "CB0A0A08-290D-4820-BDFF-3CAB47D8DECF";
paths = (
{
closed = 1;
nodes = (
"20 612 LINE",
"20 540 LINE",
"79 515.417 LINE",
"79 40 LINE SMOOTH",
"79 8 OFFCURVE",
"78 -65 OFFCURVE",
"47 -69 CURVE SMOOTH",
"32 -71 OFFCURVE",
"-43 -72 OFFCURVE",
"-71 -72 CURVE",
"-71 -159 LINE",
"-13 -171 OFFCURVE",
"41 -183 OFFCURVE",
"69 -183 CURVE SMOOTH",
"108 -183 OFFCURVE",
"224 -54 OFFCURVE",
"221 28 CURVE SMOOTH",
"209.43 355 LINE",
"219 355 LINE",
"224 338 OFFCURVE",
"244 278 OFFCURVE",
"289 193 CURVE SMOOTH",
"392 0 LINE",
"416 -13 LINE",
"424 -13 OFFCURVE",
"560 0 OFFCURVE",
"599 6 CURVE",
"599 515 LINE",
"659 540 LINE",
"659 612 LINE",
"392 612 LINE",
"392 532 LINE",
"461 507 LINE",
"461 476 LINE",
"470 255 LINE",
"460 255 LINE SMOOTH",
"460 255 OFFCURVE",
"442 320 OFFCURVE",
"412 376 CURVE SMOOTH",
"287 612 LINE"
);
}
);
width = 669;
}
);
leftKerningGroup = J;
rightKerningGroup = N;
unicode = 019D;
},
{
glyphname = Eng;
lastChange = "2018-02-21 16:17:36 +0000";
layers = (
{
layerId = "4F39836F-1187-466E-8FAB-7EBF43C51BB4";
paths = (
{
closed = 1;
nodes = (
"435 -5 LINE",
"435 566 LINE",
"492 574 LINE",
"492 591 LINE",
"344 591 LINE",
"344 573 LINE",
"405 564 LINE",
"405 544 LINE",
"408 58 LINE",
"402 58 LINE",
"402 58 OFFCURVE",
"386 100 OFFCURVE",
"367 138 CURVE SMOOTH",
"143 591 LINE",
"47 591 LINE",
"47 574 LINE",
"104 566 LINE",
"104 25 LINE",
"47 17 LINE",
"47 0 LINE",
"195 0 LINE",
"195 18 LINE",
"134 27 LINE",
"134 46 LINE",
"131 542 LINE",
"137 542 LINE",
"137 542 OFFCURVE",
"169 481 OFFCURVE",
"185 448 CURVE SMOOTH",
"408 -16 LINE"
);
},
{
closed = 1;
nodes = (
"382 -129 OFFCURVE",
"435 -67 OFFCURVE",
"435 -5 CURVE",
"408 3 LINE",
"409 -67 OFFCURVE",
"358 -101 OFFCURVE",
"353 -101 CURVE SMOOTH",
"343 -101 OFFCURVE",
"299 -101 OFFCURVE",
"285 -101 CURVE",
"285 -120 LINE",
"303 -123 OFFCURVE",
"340 -129 OFFCURVE",
"351 -129 CURVE SMOOTH"
);
}
);
width = 532;
},
{
background = {
paths = (
{
closed = 1;
nodes = (
"423 540 LINE",
"357 557 LINE",
"357 603 LINE",
"570 603 LINE",
"570 565 LINE",
"508 545 LINE",
"508 7 LINE",
"471 1 OFFCURVE",
"390 -7 OFFCURVE",
"388 -7 CURVE SMOOTH",
"384 -7 OFFCURVE",
"372 1 OFFCURVE",
"372 1 CURVE",
"257 295 LINE SMOOTH",
"236 347 OFFCURVE",
"186 486 OFFCURVE",
"186 486 CURVE",
"179 486 LINE",
"179 439 OFFCURVE",
"189 133 OFFCURVE",
"189 99 CURVE SMOOTH",
"189 63 LINE",
"255 46 LINE",
"255 0 LINE",
"42 0 LINE",
"42 38 LINE",
"104 58 LINE",
"104 545 LINE",
"42 565 LINE",
"42 603 LINE",
"226 603 LINE",
"363 268 LINE SMOOTH",
"377 233 OFFCURVE",
"425 92 OFFCURVE",
"425 92 CURVE",
"433 92 LINE",
"433 167 OFFCURVE",
"423 467 OFFCURVE",
"423 505 CURVE SMOOTH"
);
},
{
closed = 1;
nodes = (
"508 8 LINE",
"508 -54 OFFCURVE",
"404 -153 OFFCURVE",
"373 -153 CURVE SMOOTH",
"357 -153 OFFCURVE",
"309 -138 OFFCURVE",
"273 -129 CURVE",
"273 -82 LINE",
"301 -82 OFFCURVE",
"376 -82 OFFCURVE",
"391 -79 CURVE SMOOTH",
"421 -73 OFFCURVE",
"423 5 OFFCURVE",
"423 40 CURVE"
);
}
);
};
layerId = "555729A4-F539-4650-9C4F-3880CB033E7B";
paths = (
{
closed = 1;
nodes = (
"508 7 LINE",
"508 545 LINE",
"570 565 LINE",
"570 603 LINE",
"357 603 LINE",
"357 560 LINE",
"423 540 LINE",
"423 505 LINE",
"431 172 LINE",
"423 172 LINE",
"423 172 OFFCURVE",
"397 233 OFFCURVE",
"381 268 CURVE SMOOTH",
"226 603 LINE",
"42 603 LINE",
"42 565 LINE",
"104 545 LINE",
"104 58 LINE",
"42 38 LINE",
"42 0 LINE",
"255 0 LINE",
"255 43 LINE",
"189 63 LINE",
"189 99 LINE",
"179 486 LINE",
"186 486 LINE",
"186 486 OFFCURVE",
"253 346 OFFCURVE",
"277 295 CURVE SMOOTH",
"421 -6 LINE"
);
},
{
closed = 1;
nodes = (
"404 -153 OFFCURVE",
"508 -54 OFFCURVE",
"508 8 CURVE",
"423 40 LINE",
"423 5 OFFCURVE",
"421 -73 OFFCURVE",
"391 -79 CURVE SMOOTH",
"376 -82 OFFCURVE",
"301 -82 OFFCURVE",
"273 -82 CURVE",
"273 -129 LINE",
"309 -138 OFFCURVE",
"357 -153 OFFCURVE",
"373 -153 CURVE SMOOTH"
);
}
);
width = 597;
},
{
layerId = "CB0A0A08-290D-4820-BDFF-3CAB47D8DECF";
paths = (
{
closed = 1;
nodes = (
"599 28 LINE",
"599 515 LINE",
"659 540 LINE",
"659 612 LINE",
"392 612 LINE",
"392 532 LINE",
"461 507 LINE",
"461 467 LINE",
"468 308 LINE",
"458 308 LINE",
"442 348 OFFCURVE",
"423 387 OFFCURVE",
"401 424 CURVE SMOOTH",
"287 612 LINE",
"20 612 LINE",
"20 540 LINE",
"80 515 LINE",
"80 97 LINE",
"20 72 LINE",
"20 0 LINE",
"288 0 LINE",
"288 80 LINE",
"218 105 LINE",
"218 140 LINE",
"209 355 LINE",
"219 355 LINE",
"219 355 OFFCURVE",
"259 274 OFFCURVE",
"319 190 CURVE SMOOTH",
"462 -12 LINE"
);
},
{
closed = 1;
nodes = (
"507 -183 OFFCURVE",
"599 -54 OFFCURVE",
"599 28 CURVE",
"465 40 LINE",
"466 8 OFFCURVE",
"464 -65 OFFCURVE",
"433 -69 CURVE SMOOTH",
"418 -71 OFFCURVE",
"380 -72 OFFCURVE",
"320 -72 CURVE",
"322 -159 LINE",
"380 -171 OFFCURVE",
"440 -183 OFFCURVE",
"468 -183 CURVE SMOOTH"
);
}
);
width = 669;
}
);
leftKerningGroup = H;
rightKerningGroup = N;
unicode = 014A;
},
{
glyphname = O;
lastChange = "2018-03-30 19:13:27 +0000";
layers = (
{
anchors = (
{
name = bottom;
position = "{275, 0}";
},
{
name = center;
position = "{268, 287}";
},
{
name = ogonek;
position = "{311, 0}";
},
{
name = top;
position = "{270, 603}";
},
{
name = topright;
position = "{281, 603}";
}
);
background = {
paths = (
{
closed = 1;
nodes = (
"339 -9 OFFCURVE",
"446 62 OFFCURVE",
"480 108 CURVE",
"492 153 OFFCURVE",
"505 226 OFFCURVE",
"505 318 CURVE SMOOTH",
"505 524 OFFCURVE",
"415 611 OFFCURVE",
"239 611 CURVE SMOOTH",
"208 611 OFFCURVE",
"102 540 OFFCURVE",
"68 494 CURVE",
"56 449 OFFCURVE",
"43 375 OFFCURVE",
"43 283 CURVE SMOOTH",
"43 79 OFFCURVE",
"133 -9 OFFCURVE",
"309 -9 CURVE SMOOTH"
);
},
{
closed = 1;
nodes = (
"180 51 OFFCURVE",
"142 111 OFFCURVE",
"142 303 CURVE SMOOTH",
"142 436 OFFCURVE",
"163 544 OFFCURVE",
"189 547 CURVE SMOOTH",
"214 550 OFFCURVE",
"249 552 OFFCURVE",
"259 552 CURVE",
"361 552 OFFCURVE",
"406 494 OFFCURVE",
"406 300 CURVE SMOOTH",
"406 198 OFFCURVE",
"397 138 OFFCURVE",
"387 94 CURVE",
"382 86 OFFCURVE",
"317 51 OFFCURVE",
"301 51 CURVE SMOOTH"
);
}
);
};
layerId = "555729A4-F539-4650-9C4F-3880CB033E7B";
paths = (
{
closed = 1;
nodes = (
"339 -9 OFFCURVE",
"446 62 OFFCURVE",
"480 108 CURVE",
"492 153 OFFCURVE",
"505 226 OFFCURVE",
"505 318 CURVE SMOOTH",
"505 524 OFFCURVE",
"415 611 OFFCURVE",
"239 611 CURVE SMOOTH",
"208 611 OFFCURVE",
"105 544 OFFCURVE",
"73 494 CURVE",
"55 449 OFFCURVE",
"43 375 OFFCURVE",
"43 283 CURVE SMOOTH",
"43 79 OFFCURVE",
"133 -9 OFFCURVE",
"309 -9 CURVE SMOOTH"
);
},
{
closed = 1;
nodes = (
"180 51 OFFCURVE",
"142 111 OFFCURVE",
"142 303 CURVE SMOOTH",
"142 436 OFFCURVE",
"159 520 OFFCURVE",
"192 537 CURVE SMOOTH",
"211 547 OFFCURVE",
"244 549 OFFCURVE",
"265 549 CURVE SMOOTH",
"375 549 OFFCURVE",
"406 457 OFFCURVE",
"406 300 CURVE SMOOTH",
"406 198 OFFCURVE",
"397 138 OFFCURVE",
"387 94 CURVE",
"382 86 OFFCURVE",
"317 51 OFFCURVE",
"301 51 CURVE SMOOTH"
);
}
);
width = 548;
},
{
anchors = (
{
name = bottom;
position = "{310, 0}";
},
{
name = center;
position = "{296, 296}";
},
{
name = ogonek;
position = "{315, 0}";
},
{
name = top;
position = "{309, 612}";
},
{
name = topright;
position = "{341, 612}";
}
);
background = {
paths = (
{
closed = 1;
nodes = (
"362 -13 OFFCURVE",
"514 66 OFFCURVE",
"562 117 CURVE",
"578 162 OFFCURVE",
"595 233 OFFCURVE",
"595 324 CURVE SMOOTH",
"595 536 OFFCURVE",
"493 625 OFFCURVE",
"292 625 CURVE SMOOTH",
"246 625 OFFCURVE",
"97 540 OFFCURVE",
"48 485 CURVE",
"32 442 OFFCURVE",
"15 374 OFFCURVE",
"15 287 CURVE SMOOTH",
"15 77 OFFCURVE",
"117 -13 OFFCURVE",
"318 -13 CURVE SMOOTH"
);
},
{
closed = 1;
nodes = (
"237 81 OFFCURVE",
"214 135 OFFCURVE",
"214 308 CURVE SMOOTH",
"214 428 OFFCURVE",
"227 525 OFFCURVE",
"242 527 CURVE SMOOTH",
"264 530 OFFCURVE",
"298 532 OFFCURVE",
"311 532 CURVE SMOOTH",
"369 532 OFFCURVE",
"395 480 OFFCURVE",
"395 305 CURVE SMOOTH",
"395 203 OFFCURVE",
"390 143 OFFCURVE",
"384 100 CURVE",
"379 97 OFFCURVE",
"325 81 OFFCURVE",
"311 81 CURVE SMOOTH"
);
}
);
};
layerId = "CB0A0A08-290D-4820-BDFF-3CAB47D8DECF";
paths = (
{
closed = 1;
nodes = (
"362 -13 OFFCURVE",
"514 66 OFFCURVE",
"562 117 CURVE",
"578 162 OFFCURVE",
"595 233 OFFCURVE",
"595 324 CURVE SMOOTH",
"595 536 OFFCURVE",
"493 625 OFFCURVE",
"292 625 CURVE SMOOTH",
"246 625 OFFCURVE",
"97 540 OFFCURVE",
"48 485 CURVE",
"32 442 OFFCURVE",
"15 374 OFFCURVE",
"15 287 CURVE SMOOTH",
"15 77 OFFCURVE",
"117 -13 OFFCURVE",
"318 -13 CURVE SMOOTH"
);
},
{
closed = 1;
nodes = (
"237 81 OFFCURVE",
"214 135 OFFCURVE",
"214 308 CURVE SMOOTH",
"214 428 OFFCURVE",
"228 517 OFFCURVE",
"242 524 CURVE SMOOTH",
"256 531 OFFCURVE",
"282 532 OFFCURVE",
"298 532 CURVE SMOOTH",
"386 532 OFFCURVE",
"395 449 OFFCURVE",
"395 305 CURVE SMOOTH",
"395 203 OFFCURVE",
"390 143 OFFCURVE",
"384 100 CURVE",
"379 97 OFFCURVE",
"325 81 OFFCURVE",
"311 81 CURVE SMOOTH"
);
}
);
width = 610;
},
{
anchors = (
{
name = bottom;
position = "{266, 0}";
},
{
name = center;
position = "{255, 307}";
},
{
name = ogonek;
position = "{291, 0}";
},
{
name = top;
position = "{270, 591}";
},
{
name = topright;
position = "{311, 591}";
}
);
background = {
paths = (
{
closed = 1;
nodes = (
"314 -10 OFFCURVE",
"402 46 OFFCURVE",
"433 101 CURVE",
"457 149 OFFCURVE",
"475 225 OFFCURVE",
"475 305 CURVE SMOOTH",
"475 488 OFFCURVE",
"412 601 OFFCURVE",
"250 601 CURVE SMOOTH",
"221 601 OFFCURVE",
"136 547 OFFCURVE",
"90 475 CURVE",
"66 426 OFFCURVE",
"55 358 OFFCURVE",
"55 280 CURVE SMOOTH",
"55 130 OFFCURVE",
"103 -10 OFFCURVE",
"275 -10 CURVE SMOOTH"
);
},
{
closed = 1;
nodes = (
"178 20 OFFCURVE",
"85 60 OFFCURVE",
"85 301 CURVE SMOOTH",
"85 424 OFFCURVE",
"121 483 OFFCURVE",
"160 518 CURVE SMOOTH",
"202 556 OFFCURVE",
"236 572 OFFCURVE",
"254 572 CURVE SMOOTH",
"401 572 OFFCURVE",
"445 458 OFFCURVE",
"445 295 CURVE SMOOTH",
"445 228 OFFCURVE",
"424 132 OFFCURVE",
"408 110 CURVE",
"377 62 OFFCURVE",
"307 20 OFFCURVE",
"273 20 CURVE SMOOTH"
);
}
);
};
layerId = "4F39836F-1187-466E-8FAB-7EBF43C51BB4";
paths = (
{
closed = 1;
nodes = (
"314 -10 OFFCURVE",
"402 46 OFFCURVE",
"433 101 CURVE",
"457 149 OFFCURVE",
"475 225 OFFCURVE",
"475 305 CURVE SMOOTH",
"475 488 OFFCURVE",
"412 601 OFFCURVE",
"250 601 CURVE SMOOTH",
"221 601 OFFCURVE",
"136 549 OFFCURVE",
"90 475 CURVE",
"66 426 OFFCURVE",
"55 358 OFFCURVE",
"55 280 CURVE SMOOTH",
"55 130 OFFCURVE",
"103 -10 OFFCURVE",
"275 -10 CURVE SMOOTH"
);
},
{
closed = 1;
nodes = (
"178 20 OFFCURVE",
"85 60 OFFCURVE",
"85 301 CURVE SMOOTH",
"85 424 OFFCURVE",
"121 482 OFFCURVE",
"160 517 CURVE SMOOTH",
"202 555 OFFCURVE",
"236 572 OFFCURVE",
"254 572 CURVE SMOOTH",
"401 572 OFFCURVE",
"445 458 OFFCURVE",
"445 295 CURVE SMOOTH",
"445 228 OFFCURVE",
"424 132 OFFCURVE",
"408 110 CURVE",
"377 62 OFFCURVE",
"307 20 OFFCURVE",
"273 20 CURVE SMOOTH"
);
}
);
width = 530;
}
);
leftKerningGroup = O;
rightKerningGroup = O;
unicode = 004F;
},
{
glyphname = Oslash;
lastChange = "2018-02-26 23:11:32 +0000";
layers = (
{
anchors = (
{
name = top;
position = "{259, 636}";
}
);
background = {
paths = (
{
closed = 1;
nodes = (
"137 -92 LINE",
"144 -100 LINE",
"161 -104 LINE",
"366 676 LINE",
"363 687 LINE",
"343 693 LINE"
);
}
);
};
components = (
{
name = O;
},
{
alignment = 1;
name = slashlomgcomb.case;
transform = "{1, 0, 0, 1, 7, 20}";
}
);
layerId = "4F39836F-1187-466E-8FAB-7EBF43C51BB4";
width = 530;
},
{
anchors = (
{
name = top;
position = "{263, 648}";
}
);
background = {
paths = (
{
closed = 1;
nodes = (
"138 -96 LINE",
"149 -109 LINE",
"196 -108 LINE",
"401 680 LINE",
"391 697 LINE",
"344 697 LINE"
);
}
);
};
components = (
{
name = O;
},
{
name = slashlomgcomb.case;
}
);
layerId = "555729A4-F539-4650-9C4F-3880CB033E7B";
width = 548;
},
{
anchors = (
{
name = top;
position = "{290, 659}";
}
);
components = (
{
name = O;
},
{
name = slashlomgcomb.case;
transform = "{1, 0, 0, 1, 2, 9}";
}
);
layerId = "CB0A0A08-290D-4820-BDFF-3CAB47D8DECF";
width = 610;
}
);
leftKerningGroup = O;
rightKerningGroup = O;
unicode = 00D8;
},
{
glyphname = OE;
lastChange = "2018-02-12 15:36:47 +0000";
layers = (
{
layerId = "4F39836F-1187-466E-8FAB-7EBF43C51BB4";
paths = (
{
closed = 1;
nodes = (
"221 591 OFFCURVE",
"136 537 OFFCURVE",
"90 465 CURVE",
"66 416 OFFCURVE",
"55 363 OFFCURVE",
"55 285 CURVE SMOOTH",
"55 107 OFFCURVE",
"128 0 OFFCURVE",
"275 0 CURVE SMOOTH",
"422 0 LINE",
"407 33 LINE",
"367 27 OFFCURVE",
"348 25 OFFCURVE",
"294 25 CURVE SMOOTH",
"181 25 OFFCURVE",
"85 66 OFFCURVE",
"85 307 CURVE SMOOTH",
"85 424 OFFCURVE",
"121 473 OFFCURVE",
"160 508 CURVE SMOOTH",
"202 546 OFFCURVE",
"236 562 OFFCURVE",
"254 562 CURVE SMOOTH",
"308 562 OFFCURVE",
"351 561 OFFCURVE",
"399 555 CURVE",
"409 591 LINE",
"250 591 LINE SMOOTH"
);
},
{
closed = 1;
nodes = (
"389 591 LINE",
"389 0 LINE",
"677 0 LINE",
"674 122 LINE",
"655 122 LINE",
"645 27 LINE",
"419 27 LINE",
"419 292 LINE",
"606 292 LINE",
"606 319 LINE",
"419 319 LINE",
"419 564 LINE",
"637 564 LINE",
"644 469 LINE",
"663 469 LINE",
"669 591 LINE"
);
}
);
width = 722;
},
{
layerId = "555729A4-F539-4650-9C4F-3880CB033E7B";
paths = (
{
closed = 1;
nodes = (
"208 603 OFFCURVE",
"105 536 OFFCURVE",
"73 486 CURVE",
"55 441 OFFCURVE",
"43 375 OFFCURVE",
"43 283 CURVE SMOOTH",
"43 79 OFFCURVE",
"133 0 OFFCURVE",
"309 0 CURVE SMOOTH",
"424 0 LINE",
"403 77 LINE",
"369 70 OFFCURVE",
"319 60 OFFCURVE",
"301 60 CURVE SMOOTH",
"180 60 OFFCURVE",
"142 111 OFFCURVE",
"142 303 CURVE SMOOTH",
"142 436 OFFCURVE",
"159 515 OFFCURVE",
"192 532 CURVE SMOOTH",
"211 542 OFFCURVE",
"244 544 OFFCURVE",
"265 544 CURVE SMOOTH",
"311 544 OFFCURVE",
"369 536 OFFCURVE",
"401 524 CURVE",
"444 603 LINE",
"239 603 LINE SMOOTH"
);
},
{
closed = 1;
nodes = (
"373 603 LINE",
"373 0 LINE",
"714 0 LINE",
"710 179 LINE",
"656 179 LINE",
"640 49 LINE",
"466 65 LINE",
"466 285 LINE",
"605 290 LINE",
"605 337 LINE",
"466 342 LINE",
"466 540 LINE",
"631 554 LINE",
"642 428 LINE",
"696 428 LINE",
"709 603 LINE"
);
}
);
width = 744;
},
{
layerId = "CB0A0A08-290D-4820-BDFF-3CAB47D8DECF";
paths = (
{
closed = 1;
nodes = (
"246 612 OFFCURVE",
"97 527 OFFCURVE",
"48 472 CURVE",
"32 429 OFFCURVE",
"15 374 OFFCURVE",
"15 287 CURVE SMOOTH",
"15 77 OFFCURVE",
"117 0 OFFCURVE",
"318 0 CURVE SMOOTH",
"507 0 LINE",
"426 110 LINE",
"371 96 OFFCURVE",
"325 94 OFFCURVE",
"311 94 CURVE SMOOTH",
"237 94 OFFCURVE",
"214 135 OFFCURVE",
"214 308 CURVE SMOOTH",
"214 428 OFFCURVE",
"228 504 OFFCURVE",
"242 511 CURVE SMOOTH",
"256 518 OFFCURVE",
"282 519 OFFCURVE",
"298 519 CURVE SMOOTH",
"335 519 OFFCURVE",
"379 513 OFFCURVE",
"418 500 CURVE",
"543 612 LINE",
"292 612 LINE SMOOTH"
);
},
{
closed = 1;
nodes = (
"395 612 LINE",
"395 0 LINE",
"848 0 LINE",
"844 199 LINE",
"755 199 LINE",
"737 88 LINE",
"586 104 LINE",
"586 259 LINE",
"719 266 LINE",
"719 360 LINE",
"586 365 LINE",
"586 510 LINE",
"728 524 LINE",
"741 417 LINE",
"830 417 LINE",
"843 612 LINE"
);
}
);
width = 873;
}
);
leftKerningGroup = O;
rightKerningGroup = E;
unicode = 0152;
},
{
glyphname = P;
lastChange = "2018-02-21 16:17:44 +0000";
layers = (
{
layerId = "555729A4-F539-4650-9C4F-3880CB033E7B";
paths = (
{
closed = 1;
nodes = (
"282 0 LINE",
"282 43 LINE",
"197 63 LINE",
"197 215 LINE",
"275 215 LINE",
"374 215 OFFCURVE",
"465 270 OFFCURVE",
"465 429 CURVE SMOOTH",
"465 557 OFFCURVE",
"403 603 OFFCURVE",
"304 603 CURVE SMOOTH",
"42 603 LINE",
"42 565 LINE",
"104 545 LINE",
"104 58 LINE",
"42 38 LINE",
"42 0 LINE"
);
},
{
closed = 1;
nodes = (
"197 542 LINE",
"310 552 LINE",
"348 552 OFFCURVE",
"367 494 OFFCURVE",
"367 396 CURVE SMOOTH",
"367 277 OFFCURVE",
"339 272 OFFCURVE",
"287 272 CURVE SMOOTH",
"197 272 LINE"
);
}
);
width = 503;
},
{
layerId = "CB0A0A08-290D-4820-BDFF-3CAB47D8DECF";
paths = (
{
closed = 1;
nodes = (
"371 0 LINE",
"371 74 LINE",
"271 105 LINE",
"271 209 LINE",
"381 209 LINE SMOOTH",
"480 209 OFFCURVE",
"571 263 OFFCURVE",
"571 418 CURVE SMOOTH",
"571 560 OFFCURVE",
"509 612 OFFCURVE",
"410 612 CURVE SMOOTH",
"20 612 LINE",
"20 540 LINE",
"80 515 LINE",
"80 97 LINE",
"20 72 LINE",
"20 0 LINE"
);
},
{
closed = 1;
nodes = (
"271 510 LINE",
"338 519 LINE",
"376 519 OFFCURVE",
"395 479 OFFCURVE",
"395 405 CURVE SMOOTH",
"395 316 OFFCURVE",
"367 310 OFFCURVE",
"315 310 CURVE SMOOTH",
"271 310 LINE"
);
}
);
width = 581;
},
{
layerId = "4F39836F-1187-466E-8FAB-7EBF43C51BB4";
paths = (
{
closed = 1;
nodes = (
"209 0 LINE",
"209 18 LINE",
"134 27 LINE",
"134 236 LINE",
"270 236 LINE SMOOTH",
"374 236 OFFCURVE",
"425 325 OFFCURVE",
"425 423 CURVE SMOOTH",
"425 564 OFFCURVE",
"354 591 OFFCURVE",
"273 591 CURVE SMOOTH",
"47 591 LINE",
"47 574 LINE",
"104 566 LINE",
"104 25 LINE",
"47 17 LINE",
"47 0 LINE"
);
},
{
closed = 1;
nodes = (
"134 564 LINE",
"282 564 LINE SMOOTH",
"360 564 OFFCURVE",
"395 528 OFFCURVE",
"395 422 CURVE SMOOTH",
"395 311 OFFCURVE",
"339 263 OFFCURVE",
"280 263 CURVE SMOOTH",
"134 263 LINE"
);
}
);
width = 465;
}
);
leftKerningGroup = H;
rightKerningGroup = P;
unicode = 0050;
},
{
glyphname = Thorn;
lastChange = "2018-02-21 16:18:17 +0000";
layers = (
{
layerId = "4F39836F-1187-466E-8FAB-7EBF43C51BB4";
paths = (
{
closed = 1;
nodes = (
"118 466 LINE",
"118 439 LINE",
"247 439 LINE SMOOTH",
"324 439 OFFCURVE",
"360 414 OFFCURVE",
"360 315 CURVE SMOOTH",
"360 180 OFFCURVE",
"272 174 OFFCURVE",
"245 174 CURVE SMOOTH",
"118 174 LINE",
"118 147 LINE",
"235 147 LINE SMOOTH",
"339 147 OFFCURVE",
"390 224 OFFCURVE",
"390 316 CURVE SMOOTH",
"390 451 OFFCURVE",
"319 466 OFFCURVE",
"238 466 CURVE"
);
},
{
closed = 1;
nodes = (
"47 574 LINE",
"104 566 LINE",
"104 25 LINE",
"47 17 LINE",
"47 0 LINE",
"195 0 LINE",
"195 18 LINE",
"134 27 LINE",
"134 564 LINE",
"195 573 LINE",
"195 591 LINE",
"47 591 LINE"
);
}
);
width = 420;
},
{
layerId = "555729A4-F539-4650-9C4F-3880CB033E7B";
paths = (
{
closed = 1;
nodes = (
"177 491 LINE",
"177 430 LINE",
"298 440 LINE",
"336 440 OFFCURVE",
"355 389 OFFCURVE",
"355 301 CURVE SMOOTH",
"355 192 OFFCURVE",
"327 194 OFFCURVE",
"275 194 CURVE SMOOTH",
"177 194 LINE",
"177 137 LINE",
"263 137 LINE SMOOTH",
"362 137 OFFCURVE",
"453 185 OFFCURVE",
"453 334 CURVE SMOOTH",
"453 452 OFFCURVE",
"391 491 OFFCURVE",
"292 491 CURVE SMOOTH"
);
},
{
closed = 1;
nodes = (
"42 565 LINE",
"104 545 LINE",
"104 58 LINE",
"42 38 LINE",
"42 0 LINE",
"263 0 LINE",
"263 43 LINE",
"197 63 LINE",
"197 540 LINE",
"263 560 LINE",
"263 603 LINE",
"42 603 LINE"
);
}
);
width = 495;
},
{
layerId = "CB0A0A08-290D-4820-BDFF-3CAB47D8DECF";
paths = (
{
closed = 1;
nodes = (
"163 499 LINE",
"163 378 LINE",
"346 406 LINE",
"384 406 OFFCURVE",
"400 366 OFFCURVE",
"400 312 CURVE SMOOTH",
"400 243 OFFCURVE",
"375 239 OFFCURVE",
"323 239 CURVE SMOOTH",
"163 239 LINE",
"163 138 LINE",
"394 138 LINE SMOOTH",
"493 138 OFFCURVE",
"576 190 OFFCURVE",
"576 325 CURVE SMOOTH",
"576 447 OFFCURVE",
"522 499 OFFCURVE",
"423 499 CURVE"
);
},
{
closed = 1;
nodes = (
"20 540 LINE",
"85 515 LINE",
"85 97 LINE",
"20 72 LINE",
"20 0 LINE",
"341 0 LINE",
"341 72 LINE",
"276 97 LINE",
"276 515 LINE",
"341 540 LINE",
"341 612 LINE",
"20 612 LINE"
);
}
);
width = 581;
}
);
leftKerningGroup = H;
leftMetricsKey = H;
rightKerningGroup = Thorn;
unicode = 00DE;
},
{
glyphname = Q;
lastChange = "2018-02-12 15:36:47 +0000";
layers = (
{
layerId = "555729A4-F539-4650-9C4F-3880CB033E7B";
paths = (
{
closed = 1;
nodes = (
"208 611 OFFCURVE",
"105 544 OFFCURVE",
"73 494 CURVE",
"55 449 OFFCURVE",
"43 375 OFFCURVE",
"43 283 CURVE SMOOTH",
"43 79 OFFCURVE",
"133 -9 OFFCURVE",
"309 -9 CURVE SMOOTH",
"339 -9 OFFCURVE",
"446 62 OFFCURVE",
"480 108 CURVE",
"492 153 OFFCURVE",
"505 226 OFFCURVE",
"505 318 CURVE SMOOTH",
"505 524 OFFCURVE",
"415 611 OFFCURVE",
"239 611 CURVE SMOOTH"
);
},
{
closed = 1;
nodes = (
"483 -118 LINE",
"507 -62 LINE",
"305 10 LINE",
"245 -4 LINE",
"437 -118 LINE"
);
},
{
closed = 1;
nodes = (
"180 51 OFFCURVE",
"142 111 OFFCURVE",
"142 303 CURVE SMOOTH",
"142 436 OFFCURVE",
"159 520 OFFCURVE",
"192 537 CURVE SMOOTH",
"211 547 OFFCURVE",
"244 549 OFFCURVE",
"265 549 CURVE SMOOTH",
"375 549 OFFCURVE",
"406 457 OFFCURVE",
"406 300 CURVE SMOOTH",
"406 198 OFFCURVE",
"397 138 OFFCURVE",
"387 94 CURVE",
"382 86 OFFCURVE",
"317 51 OFFCURVE",
"301 51 CURVE SMOOTH"
);
}
);
width = 550;
},
{
layerId = "CB0A0A08-290D-4820-BDFF-3CAB47D8DECF";
paths = (
{
closed = 1;
nodes = (
"246 625 OFFCURVE",
"97 540 OFFCURVE",
"48 485 CURVE",
"32 442 OFFCURVE",
"15 374 OFFCURVE",
"15 287 CURVE SMOOTH",
"15 77 OFFCURVE",
"117 -13 OFFCURVE",
"318 -13 CURVE SMOOTH",
"362 -13 OFFCURVE",
"514 66 OFFCURVE",
"562 117 CURVE",
"578 162 OFFCURVE",
"595 233 OFFCURVE",
"595 324 CURVE SMOOTH",
"595 536 OFFCURVE",
"493 625 OFFCURVE",
"292 625 CURVE SMOOTH"
);
},
{
closed = 1;
nodes = (
"543 -167 LINE",
"593 -40 LINE",
"343 32 LINE",
"220 -4 LINE",
"472 -167 LINE"
);
},
{
closed = 1;
nodes = (
"237 81 OFFCURVE",
"214 135 OFFCURVE",
"214 308 CURVE SMOOTH",
"214 428 OFFCURVE",
"228 517 OFFCURVE",
"242 524 CURVE SMOOTH",
"256 531 OFFCURVE",
"282 532 OFFCURVE",
"298 532 CURVE SMOOTH",
"386 532 OFFCURVE",
"395 449 OFFCURVE",
"395 305 CURVE SMOOTH",
"395 203 OFFCURVE",
"390 143 OFFCURVE",
"384 100 CURVE",
"379 97 OFFCURVE",
"325 81 OFFCURVE",
"311 81 CURVE SMOOTH"
);
}
);
width = 610;
},
{
background = {
paths = (
{
closed = 1;
nodes = (
"273 -10 LINE",
"448 -101 LINE",
"463 -101 LINE",
"473 -78 LINE",
"289 9 LINE"
);
},
{
closed = 1;
nodes = (
"221 601 OFFCURVE",
"136 547 OFFCURVE",
"90 475 CURVE",
"66 426 OFFCURVE",
"55 358 OFFCURVE",
"55 280 CURVE SMOOTH",
"55 130 OFFCURVE",
"103 -10 OFFCURVE",
"275 -10 CURVE SMOOTH",
"314 -10 OFFCURVE",
"402 46 OFFCURVE",
"433 101 CURVE",
"457 149 OFFCURVE",
"475 225 OFFCURVE",
"475 305 CURVE SMOOTH",
"475 488 OFFCURVE",
"412 601 OFFCURVE",
"250 601 CURVE SMOOTH"
);
},
{
closed = 1;
nodes = (
"401 572 OFFCURVE",
"445 458 OFFCURVE",
"445 295 CURVE SMOOTH",
"445 228 OFFCURVE",
"424 132 OFFCURVE",
"408 110 CURVE",
"377 62 OFFCURVE",
"307 20 OFFCURVE",
"273 20 CURVE SMOOTH",
"178 20 OFFCURVE",
"85 60 OFFCURVE",
"85 301 CURVE SMOOTH",
"85 424 OFFCURVE",
"121 483 OFFCURVE",
"160 518 CURVE SMOOTH",
"202 556 OFFCURVE",
"236 572 OFFCURVE",
"254 572 CURVE SMOOTH"
);
}
);
};
layerId = "4F39836F-1187-466E-8FAB-7EBF43C51BB4";
paths = (
{
closed = 1;
nodes = (
"221 601 OFFCURVE",
"136 549 OFFCURVE",
"90 475 CURVE",
"66 426 OFFCURVE",
"55 358 OFFCURVE",
"55 280 CURVE SMOOTH",
"55 130 OFFCURVE",
"103 -10 OFFCURVE",
"275 -10 CURVE SMOOTH",
"314 -10 OFFCURVE",
"402 46 OFFCURVE",
"433 101 CURVE",
"457 149 OFFCURVE",
"475 225 OFFCURVE",
"475 305 CURVE SMOOTH",
"475 488 OFFCURVE",
"412 601 OFFCURVE",
"250 601 CURVE SMOOTH"
);
},
{
closed = 1;
nodes = (
"473 -101 LINE",
"483 -78 LINE",
"299 9 LINE",
"283 -10 LINE",
"458 -101 LINE"
);
},
{
closed = 1;
nodes = (
"178 20 OFFCURVE",
"85 60 OFFCURVE",
"85 301 CURVE SMOOTH",
"85 424 OFFCURVE",
"121 482 OFFCURVE",
"160 517 CURVE SMOOTH",
"202 555 OFFCURVE",
"236 572 OFFCURVE",
"254 572 CURVE SMOOTH",
"401 572 OFFCURVE",
"445 458 OFFCURVE",
"445 295 CURVE SMOOTH",
"445 228 OFFCURVE",
"424 132 OFFCURVE",
"408 110 CURVE",
"377 62 OFFCURVE",
"307 20 OFFCURVE",
"273 20 CURVE SMOOTH"
);
}
);
width = 530;
}
);
leftKerningGroup = O;
rightKerningGroup = O;
unicode = 0051;
},
{
glyphname = R;
lastChange = "2018-02-21 16:18:21 +0000";
layers = (
{
anchors = (
{
name = bottom;
position = "{250, 0}";
},
{
name = top;
position = "{260, 603}";
}
);
layerId = "555729A4-F539-4650-9C4F-3880CB033E7B";
paths = (
{
closed = 1;
nodes = (
"264 0 LINE",
"264 46 LINE",
"197 63 LINE",
"197 260 LINE",
"252 260 LINE",
"293 172 OFFCURVE",
"363 52 OFFCURVE",
"387 0 CURVE",
"519 0 LINE",
"519 42 LINE",
"465 57 LINE",
"437 100 OFFCURVE",
"381 191 OFFCURVE",
"338 263 CURVE",
"338 269 LINE",
"403 284 OFFCURVE",
"455 337 OFFCURVE",
"455 439 CURVE SMOOTH",
"455 564 OFFCURVE",
"400 603 OFFCURVE",
"294 603 CURVE SMOOTH",
"42 603 LINE",
"42 565 LINE",
"104 545 LINE",
"104 58 LINE",
"42 38 LINE",
"42 0 LINE"
);
},
{
closed = 1;
nodes = (
"197 542 LINE",
"300 552 LINE SMOOTH",
"338 552 OFFCURVE",
"357 513 OFFCURVE",
"357 419 CURVE SMOOTH",
"357 333 OFFCURVE",
"330 317 OFFCURVE",
"278 317 CURVE SMOOTH",
"197 317 LINE"
);
}
);
width = 527;
},
{
anchors = (
{
name = bottom;
position = "{310, 0}";
},
{
name = top;
position = "{306, 612}";
}
);
layerId = "CB0A0A08-290D-4820-BDFF-3CAB47D8DECF";
paths = (
{
closed = 1;
nodes = (
"331 0 LINE",
"331 74 LINE",
"271 105 LINE",
"271 236 LINE",
"314 236 LINE",
"343 166 OFFCURVE",
"391 32 OFFCURVE",
"404 0 CURVE",
"626 0 LINE",
"626 71 LINE",
"572 97 LINE",
"548 136 OFFCURVE",
"501 220 OFFCURVE",
"476 259 CURVE",
"476 265 LINE",
"527 298 OFFCURVE",
"564 354 OFFCURVE",
"564 439 CURVE SMOOTH",
"564 566 OFFCURVE",
"502 612 OFFCURVE",
"403 612 CURVE SMOOTH",
"20 612 LINE",
"20 540 LINE",
"80 515 LINE",
"80 97 LINE",
"20 72 LINE",
"20 0 LINE"
);
},
{
closed = 1;
nodes = (
"271 510 LINE",
"326 519 LINE",
"357 519 OFFCURVE",
"373 483 OFFCURVE",
"373 416 CURVE SMOOTH",
"373 335 OFFCURVE",
"348 332 OFFCURVE",
"303 332 CURVE SMOOTH",
"271 332 LINE"
);
}
);
width = 626;
},
{
anchors = (
{
name = bottom;
position = "{250, 0}";
},
{
name = top;
position = "{243, 591}";
}
);
layerId = "4F39836F-1187-466E-8FAB-7EBF43C51BB4";
paths = (
{
closed = 1;
nodes = (
"195 0 LINE",
"195 18 LINE",
"134 27 LINE",
"134 260 LINE",
"256 260 LINE",
"307 167 OFFCURVE",
"369 52 OFFCURVE",
"397 0 CURVE",
"473 0 LINE",
"473 20 LINE",
"418 25 LINE",
"396 62 OFFCURVE",
"326 189 OFFCURVE",
"288 262 CURVE",
"288 265 LINE",
"373 279 OFFCURVE",
"415 351 OFFCURVE",
"415 429 CURVE SMOOTH",
"415 565 OFFCURVE",
"344 591 OFFCURVE",
"263 591 CURVE SMOOTH",
"47 591 LINE",
"47 574 LINE",
"104 566 LINE",
"104 25 LINE",
"47 17 LINE",
"47 0 LINE"
);
},
{
closed = 1;
nodes = (
"134 564 LINE",
"272 564 LINE SMOOTH",
"349 564 OFFCURVE",
"385 529 OFFCURVE",
"385 428 CURVE SMOOTH",
"385 304 OFFCURVE",
"297 287 OFFCURVE",
"270 287 CURVE SMOOTH",
"134 287 LINE"
);
}
);
width = 503;
}
);
leftKerningGroup = H;
rightKerningGroup = R;
unicode = 0052;
},
{
glyphname = S;
lastChange = "2018-02-12 15:36:47 +0000";
layers = (
{
anchors = (
{
name = bottom;
position = "{216, 0}";
},
{
name = top;
position = "{233, 603}";
}
);
background = {
paths = (
{
closed = 1;
nodes = (
"278 -9 OFFCURVE",
"377 62 OFFCURVE",
"403 114 CURVE",
"406 126 OFFCURVE",
"409 146 OFFCURVE",
"409 163 CURVE SMOOTH",
"409 259 OFFCURVE",
"326 302 OFFCURVE",
"252 344 CURVE SMOOTH",
"193 377 OFFCURVE",
"141 410 OFFCURVE",
"141 469 CURVE SMOOTH",
"141 522 OFFCURVE",
"156 547 OFFCURVE",
"172 547 CURVE SMOOTH",
"203 547 OFFCURVE",
"275 531 OFFCURVE",
"313 524 CURVE",
"328 422 LINE",
"384 422 LINE",
"391 595 LINE",
"331 601 OFFCURVE",
"242 611 OFFCURVE",
"222 611 CURVE SMOOTH",
"187 611 OFFCURVE",
"81 533 OFFCURVE",
"57 488 CURVE",
"53 469 OFFCURVE",
"52 452 OFFCURVE",
"52 436 CURVE SMOOTH",
"52 345 OFFCURVE",
"128 301 OFFCURVE",
"198 261 CURVE SMOOTH",
"258 227 OFFCURVE",
"314 195 OFFCURVE",
"314 137 CURVE SMOOTH",
"314 101 OFFCURVE",
"283 55 OFFCURVE",
"272 55 CURVE SMOOTH",
"231 55 OFFCURVE",
"175 65 OFFCURVE",
"123 72 CURVE",
"107 184 LINE",
"51 184 LINE",
"44 1 LINE",
"104 -4 OFFCURVE",
"189 -9 OFFCURVE",
"239 -9 CURVE SMOOTH"
);
}
);
};
layerId = "555729A4-F539-4650-9C4F-3880CB033E7B";
paths = (
{
closed = 1;
nodes = (
"278 -9 OFFCURVE",
"377 62 OFFCURVE",
"403 114 CURVE",
"406 126 OFFCURVE",
"409 146 OFFCURVE",
"409 163 CURVE SMOOTH",
"409 259 OFFCURVE",
"326 302 OFFCURVE",
"252 344 CURVE SMOOTH",
"193 377 OFFCURVE",
"141 410 OFFCURVE",
"141 469 CURVE SMOOTH",
"141 522 OFFCURVE",
"156 541 OFFCURVE",
"172 541 CURVE SMOOTH",
"203 541 OFFCURVE",
"275 531 OFFCURVE",
"313 524 CURVE",
"328 422 LINE",
"384 422 LINE",
"391 595 LINE",
"331 601 OFFCURVE",
"242 611 OFFCURVE",
"222 611 CURVE SMOOTH",
"187 611 OFFCURVE",
"81 533 OFFCURVE",
"57 488 CURVE",
"53 469 OFFCURVE",
"52 452 OFFCURVE",
"52 436 CURVE SMOOTH",
"52 345 OFFCURVE",
"128 301 OFFCURVE",
"198 261 CURVE SMOOTH",
"258 227 OFFCURVE",
"314 195 OFFCURVE",
"314 137 CURVE SMOOTH",
"314 101 OFFCURVE",
"283 57 OFFCURVE",
"272 57 CURVE SMOOTH",
"231 57 OFFCURVE",
"175 65 OFFCURVE",
"123 72 CURVE",
"107 184 LINE",
"51 184 LINE",
"44 1 LINE",
"104 -4 OFFCURVE",
"189 -9 OFFCURVE",
"239 -9 CURVE SMOOTH"
);
}
);
width = 441;
},
{
anchors = (
{
name = bottom;
position = "{231, 0}";
},
{
name = top;
position = "{240, 612}";
}
);
background = {
paths = (
{
closed = 1;
nodes = (
"297 -13 OFFCURVE",
"419 68 OFFCURVE",
"452 126 CURVE",
"454 139 OFFCURVE",
"457 161 OFFCURVE",
"457 179 CURVE SMOOTH",
"457 284 OFFCURVE",
"341 335 OFFCURVE",
"268 380 CURVE SMOOTH",
"210 416 OFFCURVE",
"181 436 OFFCURVE",
"181 487 CURVE SMOOTH",
"181 505 OFFCURVE",
"188 527 OFFCURVE",
"195 527 CURVE SMOOTH",
"217 527 OFFCURVE",
"282 514 OFFCURVE",
"315 508 CURVE",
"328 417 LINE",
"417 417 LINE",
"425 601 LINE",
"347 613 OFFCURVE",
"237 625 OFFCURVE",
"212 625 CURVE SMOOTH",
"169 625 OFFCURVE",
"37 535 OFFCURVE",
"9 484 CURVE",
"6 466 OFFCURVE",
"5 451 OFFCURVE",
"5 436 CURVE SMOOTH",
"5 367 OFFCURVE",
"39 310 OFFCURVE",
"138 251 CURVE SMOOTH",
"225 199 OFFCURVE",
"274 181 OFFCURVE",
"275 125 CURVE SMOOTH",
"275 108 OFFCURVE",
"262 86 OFFCURVE",
"260 86 CURVE SMOOTH",
"245 86 OFFCURVE",
"185 94 OFFCURVE",
"134 103 CURVE",
"113 203 LINE",
"23 203 LINE",
"16 5 LINE",
"88 -1 OFFCURVE",
"188 -13 OFFCURVE",
"250 -13 CURVE SMOOTH"
);
}
);
};
layerId = "CB0A0A08-290D-4820-BDFF-3CAB47D8DECF";
paths = (
{
closed = 1;
nodes = (
"297 -13 OFFCURVE",
"419 68 OFFCURVE",
"452 126 CURVE",
"454 139 OFFCURVE",
"457 161 OFFCURVE",
"457 179 CURVE SMOOTH",
"457 286 OFFCURVE",
"356 330 OFFCURVE",
"279 378 CURVE SMOOTH",
"232 407 OFFCURVE",
"195 439 OFFCURVE",
"195 487 CURVE SMOOTH",
"195 505 OFFCURVE",
"202 527 OFFCURVE",
"209 527 CURVE SMOOTH",
"231 527 OFFCURVE",
"296 514 OFFCURVE",
"329 508 CURVE",
"342 417 LINE",
"431 417 LINE",
"439 601 LINE",
"361 613 OFFCURVE",
"251 625 OFFCURVE",
"226 625 CURVE SMOOTH",
"183 625 OFFCURVE",
"51 535 OFFCURVE",
"23 484 CURVE",
"20 466 OFFCURVE",
"19 451 OFFCURVE",
"19 436 CURVE SMOOTH",
"19 326 OFFCURVE",
"104 276 OFFCURVE",
"176 233 CURVE SMOOTH",
"228 201 OFFCURVE",
"274 172 OFFCURVE",
"275 125 CURVE SMOOTH",
"275 108 OFFCURVE",
"262 86 OFFCURVE",
"260 86 CURVE SMOOTH",
"245 86 OFFCURVE",
"185 94 OFFCURVE",
"134 103 CURVE",
"113 203 LINE",
"23 203 LINE",
"16 5 LINE",
"88 -1 OFFCURVE",
"188 -13 OFFCURVE",
"250 -13 CURVE SMOOTH"
);
}
);
width = 463;
},
{
anchors = (
{
name = bottom;
position = "{210, 0}";
},
{
name = top;
position = "{217, 591}";
}
);
background = {
paths = (
{
closed = 1;
nodes = (
"285 -10 OFFCURVE",
"341 52 OFFCURVE",
"359 106 CURVE",
"363 121 OFFCURVE",
"363 138 OFFCURVE",
"363 151 CURVE SMOOTH",
"363 238 OFFCURVE",
"277 273 OFFCURVE",
"203 317 CURVE SMOOTH",
"113 370 OFFCURVE",
"87 391 OFFCURVE",
"87 467 CURVE SMOOTH",
"87 521 OFFCURVE",
"163 575 OFFCURVE",
"183 575 CURVE SMOOTH",
"201 575 OFFCURVE",
"276 566 OFFCURVE",
"306 559 CURVE",
"313 461 LINE",
"332 461 LINE",
"338 583 LINE",
"306 589 OFFCURVE",
"214 601 OFFCURVE",
"187 601 CURVE SMOOTH",
"153 601 OFFCURVE",
"87 549 OFFCURVE",
"63 500 CURVE",
"59 484 OFFCURVE",
"57 470 OFFCURVE",
"57 454 CURVE SMOOTH",
"57 370 OFFCURVE",
"122 332 OFFCURVE",
"196 288 CURVE SMOOTH",
"280 238 OFFCURVE",
"333 221 OFFCURVE",
"333 133 CURVE SMOOTH",
"333 79 OFFCURVE",
"272 17 OFFCURVE",
"242 17 CURVE SMOOTH",
"211 17 OFFCURVE",
"125 24 OFFCURVE",
"87 30 CURVE",
"76 128 LINE",
"57 128 LINE",
"56 6 LINE",
"101 -1 OFFCURVE",
"211 -10 OFFCURVE",
"238 -10 CURVE SMOOTH"
);
}
);
};
layerId = "4F39836F-1187-466E-8FAB-7EBF43C51BB4";
paths = (
{
closed = 1;
nodes = (
"285 -10 OFFCURVE",
"341 50 OFFCURVE",
"359 106 CURVE",
"363 121 OFFCURVE",
"363 138 OFFCURVE",
"363 151 CURVE SMOOTH",
"363 238 OFFCURVE",
"277 273 OFFCURVE",
"203 317 CURVE SMOOTH",
"113 370 OFFCURVE",
"87 394 OFFCURVE",
"87 467 CURVE SMOOTH",
"87 521 OFFCURVE",
"165 574 OFFCURVE",
"183 574 CURVE SMOOTH",
"201 574 OFFCURVE",
"276 566 OFFCURVE",
"306 559 CURVE",
"313 461 LINE",
"332 461 LINE",
"338 583 LINE",
"306 589 OFFCURVE",
"214 601 OFFCURVE",
"187 601 CURVE SMOOTH",
"153 601 OFFCURVE",
"87 551 OFFCURVE",
"63 500 CURVE",
"59 484 OFFCURVE",
"57 470 OFFCURVE",
"57 454 CURVE SMOOTH",
"57 370 OFFCURVE",
"122 332 OFFCURVE",
"196 288 CURVE SMOOTH",
"280 238 OFFCURVE",
"333 221 OFFCURVE",
"333 133 CURVE SMOOTH",
"333 79 OFFCURVE",
"272 18 OFFCURVE",
"242 18 CURVE SMOOTH",
"211 18 OFFCURVE",
"125 24 OFFCURVE",
"87 30 CURVE",
"76 128 LINE",
"57 128 LINE",
"56 6 LINE",
"101 -1 OFFCURVE",
"211 -10 OFFCURVE",
"238 -10 CURVE SMOOTH"
);
}
);
width = 405;
}
);
leftKerningGroup = S;
rightKerningGroup = S;
unicode = 0053;
},
{
glyphname = Germandbls;
lastChange = "2018-02-21 16:07:12 +0000";
layers = (
{
layerId = "4F39836F-1187-466E-8FAB-7EBF43C51BB4";
paths = (
{
closed = 1;
nodes = (
"47 574 LINE",
"104 566 LINE",
"104 25 LINE",
"47 17 LINE",
"47 0 LINE",
"134 0 LINE",
"134 564 LINE",
"439 571 LINE",
"456 575 LINE",
"442 591 LINE",
"47 591 LINE"
);
},
{
closed = 1;
nodes = (
"264 298 LINE",
"366 298 LINE SMOOTH",
"424 298 OFFCURVE",
"461 265 OFFCURVE",
"461 209 CURVE SMOOTH",
"461 142 OFFCURVE",
"418 56 OFFCURVE",
"366 24 CURVE SMOOTH",
"345 11 OFFCURVE",
"253 22 OFFCURVE",
"204 26 CURVE",
"202 8 LINE",
"235 3 OFFCURVE",
"300 -9 OFFCURVE",
"326 -9 CURVE SMOOTH",
"416 -9 OFFCURVE",
"490 118 OFFCURVE",
"490 208 CURVE SMOOTH",
"490 310 OFFCURVE",
"409 331 OFFCURVE",
"265 318 CURVE"
);
},
{
closed = 1;
nodes = (
"202 8 LINE",
"236 8 LINE",
"224 144 LINE",
"206 144 LINE"
);
},
{
closed = 1;
nodes = (
"249 316 LINE",
"264 298 LINE",
"287 312 LINE",
"280 326 LINE",
"456 575 LINE",
"422 576 LINE"
);
}
);
width = 493;
},
{
background = {
paths = (
{
closed = 1;
nodes = (
"291 611 OFFCURVE",
"184 566 OFFCURVE",
"127 507 CURVE",
"111 473 OFFCURVE",
"104 430 OFFCURVE",
"104 343 CURVE SMOOTH",
"104 0 LINE",
"195 0 LINE",
"195 374 LINE SMOOTH",
"195 497 OFFCURVE",
"223 528 OFFCURVE",
"246 541 CURVE",
"256 544 OFFCURVE",
"271 545 OFFCURVE",
"289 545 CURVE SMOOTH",
"339 545 OFFCURVE",
"411 534 OFFCURVE",
"461 507 CURVE",
"463 517 OFFCURVE",
"465 525 OFFCURVE",
"465 533 CURVE SMOOTH",
"465 606 OFFCURVE",
"369 611 OFFCURVE",
"309 611 CURVE"
);
},
{
closed = 1;
nodes = (
"42 0 LINE",
"147 0 LINE",
"144 72 LINE",
"42 38 LINE"
);
},
{
closed = 1;
nodes = (
"231 1 LINE",
"313 1 LINE",
"297 184 LINE",
"245 184 LINE"
);
},
{
closed = 1;
nodes = (
"270 449 OFFCURVE",
"268 433 OFFCURVE",
"268 417 CURVE SMOOTH",
"268 261 OFFCURVE",
"470 238 OFFCURVE",
"470 122 CURVE SMOOTH",
"470 95 OFFCURVE",
"455 55 OFFCURVE",
"434 55 CURVE SMOOTH",
"396 55 OFFCURVE",
"344 64 OFFCURVE",
"304 72 CURVE",
"231 1 LINE",
"289 -4 OFFCURVE",
"351 -9 OFFCURVE",
"399 -9 CURVE SMOOTH",
"437 -9 OFFCURVE",
"529 42 OFFCURVE",
"554 94 CURVE",
"557 104 OFFCURVE",
"559 120 OFFCURVE",
"559 136 CURVE SMOOTH",
"559 294 OFFCURVE",
"350 326 OFFCURVE",
"350 443 CURVE SMOOTH",
"350 472 OFFCURVE",
"362 491 OFFCURVE",
"374 499 CURVE",
"393 506 OFFCURVE",
"425 509 OFFCURVE",
"461 507 CURVE",
"449 572 LINE",
"413 572 OFFCURVE",
"299 515 OFFCURVE",
"275 462 CURVE"
);
}
);
};
layerId = "555729A4-F539-4650-9C4F-3880CB033E7B";
paths = (
{
closed = 1;
nodes = (
"42 565 LINE",
"104 545 LINE",
"104 58 LINE",
"42 38 LINE",
"42 0 LINE",
"197 0 LINE",
"197 540 LINE",
"440 554 LINE",
"528 568 LINE",
"507 603 LINE",
"42 603 LINE"
);
},
{
closed = 1;
nodes = (
"309 289 LINE",
"443 289 LINE SMOOTH",
"473 289 OFFCURVE",
"485 245 OFFCURVE",
"485 188 CURVE SMOOTH",
"485 110 OFFCURVE",
"451 63 OFFCURVE",
"434 60 CURVE SMOOTH",
"413 56 OFFCURVE",
"302 53 OFFCURVE",
"254 53 CURVE",
"243 1 LINE",
"282 -2 OFFCURVE",
"380 -9 OFFCURVE",
"401 -9 CURVE SMOOTH",
"498 -9 OFFCURVE",
"580 99 OFFCURVE",
"580 210 CURVE SMOOTH",
"580 332 OFFCURVE",
"456 351 OFFCURVE",
"311 336 CURVE"
);
},
{
closed = 1;
nodes = (
"243 1 LINE",
"325 1 LINE",
"309 184 LINE",
"257 184 LINE"
);
},
{
closed = 1;
nodes = (
"273 341 LINE",
"309 288 LINE",
"367 333 LINE",
"360 347 LINE",
"528 568 LINE",
"440 587 LINE"
);
}
);
width = 586;
},
{
background = {
paths = (
{
closed = 1;
nodes = (
"364 624 OFFCURVE",
"162 566 OFFCURVE",
"105 507 CURVE",
"89 473 OFFCURVE",
"81 430 OFFCURVE",
"81 343 CURVE SMOOTH",
"81 0 LINE",
"271 0 LINE",
"271 369 LINE SMOOTH",
"271 492 OFFCURVE",
"296 507 OFFCURVE",
"321 521 CURVE",
"336 526 OFFCURVE",
"359 528 OFFCURVE",
"379 528 CURVE SMOOTH",
"448 528 OFFCURVE",
"536 498 OFFCURVE",
"589 469 CURVE",
"595 486 OFFCURVE",
"598 501 OFFCURVE",
"598 514 CURVE SMOOTH",
"598 614 OFFCURVE",
"440 624 OFFCURVE",
"382 624 CURVE"
);
},
{
closed = 1;
nodes = (
"21 0 LINE",
"190 0 LINE",
"190 143 LINE",
"21 72 LINE"
);
},
{
closed = 1;
nodes = (
"290 1 LINE",
"413 1 LINE",
"392 202 LINE",
"299 202 LINE"
);
},
{
closed = 1;
nodes = (
"326 433 OFFCURVE",
"324 418 OFFCURVE",
"324 401 CURVE SMOOTH",
"324 231 OFFCURVE",
"533 242 OFFCURVE",
"533 128 CURVE SMOOTH",
"533 109 OFFCURVE",
"524 88 OFFCURVE",
"507 88 CURVE SMOOTH",
"467 88 OFFCURVE",
"408 98 OFFCURVE",
"358 105 CURVE",
"290 1 LINE",
"348 -4 OFFCURVE",
"432 -9 OFFCURVE",
"520 -9 CURVE SMOOTH",
"558 -9 OFFCURVE",
"678 61 OFFCURVE",
"704 113 CURVE",
"706 123 OFFCURVE",
"708 142 OFFCURVE",
"708 159 CURVE SMOOTH",
"708 325 OFFCURVE",
"490 325 OFFCURVE",
"490 438 CURVE SMOOTH",
"490 453 OFFCURVE",
"496 466 OFFCURVE",
"506 474 CURVE",
"527 480 OFFCURVE",
"564 476 OFFCURVE",
"589 469 CURVE",
"545 574 LINE",
"492 574 OFFCURVE",
"351 490 OFFCURVE",
"329 445 CURVE"
);
}
);
};
layerId = "CB0A0A08-290D-4820-BDFF-3CAB47D8DECF";
paths = (
{
closed = 1;
nodes = (
"20 540 LINE",
"80 515 LINE",
"80 97 LINE",
"20 72 LINE",
"20 0 LINE",
"265 0 LINE",
"265 510 LINE",
"568 526 LINE",
"658 565 LINE",
"632 612 LINE",
"20 612 LINE"
);
},
{
closed = 1;
nodes = (
"377 259 LINE",
"456 259 LINE SMOOTH",
"480 259 OFFCURVE",
"515 233 OFFCURVE",
"515 196 CURVE SMOOTH",
"515 134 OFFCURVE",
"491 105 OFFCURVE",
"466 96 CURVE SMOOTH",
"449 90 OFFCURVE",
"369 91 OFFCURVE",
"318 92 CURVE",
"304 1 LINE",
"356 -6 OFFCURVE",
"430 -15 OFFCURVE",
"460 -15 CURVE SMOOTH",
"602 -15 OFFCURVE",
"700 95 OFFCURVE",
"700 197 CURVE SMOOTH",
"700 306 OFFCURVE",
"603 374 OFFCURVE",
"380 334 CURVE"
);
},
{
closed = 1;
nodes = (
"304 1 LINE",
"427 1 LINE",
"406 202 LINE",
"313 202 LINE"
);
},
{
closed = 1;
nodes = (
"319 323 LINE",
"377 259 LINE",
"482 342 LINE",
"475 356 LINE",
"658 565 LINE",
"534 602 LINE"
);
}
);
width = 707;
}
);
leftMetricsKey = H;
unicode = 1E9E;
},
{
glyphname = Schwa;
lastChange = "2018-02-12 15:36:47 +0000";
layers = (
{
background = {
paths = (
{
closed = 1;
nodes = (
"333 -10 OFFCURVE",
"411 48 OFFCURVE",
"444 101 CURVE",
"468 149 OFFCURVE",
"485 225 OFFCURVE",
"485 305 CURVE SMOOTH",
"485 488 OFFCURVE",
"412 601 OFFCURVE",
"265 601 CURVE SMOOTH",
"223 601 OFFCURVE",
"147 596 OFFCURVE",
"77 585 CURVE",
"87 556 LINE",
"150 567 OFFCURVE",
"213 576 OFFCURVE",
"246 576 CURVE",
"269 576 OFFCURVE",
"289 575 OFFCURVE",
"308 570 CURVE SMOOTH",
"422 541 OFFCURVE",
"455 427 OFFCURVE",
"455 295 CURVE SMOOTH",
"455 215 OFFCURVE",
"435 133 OFFCURVE",
"419 110 CURVE",
"387 60 OFFCURVE",
"318 20 OFFCURVE",
"284 20 CURVE SMOOTH",
"192 20 OFFCURVE",
"110 58 OFFCURVE",
"97 252 CURVE",
"469 282 LINE",
"468 303 LINE",
"65 273 LINE",
"68 102 OFFCURVE",
"137 -10 OFFCURVE",
"281 -10 CURVE SMOOTH"
);
}
);
};
layerId = "4F39836F-1187-466E-8FAB-7EBF43C51BB4";
paths = (
{
closed = 1;
nodes = (
"333 -10 OFFCURVE",
"411 48 OFFCURVE",
"444 101 CURVE",
"468 149 OFFCURVE",
"485 225 OFFCURVE",
"485 305 CURVE SMOOTH",
"485 488 OFFCURVE",
"412 601 OFFCURVE",
"265 601 CURVE SMOOTH",
"223 601 OFFCURVE",
"147 596 OFFCURVE",
"77 585 CURVE",
"87 556 LINE",
"150 567 OFFCURVE",
"212 576 OFFCURVE",
"245 576 CURVE SMOOTH",
"403 576 OFFCURVE",
"455 465 OFFCURVE",
"455 295 CURVE SMOOTH",
"455 215 OFFCURVE",
"435 133 OFFCURVE",
"419 110 CURVE",
"387 60 OFFCURVE",
"318 20 OFFCURVE",
"284 20 CURVE SMOOTH",
"192 20 OFFCURVE",
"110 58 OFFCURVE",
"97 252 CURVE",
"469 282 LINE",
"468 303 LINE",
"65 273 LINE",
"68 102 OFFCURVE",
"137 -10 OFFCURVE",
"281 -10 CURVE SMOOTH"
);
},
{
closed = 1;
nodes = (
"105 449 LINE",
"111 585 LINE",
"77 585 LINE",
"86 449 LINE"
);
}
);
width = 540;
},
{
layerId = "555729A4-F539-4650-9C4F-3880CB033E7B";
paths = (
{
closed = 1;
nodes = (
"349 -9 OFFCURVE",
"456 62 OFFCURVE",
"490 108 CURVE",
"502 153 OFFCURVE",
"515 226 OFFCURVE",
"515 318 CURVE SMOOTH",
"515 524 OFFCURVE",
"425 611 OFFCURVE",
"249 611 CURVE SMOOTH",
"229 611 OFFCURVE",
"142 589 OFFCURVE",
"85 575 CURVE",
"102 506 LINE",
"186 531 OFFCURVE",
"259 552 OFFCURVE",
"269 552 CURVE",
"371 552 OFFCURVE",
"416 494 OFFCURVE",
"416 300 CURVE SMOOTH",
"416 198 OFFCURVE",
"407 138 OFFCURVE",
"397 94 CURVE",
"392 86 OFFCURVE",
"327 51 OFFCURVE",
"311 51 CURVE SMOOTH",
"205 51 OFFCURVE",
"163 97 OFFCURVE",
"154 237 CURVE",
"430 265 LINE",
"430 308 LINE",
"53 283 LINE",
"53 79 OFFCURVE",
"143 -9 OFFCURVE",
"319 -9 CURVE SMOOTH"
);
},
{
closed = 1;
nodes = (
"152 408 LINE",
"167 575 LINE",
"85 575 LINE",
"100 408 LINE"
);
}
);
width = 558;
},
{
layerId = "CB0A0A08-290D-4820-BDFF-3CAB47D8DECF";
paths = (
{
closed = 1;
nodes = (
"372 -13 OFFCURVE",
"524 66 OFFCURVE",
"572 117 CURVE",
"588 162 OFFCURVE",
"605 233 OFFCURVE",
"605 324 CURVE SMOOTH",
"605 536 OFFCURVE",
"503 625 OFFCURVE",
"302 625 CURVE SMOOTH",
"261 625 OFFCURVE",
"137 612 OFFCURVE",
"56 602 CURVE",
"113 494 LINE",
"198 513 OFFCURVE",
"272 532 OFFCURVE",
"321 532 CURVE SMOOTH",
"379 532 OFFCURVE",
"405 480 OFFCURVE",
"405 305 CURVE SMOOTH",
"405 203 OFFCURVE",
"400 143 OFFCURVE",
"394 100 CURVE",
"389 97 OFFCURVE",
"335 81 OFFCURVE",
"321 81 CURVE SMOOTH",
"261 81 OFFCURVE",
"235 116 OFFCURVE",
"227 220 CURVE",
"447 243 LINE",
"441 327 LINE",
"25 291 LINE",
"25 77 OFFCURVE",
"127 -13 OFFCURVE",
"328 -13 CURVE SMOOTH"
);
},
{
closed = 1;
nodes = (
"157 377 LINE",
"179 602 LINE",
"51 602 LINE",
"64 377 LINE"
);
}
);
width = 620;
}
);
unicode = 018F;
},
{
glyphname = T;
lastChange = "2018-02-21 16:18:52 +0000";
layers = (
{
anchors = (
{
name = bottom;
position = "{240, 0}";
},
{
name = center;
position = "{242, 304}";
},
{
name = top;
position = "{239, 603}";
}
);
layerId = "555729A4-F539-4650-9C4F-3880CB033E7B";
paths = (
{
closed = 1;
nodes = (
"352 0 LINE",
"352 43 LINE",
"286 63 LINE",
"286 545 LINE",
"394 539 LINE",
"404 415 LINE",
"458 415 LINE",
"471 603 LINE",
"8 603 LINE",
"21 415 LINE",
"74 415 LINE",
"84 539 LINE",
"193 545 LINE",
"193 58 LINE",
"131 38 LINE",
"131 0 LINE"
);
}
);
width = 479;
},
{
anchors = (
{
name = bottom;
position = "{297, 0}";
},
{
name = center;
position = "{295, 283}";
},
{
name = top;
position = "{297, 612}";
}
);
layerId = "CB0A0A08-290D-4820-BDFF-3CAB47D8DECF";
paths = (
{
closed = 1;
nodes = (
"475 0 LINE",
"475 72 LINE",
"390 97 LINE",
"390 517 LINE",
"464 508 LINE",
"477 394 LINE",
"566 394 LINE",
"579 612 LINE",
"10 612 LINE",
"23 394 LINE",
"112 394 LINE",
"125 508 LINE",
"199 517 LINE",
"199 97 LINE",
"114 72 LINE",
"114 0 LINE"
);
}
);
width = 589;
},
{
anchors = (
{
name = bottom;
position = "{212, 0}";
},
{
name = center;
position = "{212, 308}";
},
{
name = top;
position = "{212, 591}";
}
);
layerId = "4F39836F-1187-466E-8FAB-7EBF43C51BB4";
paths = (
{
closed = 1;
nodes = (
"294 0 LINE",
"294 18 LINE",
"227 27 LINE",
"227 564 LINE",
"367 564 LINE",
"374 451 LINE",
"393 451 LINE",
"399 591 LINE",
"25 591 LINE",
"31 451 LINE",
"50 451 LINE",
"57 564 LINE",
"197 564 LINE",
"197 25 LINE",
"130 17 LINE",
"130 0 LINE"
);
}
);
width = 424;
}
);
leftKerningGroup = T;
rightKerningGroup = T;
unicode = 0054;
},
{
glyphname = U;
lastChange = "2018-02-21 16:19:02 +0000";
layers = (
{
anchors = (
{
name = bottom;
position = "{311, 0}";
},
{
name = ogonek;
position = "{526, 0}";
},
{
name = top;
position = "{298, 603}";
}
);
layerId = "555729A4-F539-4650-9C4F-3880CB033E7B";
paths = (
{
closed = 1;
nodes = (
"259 -8 OFFCURVE",
"351 36 OFFCURVE",
"402 59 CURVE",
"423 0 LINE",
"555 0 LINE",
"555 38 LINE",
"493 58 LINE",
"493 545 LINE",
"555 565 LINE",
"555 603 LINE",
"334 603 LINE",
"334 560 LINE",
"400 540 LINE",
"400 108 LINE",
"363 97 OFFCURVE",
"277 73 OFFCURVE",
"251 73 CURVE SMOOTH",
"222 73 OFFCURVE",
"191 86 OFFCURVE",
"191 191 CURVE SMOOTH",
"191 540 LINE",
"257 560 LINE",
"257 603 LINE",
"36 603 LINE",
"36 565 LINE",
"98 545 LINE",
"98 170 LINE SMOOTH",
"98 50 OFFCURVE",
"148 -8 OFFCURVE",
"247 -8 CURVE SMOOTH"
);
}
);
width = 597;
},
{
anchors = (
{
name = bottom;
position = "{339, 0}";
},
{
name = ogonek;
position = "{603, -1}";
},
{
name = top;
position = "{331, 612}";
}
);
layerId = "CB0A0A08-290D-4820-BDFF-3CAB47D8DECF";
paths = (
{
closed = 1;
nodes = (
"278 -13 OFFCURVE",
"376 40 OFFCURVE",
"413 61 CURVE",
"436 0 LINE",
"653 0 LINE",
"653 72 LINE",
"593 97 LINE",
"593 515 LINE",
"653 540 LINE",
"653 612 LINE",
"353 612 LINE",
"353 532 LINE",
"406 505 LINE",
"406 161 LINE",
"373 152 OFFCURVE",
"340 142 OFFCURVE",
"316 142 CURVE SMOOTH",
"279 142 OFFCURVE",
"257 153 OFFCURVE",
"257 240 CURVE SMOOTH",
"257 505 LINE",
"310 532 LINE",
"310 612 LINE",
"10 612 LINE",
"10 540 LINE",
"70 515 LINE",
"70 205 LINE SMOOTH",
"70 57 OFFCURVE",
"115 -13 OFFCURVE",
"269 -13 CURVE SMOOTH"
);
}
);
width = 673;
},
{
anchors = (
{
name = bottom;
position = "{268, 0}";
},
{
name = ogonek;
position = "{460, 0}";
},
{
name = top;
position = "{257, 591}";
}
);
layerId = "4F39836F-1187-466E-8FAB-7EBF43C51BB4";
paths = (
{
closed = 1;
nodes = (
"248 -10 OFFCURVE",
"362 34 OFFCURVE",
"394 45 CURVE",
"402 0 LINE",
"481 0 LINE",
"481 17 LINE",
"424 25 LINE",
"424 566 LINE",
"481 574 LINE",
"481 591 LINE",
"333 591 LINE",
"333 573 LINE",
"394 564 LINE",
"394 71 LINE",
"336 50 OFFCURVE",
"253 19 OFFCURVE",
"206 19 CURVE SMOOTH",
"154 19 OFFCURVE",
"127 50 OFFCURVE",
"127 128 CURVE SMOOTH",
"127 564 LINE",
"188 573 LINE",
"188 591 LINE",
"40 591 LINE",
"40 574 LINE",
"97 566 LINE",
"97 136 LINE SMOOTH",
"97 32 OFFCURVE",
"132 -10 OFFCURVE",
"213 -10 CURVE SMOOTH"
);
}
);
width = 528;
}
);
leftKerningGroup = U;
rightKerningGroup = U;
unicode = 0055;
},
{
glyphname = Uhorn;
lastChange = "2018-02-12 15:36:47 +0000";
layers = (
{
anchors = (
{
name = bottom;
position = "{268, 0}";
},
{
name = top;
position = "{257, 591}";
}
);
components = (
{
name = horncomb;
transform = "{1, 0, 0, 1, 585, 170}";
}
);
layerId = "4F39836F-1187-466E-8FAB-7EBF43C51BB4";
paths = (
{
closed = 1;
nodes = (
"248 -10 OFFCURVE",
"362 34 OFFCURVE",
"394 45 CURVE",
"402 0 LINE",
"481 0 LINE",
"481 20 LINE",
"424 25 LINE",
"424 591 LINE",
"333 591 LINE",
"333 571 LINE",
"394 564 LINE",
"394 71 LINE",
"336 50 OFFCURVE",
"253 19 OFFCURVE",
"206 19 CURVE SMOOTH",
"154 19 OFFCURVE",
"127 50 OFFCURVE",
"127 128 CURVE SMOOTH",
"127 564 LINE",
"188 571 LINE",
"188 591 LINE",
"40 591 LINE",
"40 571 LINE",
"97 566 LINE",
"97 136 LINE SMOOTH",
"97 32 OFFCURVE",
"132 -10 OFFCURVE",
"213 -10 CURVE SMOOTH"
);
}
);
width = 528;
},
{
anchors = (
{
name = bottom;
position = "{311, 0}";
},
{
name = top;
position = "{298, 603}";
}
);
components = (
{
name = horncomb;
transform = "{1, 0, 0, 1, 660, 179}";
}
);
layerId = "555729A4-F539-4650-9C4F-3880CB033E7B";
paths = (
{
closed = 1;
nodes = (
"259 -8 OFFCURVE",
"351 36 OFFCURVE",
"402 59 CURVE",
"423 0 LINE",
"555 0 LINE",
"555 38 LINE",
"493 58 LINE",
"493 603 LINE",
"334 603 LINE",
"334 557 LINE",
"400 540 LINE",
"400 108 LINE",
"363 97 OFFCURVE",
"277 73 OFFCURVE",
"251 73 CURVE SMOOTH",
"222 73 OFFCURVE",
"191 86 OFFCURVE",
"191 191 CURVE SMOOTH",
"191 540 LINE",
"257 557 LINE",
"257 603 LINE",
"36 603 LINE",
"36 565 LINE",
"98 545 LINE",
"98 170 LINE SMOOTH",
"98 50 OFFCURVE",
"148 -8 OFFCURVE",
"247 -8 CURVE SMOOTH"
);
}
);
width = 597;
},
{
anchors = (
{
name = bottom;
position = "{339, 0}";
},
{
name = top;
position = "{331, 612}";
}
);
components = (
{
name = horncomb;
transform = "{1, 0, 0, 1, 754, 180}";
}
);
layerId = "CB0A0A08-290D-4820-BDFF-3CAB47D8DECF";
paths = (
{
closed = 1;
nodes = (
"278 -13 OFFCURVE",
"376 40 OFFCURVE",
"413 61 CURVE",
"436 0 LINE",
"653 0 LINE",
"653 72 LINE",
"593 97 LINE",
"593 612 LINE",
"353 612 LINE",
"353 532 LINE",
"406 505 LINE",
"406 161 LINE",
"373 152 OFFCURVE",
"340 142 OFFCURVE",
"316 142 CURVE SMOOTH",
"279 142 OFFCURVE",
"257 153 OFFCURVE",
"257 240 CURVE SMOOTH",
"257 505 LINE",
"310 532 LINE",
"310 612 LINE",
"10 612 LINE",
"10 540 LINE",
"70 515 LINE",
"70 205 LINE SMOOTH",
"70 57 OFFCURVE",
"115 -13 OFFCURVE",
"269 -13 CURVE SMOOTH"
);
}
);
width = 673;
}
);
unicode = 01AF;
},
{
glyphname = V;
lastChange = "2018-02-21 16:19:36 +0000";
layers = (
{
layerId = "555729A4-F539-4650-9C4F-3880CB033E7B";
paths = (
{
closed = 1;
nodes = (
"232 -7 OFFCURVE",
"303 1 OFFCURVE",
"340 7 CURVE",
"366 105 OFFCURVE",
"461 474 OFFCURVE",
"480 545 CURVE",
"542 565 LINE",
"542 603 LINE",
"321 603 LINE",
"321 560 LINE",
"393 540 LINE",
"370 433 OFFCURVE",
"302 159 OFFCURVE",
"287 92 CURVE",
"276 92 LINE",
"276 92 OFFCURVE",
"257 187 OFFCURVE",
"247 231 CURVE",
"170 540 LINE",
"239 560 LINE",
"239 603 LINE",
"10 603 LINE",
"10 565 LINE",
"72 545 LINE",
"214 1 LINE",
"214 1 OFFCURVE",
"226 -7 OFFCURVE",
"230 -7 CURVE SMOOTH"
);
}
);
width = 552;
},
{
layerId = "CB0A0A08-290D-4820-BDFF-3CAB47D8DECF";
paths = (
{
closed = 1;
nodes = (
"258 -13 OFFCURVE",
"433 6 OFFCURVE",
"433 6 CURVE",
"461 100 OFFCURVE",
"568 451 OFFCURVE",
"588 520 CURVE",
"650 540 LINE",
"650 612 LINE",
"371 612 LINE",
"371 532 LINE",
"432 515 LINE",
"417 430 OFFCURVE",
"374 234 OFFCURVE",
"358 171 CURVE",
"348 171 LINE",
"348 171 OFFCURVE",
"321 294 OFFCURVE",
"307 351 CURVE SMOOTH",
"268 515 LINE",
"328 532 LINE",
"328 612 LINE",
"6 612 LINE",
"6 540 LINE",
"68 520 LINE",
"225 0 LINE",
"225 0 OFFCURVE",
"246 -13 OFFCURVE",
"249 -13 CURVE SMOOTH"
);
}
);
width = 652;
},
{
layerId = "4F39836F-1187-466E-8FAB-7EBF43C51BB4";
paths = (
{
closed = 1;
nodes = (
"244 -10 OFFCURVE",
"275 -5 OFFCURVE",
"275 -5 CURVE",
"325 185 OFFCURVE",
"374 376 OFFCURVE",
"424 566 CURVE",
"481 574 LINE",
"481 591 LINE",
"333 591 LINE",
"333 573 LINE",
"395 564 LINE",
"348 384 OFFCURVE",
"302 201 OFFCURVE",
"255 21 CURVE",
"247 21 LINE",
"247 21 OFFCURVE",
"217 141 OFFCURVE",
"200 208 CURVE",
"108 564 LINE",
"168 573 LINE",
"168 591 LINE",
"20 591 LINE",
"20 574 LINE",
"77 566 LINE",
"225 -2 LINE",
"225 -2 OFFCURVE",
"236 -10 OFFCURVE",
"239 -10 CURVE SMOOTH"
);
}
);
width = 503;
}
);
leftKerningGroup = V;
rightKerningGroup = V;
unicode = 0056;
},
{
glyphname = W;
lastChange = "2018-02-21 16:19:56 +0000";
layers = (
{
anchors = (
{
name = top;
position = "{414, 603}";
}
);
layerId = "555729A4-F539-4650-9C4F-3880CB033E7B";
paths = (
{
closed = 1;
nodes = (
"222 -7 OFFCURVE",
"293 1 OFFCURVE",
"330 7 CURVE",
"407 292 LINE",
"416 292 LINE",
"481 1 LINE",
"481 1 OFFCURVE",
"493 -7 OFFCURVE",
"497 -7 CURVE SMOOTH",
"499 -7 OFFCURVE",
"570 1 OFFCURVE",
"607 7 CURVE",
"633 105 OFFCURVE",
"728 474 OFFCURVE",
"747 545 CURVE",
"809 565 LINE",
"809 603 LINE",
"588 603 LINE",
"588 560 LINE",
"660 540 LINE",
"637 433 OFFCURVE",
"569 159 OFFCURVE",
"554 92 CURVE",
"543 92 LINE",
"543 92 OFFCURVE",
"524 187 OFFCURVE",
"514 231 CURVE",
"451 540 LINE",
"516 557 LINE",
"516 603 LINE",
"299 603 LINE",
"299 568 LINE",
"353 545 LINE",
"377 447 LINE",
"345 324 OFFCURVE",
"293 147 OFFCURVE",
"280 92 CURVE",
"269 92 LINE",
"269 92 OFFCURVE",
"250 187 OFFCURVE",
"240 231 CURVE SMOOTH",
"170 540 LINE",
"227 560 LINE",
"227 603 LINE",
"10 603 LINE",
"10 565 LINE",
"72 545 LINE",
"204 1 LINE",
"204 1 OFFCURVE",
"216 -7 OFFCURVE",
"220 -7 CURVE SMOOTH"
);
}
);
width = 815;
},
{
anchors = (
{
name = top;
position = "{508, 612}";
}
);
layerId = "CB0A0A08-290D-4820-BDFF-3CAB47D8DECF";
paths = (
{
closed = 1;
nodes = (
"238 -13 OFFCURVE",
"413 6 OFFCURVE",
"413 6 CURVE",
"479 228 LINE",
"490 228 LINE",
"550 0 LINE",
"550 0 OFFCURVE",
"571 -13 OFFCURVE",
"574 -13 CURVE SMOOTH",
"583 -13 OFFCURVE",
"758 6 OFFCURVE",
"758 6 CURVE",
"786 100 OFFCURVE",
"893 451 OFFCURVE",
"913 520 CURVE",
"975 540 LINE",
"975 612 LINE",
"706 612 LINE",
"706 532 LINE",
"757 515 LINE",
"742 430 OFFCURVE",
"699 234 OFFCURVE",
"683 171 CURVE",
"673 171 LINE",
"673 171 OFFCURVE",
"648 295 OFFCURVE",
"636 351 CURVE SMOOTH",
"602 515 LINE",
"663 532 LINE",
"663 612 LINE",
"361 612 LINE",
"361 540 LINE",
"413 520 LINE",
"428 463 LINE",
"401 367 OFFCURVE",
"357 229 OFFCURVE",
"338 171 CURVE",
"328 171 LINE",
"328 171 OFFCURVE",
"307 294 OFFCURVE",
"297 351 CURVE SMOOTH",
"268 515 LINE",
"318 532 LINE",
"318 612 LINE",
"6 612 LINE",
"6 540 LINE",
"68 520 LINE",
"205 0 LINE",
"205 0 OFFCURVE",
"226 -13 OFFCURVE",
"229 -13 CURVE SMOOTH"
);
}
);
width = 977;
},
{
anchors = (
{
name = top;
position = "{369, 591}";
}
);
layerId = "4F39836F-1187-466E-8FAB-7EBF43C51BB4";
paths = (
{
closed = 1;
nodes = (
"239 -10 OFFCURVE",
"270 -5 OFFCURVE",
"270 -5 CURVE",
"366 388 LINE",
"372 388 LINE",
"467 -2 LINE",
"467 -2 OFFCURVE",
"478 -10 OFFCURVE",
"481 -10 CURVE SMOOTH",
"486 -10 OFFCURVE",
"517 -5 OFFCURVE",
"517 -5 CURVE",
"565 185 OFFCURVE",
"613 376 OFFCURVE",
"661 566 CURVE",
"718 573 LINE",
"718 591 LINE",
"563 591 LINE",
"563 574 LINE",
"632 564 LINE",
"587 384 OFFCURVE",
"542 201 OFFCURVE",
"497 21 CURVE",
"489 21 LINE",
"489 21 OFFCURVE",
"449 186 OFFCURVE",
"435 243 CURVE SMOOTH",
"355 564 LINE",
"425 573 LINE",
"425 591 LINE",
"276 591 LINE",
"276 574 LINE",
"324 566 LINE",
"356 444 LINE",
"321 304 OFFCURVE",
"285 161 OFFCURVE",
"250 21 CURVE",
"242 21 LINE",
"242 21 OFFCURVE",
"202 188 OFFCURVE",
"188 243 CURVE SMOOTH",
"108 564 LINE",
"163 573 LINE",
"163 591 LINE",
"20 591 LINE",
"20 574 LINE",
"77 566 LINE",
"220 -2 LINE",
"220 -2 OFFCURVE",
"231 -10 OFFCURVE",
"234 -10 CURVE SMOOTH"
);
}
);
width = 740;
}
);
leftKerningGroup = W;
rightKerningGroup = W;
unicode = 0057;
},
{
glyphname = X;
lastChange = "2018-02-21 16:20:09 +0000";
layers = (
{
layerId = "555729A4-F539-4650-9C4F-3880CB033E7B";
paths = (
{
closed = 1;
nodes = (
"8 565 LINE",
"61 545 LINE",
"207 306 LINE",
"52 58 LINE",
"-10 38 LINE",
"-10 0 LINE",
"211 0 LINE",
"211 43 LINE",
"142 63 LINE",
"256 254 LINE",
"260 254 LINE",
"374 63 LINE",
"307 43 LINE",
"307 0 LINE",
"546 0 LINE",
"546 38 LINE",
"484 58 LINE",
"324 319 LINE",
"459 545 LINE",
"521 565 LINE",
"521 603 LINE",
"300 603 LINE",
"300 560 LINE",
"369 540 LINE",
"277 371 LINE",
"273 371 LINE",
"165 540 LINE",
"237 560 LINE",
"237 603 LINE",
"8 603 LINE"
);
}
);
width = 528;
},
{
layerId = "CB0A0A08-290D-4820-BDFF-3CAB47D8DECF";
paths = (
{
closed = 1;
nodes = (
"30 540 LINE",
"80 515 LINE",
"221 321 LINE",
"61 97 LINE",
"0 72 LINE",
"0 0 LINE",
"297 0 LINE",
"297 84 LINE",
"232 99 LINE",
"307 243 LINE",
"317 243 LINE",
"408 99 LINE",
"340 84 LINE",
"340 0 LINE",
"683 0 LINE",
"683 72 LINE",
"632 97 LINE",
"457 327 LINE",
"593 515 LINE",
"653 540 LINE",
"653 612 LINE",
"383 612 LINE",
"383 532 LINE",
"428 523 LINE",
"372 401 LINE",
"362 401 LINE",
"295 523 LINE",
"340 532 LINE",
"340 612 LINE",
"30 612 LINE"
);
}
);
width = 683;
},
{
layerId = "4F39836F-1187-466E-8FAB-7EBF43C51BB4";
paths = (
{
closed = 1;
nodes = (
"41 574 LINE",
"100 566 LINE",
"255 318 LINE",
"72 25 LINE",
"16 17 LINE",
"16 0 LINE",
"169 0 LINE",
"169 18 LINE",
"105 27 LINE",
"270 291 LINE",
"272 291 LINE",
"436 27 LINE",
"374 18 LINE",
"374 0 LINE",
"527 0 LINE",
"527 17 LINE",
"472 25 LINE",
"288 319 LINE",
"443 566 LINE",
"502 574 LINE",
"502 591 LINE",
"349 591 LINE",
"349 573 LINE",
"410 564 LINE",
"274 345 LINE",
"272 345 LINE",
"136 564 LINE",
"194 573 LINE",
"194 591 LINE",
"41 591 LINE"
);
}
);
width = 545;
}
);
leftKerningGroup = X;
rightKerningGroup = X;
unicode = 0058;
},
{
glyphname = Y;
lastChange = "2018-02-21 16:20:12 +0000";
layers = (
{
anchors = (
{
name = bottom;
position = "{257, 0}";
},
{
name = top;
position = "{267, 603}";
}
);
layerId = "555729A4-F539-4650-9C4F-3880CB033E7B";
paths = (
{
closed = 1;
nodes = (
"373 0 LINE",
"373 38 LINE",
"308 58 LINE",
"308 227 LINE",
"360 333 OFFCURVE",
"411 439 OFFCURVE",
"463 545 CURVE",
"525 565 LINE",
"525 603 LINE",
"304 603 LINE",
"304 560 LINE",
"373 540 LINE",
"339 465 OFFCURVE",
"306 390 OFFCURVE",
"272 315 CURVE",
"263 315 LINE",
"228 390 OFFCURVE",
"192 465 OFFCURVE",
"157 540 CURVE",
"223 560 LINE",
"223 603 LINE",
"-6 603 LINE",
"-6 565 LINE",
"56 545 LINE",
"215 224 LINE",
"215 58 LINE",
"150 38 LINE",
"150 0 LINE"
);
}
);
width = 519;
},
{
anchors = (
{
name = bottom;
position = "{302, 0}";
},
{
name = top;
position = "{316, 612}";
}
);
layerId = "CB0A0A08-290D-4820-BDFF-3CAB47D8DECF";
paths = (
{
closed = 1;
nodes = (
"458 0 LINE",
"458 72 LINE",
"393 97 LINE",
"393 245 LINE",
"431 314 OFFCURVE",
"520 480 OFFCURVE",
"538 520 CURVE",
"600 540 LINE",
"600 612 LINE",
"341 612 LINE",
"341 532 LINE",
"392 515 LINE",
"376 472 OFFCURVE",
"337 378 OFFCURVE",
"324 351 CURVE",
"314 351 LINE",
"314 351 OFFCURVE",
"292 406 OFFCURVE",
"247 515 CURVE",
"297 532 LINE",
"297 612 LINE",
"-5 612 LINE",
"-5 540 LINE",
"57 520 LINE",
"202 243 LINE",
"202 97 LINE",
"137 72 LINE",
"137 0 LINE"
);
}
);
width = 595;
},
{
anchors = (
{
name = bottom;
position = "{251, 0}";
},
{
name = top;
position = "{255, 591}";
}
);
layerId = "4F39836F-1187-466E-8FAB-7EBF43C51BB4";
paths = (
{
closed = 1;
nodes = (
"327 0 LINE",
"327 18 LINE",
"266 27 LINE",
"266 239 LINE",
"319 348 OFFCURVE",
"373 457 OFFCURVE",
"426 566 CURVE",
"482 574 LINE",
"482 591 LINE",
"334 591 LINE",
"334 573 LINE",
"395 564 LINE",
"349 467 OFFCURVE",
"302 370 OFFCURVE",
"256 273 CURVE",
"249 273 LINE",
"203 370 OFFCURVE",
"156 467 OFFCURVE",
"110 564 CURVE",
"169 573 LINE",
"169 591 LINE",
"21 591 LINE",
"21 574 LINE",
"77 566 LINE",
"236 239 LINE",
"236 25 LINE",
"179 17 LINE",
"179 0 LINE"
);
}
);
width = 503;
}
);
leftKerningGroup = Y;
rightKerningGroup = Y;
unicode = 0059;
},
{
glyphname = Z;
lastChange = "2018-02-12 15:36:47 +0000";
layers = (
{
anchors = (
{
name = top;
position = "{242, 603}";
}
);
layerId = "555729A4-F539-4650-9C4F-3880CB033E7B";
paths = (
{
closed = 1;
nodes = (
"445 0 LINE",
"434 184 LINE",
"380 184 LINE",
"368 49 LINE",
"165 65 LINE",
"422 565 LINE",
"422 603 LINE",
"59 603 LINE",
"72 428 LINE",
"127 428 LINE",
"136 554 LINE",
"305 540 LINE",
"46 38 LINE",
"46 0 LINE"
);
}
);
width = 477;
},
{
anchors = (
{
name = top;
position = "{257, 612}";
}
);
layerId = "CB0A0A08-290D-4820-BDFF-3CAB47D8DECF";
paths = (
{
closed = 1;
nodes = (
"506 0 LINE",
"495 209 LINE",
"408 209 LINE",
"388 88 LINE",
"236 104 LINE",
"483 540 LINE",
"483 612 LINE",
"19 612 LINE",
"32 417 LINE",
"122 417 LINE",
"135 524 LINE",
"259 510 LINE",
"10 72 LINE",
"10 0 LINE"
);
}
);
width = 516;
},
{
anchors = (
{
name = top;
position = "{223, 591}";
}
);
layerId = "4F39836F-1187-466E-8FAB-7EBF43C51BB4";
paths = (
{
closed = 1;
nodes = (
"395 0 LINE",
"392 122 LINE",
"373 122 LINE",
"363 27 LINE",
"87 27 LINE",
"384 571 LINE",
"384 591 LINE",
"64 591 LINE",
"70 469 LINE",
"89 469 LINE",
"96 564 LINE",
"345 564 LINE",
"50 20 LINE",
"50 0 LINE"
);
}
);
width = 445;
}
);
leftKerningGroup = Z;
rightKerningGroup = Z;
unicode = 005A;
},
{
glyphname = a;
lastChange = "2018-02-12 15:36:47 +0000";
layers = (
{
anchors = (
{
name = bottom;
position = "{221, 0}";
},
{
name = ogonek;
position = "{387, 7}";
},
{
name = top;
position = "{229, 448}";
}
);
background = {
paths = (
{
closed = 1;
nodes = (
"201 -9 OFFCURVE",
"259 37 OFFCURVE",
"294 63 CURVE",
"294 24 LINE SMOOTH",
"294 17 OFFCURVE",
"323 -9 OFFCURVE",
"328 -9 CURVE SMOOTH",
"337 -9 OFFCURVE",
"416 7 OFFCURVE",
"416 7 CURVE",
"416 44 LINE",
"382 58 LINE",
"382 434 LINE",
"355 438 OFFCURVE",
"224 457 OFFCURVE",
"207 457 CURVE SMOOTH",
"183 457 OFFCURVE",
"83 388 OFFCURVE",
"62 358 CURVE",
"48 330 OFFCURVE",
"38 273 OFFCURVE",
"38 209 CURVE SMOOTH",
"38 57 OFFCURVE",
"115 -9 OFFCURVE",
"194 -9 CURVE SMOOTH"
);
},
{
closed = 1;
nodes = (
"180 65 OFFCURVE",
"134 104 OFFCURVE",
"134 216 CURVE SMOOTH",
"134 357 OFFCURVE",
"149 400 OFFCURVE",
"172 404 CURVE SMOOTH",
"191 407 OFFCURVE",
"259 390 OFFCURVE",
"291 380 CURVE",
"291 105 LINE",
"291 105 OFFCURVE",
"210 65 OFFCURVE",
"200 65 CURVE SMOOTH"
);
}
);
};
layerId = "555729A4-F539-4650-9C4F-3880CB033E7B";
paths = (
{
closed = 1;
nodes = (
"201 -9 OFFCURVE",
"260 37 OFFCURVE",
"294 63 CURVE",
"294 24 LINE SMOOTH",
"294 17 OFFCURVE",
"323 -9 OFFCURVE",
"328 -9 CURVE SMOOTH",
"337 -9 OFFCURVE",
"416 7 OFFCURVE",
"416 7 CURVE",
"416 44 LINE",
"382 58 LINE",
"382 434 LINE",
"355 438 OFFCURVE",
"224 457 OFFCURVE",
"207 457 CURVE SMOOTH",
"183 457 OFFCURVE",
"83 388 OFFCURVE",
"62 358 CURVE",
"48 330 OFFCURVE",
"38 273 OFFCURVE",
"38 209 CURVE SMOOTH",
"38 57 OFFCURVE",
"115 -9 OFFCURVE",
"194 -9 CURVE SMOOTH"
);
},
{
closed = 1;
nodes = (
"180 65 OFFCURVE",
"134 104 OFFCURVE",
"134 216 CURVE SMOOTH",
"134 357 OFFCURVE",
"149 395 OFFCURVE",
"172 399 CURVE SMOOTH",
"191 402 OFFCURVE",
"259 390 OFFCURVE",
"291 380 CURVE",
"291 105 LINE",
"263 91 OFFCURVE",
"209 65 OFFCURVE",
"200 65 CURVE SMOOTH"
);
}
);
width = 448;
},
{
anchors = (
{
name = bottom;
position = "{248, 0}";
},
{
name = ogonek;
position = "{449, 10}";
},
{
name = top;
position = "{258, 462}";
}
);
background = {
paths = (
{
closed = 1;
nodes = (
"206 -13 OFFCURVE",
"265 32 OFFCURVE",
"289 51 CURVE",
"289 30 LINE SMOOTH",
"289 22 OFFCURVE",
"322 -13 OFFCURVE",
"329 -13 CURVE SMOOTH",
"347 -13 OFFCURVE",
"499 10 OFFCURVE",
"499 10 CURVE",
"499 79 LINE",
"455 94 LINE",
"455 443 LINE",
"455 443 OFFCURVE",
"258 476 OFFCURVE",
"242 476 CURVE SMOOTH",
"210 476 OFFCURVE",
"75 395 OFFCURVE",
"47 364 CURVE",
"34 331 OFFCURVE",
"20 266 OFFCURVE",
"20 205 CURVE SMOOTH",
"20 75 OFFCURVE",
"82 -13 OFFCURVE",
"201 -13 CURVE SMOOTH"
);
},
{
closed = 1;
nodes = (
"215 103 OFFCURVE",
"205 163 OFFCURVE",
"205 220 CURVE SMOOTH",
"205 326 OFFCURVE",
"218 402 OFFCURVE",
"227 402 CURVE SMOOTH",
"236 402 OFFCURVE",
"282 363 OFFCURVE",
"282 363 CURVE",
"282 124 LINE",
"282 124 OFFCURVE",
"244 103 OFFCURVE",
"238 103 CURVE SMOOTH"
);
}
);
};
layerId = "CB0A0A08-290D-4820-BDFF-3CAB47D8DECF";
paths = (
{
closed = 1;
nodes = (
"206 -13 OFFCURVE",
"265 32 OFFCURVE",
"289 51 CURVE",
"289 30 LINE SMOOTH",
"289 22 OFFCURVE",
"322 -13 OFFCURVE",
"329 -13 CURVE SMOOTH",
"347 -13 OFFCURVE",
"499 10 OFFCURVE",
"499 10 CURVE",
"499 79 LINE",
"455 94 LINE",
"455 443 LINE",
"455 443 OFFCURVE",
"258 476 OFFCURVE",
"242 476 CURVE SMOOTH",
"210 476 OFFCURVE",
"75 395 OFFCURVE",
"47 364 CURVE",
"34 331 OFFCURVE",
"20 266 OFFCURVE",
"20 205 CURVE SMOOTH",
"20 75 OFFCURVE",
"82 -13 OFFCURVE",
"201 -13 CURVE SMOOTH"
);
},
{
closed = 1;
nodes = (
"215 103 OFFCURVE",
"205 163 OFFCURVE",
"205 220 CURVE SMOOTH",
"205 326 OFFCURVE",
"212 389 OFFCURVE",
"226 399 CURVE SMOOTH",
"234 405 OFFCURVE",
"265 378 OFFCURVE",
"282 363 CURVE",
"282 124 LINE",
"282 124 OFFCURVE",
"244 103 OFFCURVE",
"238 103 CURVE SMOOTH"
);
}
);
width = 507;
},
{
anchors = (
{
name = bottom;
position = "{219, 0}";
},
{
name = ogonek;
position = "{381, 2}";
},
{
name = top;
position = "{222, 440}";
}
);
background = {
paths = (
{
closed = 1;
nodes = (
"224 -10 OFFCURVE",
"279 38 OFFCURVE",
"317 69 CURVE",
"315 7 LINE SMOOTH",
"315 3 OFFCURVE",
"332 -10 OFFCURVE",
"335 -10 CURVE SMOOTH",
"343 -10 OFFCURVE",
"402 2 OFFCURVE",
"402 2 CURVE",
"402 19 LINE",
"344 19 LINE",
"344 432 LINE",
"299 439 OFFCURVE",
"230 450 OFFCURVE",
"209 450 CURVE SMOOTH",
"190 450 OFFCURVE",
"127 417 OFFCURVE",
"87 360 CURVE",
"70 326 OFFCURVE",
"54 269 OFFCURVE",
"54 195 CURVE SMOOTH",
"54 94 OFFCURVE",
"87 -10 OFFCURVE",
"216 -10 CURVE SMOOTH"
);
},
{
closed = 1;
nodes = (
"140 17 OFFCURVE",
"83 59 OFFCURVE",
"83 202 CURVE SMOOTH",
"83 306 OFFCURVE",
"109 381 OFFCURVE",
"195 420 CURVE SMOOTH",
"221 432 OFFCURVE",
"273 419 OFFCURVE",
"315 409 CURVE",
"315 98 LINE",
"279 68 OFFCURVE",
"220 17 OFFCURVE",
"209 17 CURVE SMOOTH"
);
}
);
};
layerId = "4F39836F-1187-466E-8FAB-7EBF43C51BB4";
paths = (
{
closed = 1;
nodes = (
"224 -10 OFFCURVE",
"279 38 OFFCURVE",
"317 69 CURVE",
"315 7 LINE SMOOTH",
"315 3 OFFCURVE",
"332 -10 OFFCURVE",
"335 -10 CURVE SMOOTH",
"343 -10 OFFCURVE",
"402 2 OFFCURVE",
"402 2 CURVE",
"402 19 LINE",
"344 19 LINE",
"344 432 LINE",
"299 439 OFFCURVE",
"230 450 OFFCURVE",
"209 450 CURVE SMOOTH",
"190 450 OFFCURVE",
"127 419 OFFCURVE",
"87 360 CURVE",
"70 326 OFFCURVE",
"54 269 OFFCURVE",
"54 195 CURVE SMOOTH",
"54 94 OFFCURVE",
"87 -10 OFFCURVE",
"216 -10 CURVE SMOOTH"
);
},
{
closed = 1;
nodes = (
"140 17 OFFCURVE",
"83 59 OFFCURVE",
"83 202 CURVE SMOOTH",
"83 306 OFFCURVE",
"109 380 OFFCURVE",
"195 419 CURVE SMOOTH",
"221 431 OFFCURVE",
"273 419 OFFCURVE",
"315 409 CURVE",
"315 98 LINE",
"279 68 OFFCURVE",
"220 17 OFFCURVE",
"209 17 CURVE SMOOTH"
);
}
);
width = 433;
}
);
leftKerningGroup = o;
rightKerningGroup = a;
unicode = 0061;
},
{
glyphname = ae;
lastChange = "2018-02-12 15:36:47 +0000";
layers = (
{
anchors = (
{
name = top;
position = "{370, 538}";
}
);
layerId = "4F39836F-1187-466E-8FAB-7EBF43C51BB4";
paths = (
{
closed = 1;
nodes = (
"190 450 OFFCURVE",
"127 417 OFFCURVE",
"87 360 CURVE",
"70 326 OFFCURVE",
"54 269 OFFCURVE",
"54 195 CURVE SMOOTH",
"54 94 OFFCURVE",
"87 -10 OFFCURVE",
"216 -10 CURVE SMOOTH",
"224 -10 OFFCURVE",
"293 50 OFFCURVE",
"331 81 CURVE",
"329 110 LINE",
"293 80 OFFCURVE",
"220 17 OFFCURVE",
"209 17 CURVE SMOOTH",
"140 17 OFFCURVE",
"83 59 OFFCURVE",
"83 202 CURVE SMOOTH",
"83 306 OFFCURVE",
"109 381 OFFCURVE",
"195 420 CURVE SMOOTH",
"221 432 OFFCURVE",
"266 420 OFFCURVE",
"374 397 CURVE",
"404 420 LINE",
"359 427 OFFCURVE",
"230 450 OFFCURVE",
"209 450 CURVE SMOOTH"
);
},
{
closed = 1;
nodes = (
"489 -10 OFFCURVE",
"543 1 OFFCURVE",
"580 8 CURVE",
"580 26 LINE",
"551 23 OFFCURVE",
"476 15 OFFCURVE",
"468 15 CURVE SMOOTH",
"385 15 OFFCURVE",
"330 61 OFFCURVE",
"330 213 CURVE",
"597 238 LINE",
"595 394 OFFCURVE",
"547 450 OFFCURVE",
"456 450 CURVE SMOOTH",
"437 450 OFFCURVE",
"372 417 OFFCURVE",
"333 360 CURVE",
"314 325 OFFCURVE",
"301 269 OFFCURVE",
"301 205 CURVE SMOOTH",
"301 69 OFFCURVE",
"350 -10 OFFCURVE",
"460 -10 CURVE SMOOTH"
);
},
{
closed = 1;
nodes = (
"335 323 OFFCURVE",
"360 363 OFFCURVE",
"395 392 CURVE SMOOTH",
"419 412 OFFCURVE",
"445 425 OFFCURVE",
"460 425 CURVE SMOOTH",
"536 425 OFFCURVE",
"564 358 OFFCURVE",
"567 260 CURVE",
"331 238 LINE"
);
}
);
width = 631;
},
{
anchors = (
{
name = top;
position = "{367, 538}";
}
);
layerId = "555729A4-F539-4650-9C4F-3880CB033E7B";
paths = (
{
closed = 1;
nodes = (
"183 457 OFFCURVE",
"83 388 OFFCURVE",
"62 358 CURVE",
"48 330 OFFCURVE",
"38 273 OFFCURVE",
"38 209 CURVE SMOOTH",
"38 57 OFFCURVE",
"115 -9 OFFCURVE",
"194 -9 CURVE SMOOTH",
"201 -9 OFFCURVE",
"284 55 OFFCURVE",
"319 81 CURVE",
"312 116 LINE",
"312 116 OFFCURVE",
"210 65 OFFCURVE",
"200 65 CURVE SMOOTH",
"180 65 OFFCURVE",
"134 104 OFFCURVE",
"134 216 CURVE SMOOTH",
"134 357 OFFCURVE",
"149 400 OFFCURVE",
"172 404 CURVE SMOOTH",
"191 407 OFFCURVE",
"287 381 OFFCURVE",
"319 371 CURVE",
"405 429 LINE",
"376 434 OFFCURVE",
"224 457 OFFCURVE",
"207 457 CURVE SMOOTH"
);
},
{
closed = 1;
nodes = (
"462 -9 OFFCURVE",
"547 11 OFFCURVE",
"595 26 CURVE",
"595 67 LINE",
"556 66 OFFCURVE",
"477 62 OFFCURVE",
"466 62 CURVE SMOOTH",
"438 62 OFFCURVE",
"373 89 OFFCURVE",
"373 221 CURVE",
"609 241 LINE",
"609 427 OFFCURVE",
"549 461 OFFCURVE",
"451 461 CURVE SMOOTH",
"425 461 OFFCURVE",
"322 390 OFFCURVE",
"301 358 CURVE",
"287 332 OFFCURVE",
"277 271 OFFCURVE",
"277 203 CURVE SMOOTH",
"277 56 OFFCURVE",
"361 -9 OFFCURVE",
"443 -9 CURVE SMOOTH"
);
},
{
closed = 1;
nodes = (
"375 321 OFFCURVE",
"387 391 OFFCURVE",
"405 399 CURVE SMOOTH",
"419 405 OFFCURVE",
"432 406 OFFCURVE",
"443 406 CURVE SMOOTH",
"494 406 OFFCURVE",
"512 356 OFFCURVE",
"512 280 CURVE",
"375 262 LINE"
);
}
);
width = 644;
},
{
anchors = (
{
name = top;
position = "{379, 462}";
}
);
layerId = "CB0A0A08-290D-4820-BDFF-3CAB47D8DECF";
paths = (
{
closed = 1;
nodes = (
"210 476 OFFCURVE",
"75 395 OFFCURVE",
"47 364 CURVE",
"34 331 OFFCURVE",
"20 266 OFFCURVE",
"20 205 CURVE SMOOTH",
"20 75 OFFCURVE",
"82 -13 OFFCURVE",
"201 -13 CURVE SMOOTH",
"206 -13 OFFCURVE",
"297 53 OFFCURVE",
"321 72 CURVE",
"314 144 LINE",
"314 144 OFFCURVE",
"244 103 OFFCURVE",
"238 103 CURVE SMOOTH",
"215 103 OFFCURVE",
"205 163 OFFCURVE",
"205 220 CURVE SMOOTH",
"205 326 OFFCURVE",
"212 389 OFFCURVE",
"226 399 CURVE SMOOTH",
"234 405 OFFCURVE",
"289 364 OFFCURVE",
"306 349 CURVE",
"455 443 LINE",
"455 443 OFFCURVE",
"258 476 OFFCURVE",
"242 476 CURVE SMOOTH"
);
},
{
closed = 1;
nodes = (
"513 -14 OFFCURVE",
"646 32 OFFCURVE",
"677 44 CURVE",
"677 114 LINE",
"639 112 OFFCURVE",
"517 106 OFFCURVE",
"517 106 CURVE",
"478 106 OFFCURVE",
"459 154 OFFCURVE",
"459 201 CURVE",
"694 221 LINE",
"694 416 OFFCURVE",
"626 476 OFFCURVE",
"504 476 CURVE SMOOTH",
"472 476 OFFCURVE",
"337 395 OFFCURVE",
"309 364 CURVE",
"296 331 OFFCURVE",
"282 265 OFFCURVE",
"282 204 CURVE SMOOTH",
"282 74 OFFCURVE",
"353 -14 OFFCURVE",
"489 -14 CURVE SMOOTH"
);
},
{
closed = 1;
nodes = (
"462 352 OFFCURVE",
"474 402 OFFCURVE",
"481 402 CURVE SMOOTH",
"483 402 OFFCURVE",
"502 400 OFFCURVE",
"508 397 CURVE SMOOTH",
"522 388 OFFCURVE",
"532 342 OFFCURVE",
"532 288 CURVE",
"458 277 LINE"
);
}
);
width = 709;
}
);
leftKerningGroup = a;
rightKerningGroup = e;
unicode = 00E6;
},
{
glyphname = b;
lastChange = "2018-02-12 15:36:47 +0000";
layers = (
{
background = {
paths = (
{
closed = 1;
nodes = (
"246 457 OFFCURVE",
"190 412 OFFCURVE",
"156 388 CURVE",
"151 389 LINE",
"156 613 LINE SMOOTH",
"156 620 OFFCURVE",
"127 646 OFFCURVE",
"121 646 CURVE SMOOTH",
"114 646 OFFCURVE",
"52 635 OFFCURVE",
"30 630 CURVE",
"30 593 LINE",
"65 579 LINE",
"65 12 LINE",
"102 5 OFFCURVE",
"226 -9 OFFCURVE",
"240 -9 CURVE SMOOTH",
"264 -9 OFFCURVE",
"364 60 OFFCURVE",
"385 90 CURVE",
"399 118 OFFCURVE",
"409 175 OFFCURVE",
"409 245 CURVE SMOOTH",
"409 392 OFFCURVE",
"330 457 OFFCURVE",
"253 457 CURVE SMOOTH"
);
},
{
closed = 1;
nodes = (
"185 358 OFFCURVE",
"240 383 OFFCURVE",
"247 383 CURVE SMOOTH",
"267 383 OFFCURVE",
"313 342 OFFCURVE",
"313 232 CURVE SMOOTH",
"313 91 OFFCURVE",
"298 48 OFFCURVE",
"275 44 CURVE SMOOTH",
"256 41 OFFCURVE",
"188 58 OFFCURVE",
"156 68 CURVE",
"156 343 LINE"
);
}
);
};
layerId = "555729A4-F539-4650-9C4F-3880CB033E7B";
paths = (
{
closed = 1;
nodes = (
"246 457 OFFCURVE",
"190 412 OFFCURVE",
"156 388 CURVE",
"151 389 LINE",
"156 613 LINE SMOOTH",
"156 620 OFFCURVE",
"127 646 OFFCURVE",
"121 646 CURVE SMOOTH",
"114 646 OFFCURVE",
"52 635 OFFCURVE",
"30 630 CURVE",
"30 593 LINE",
"65 579 LINE",
"65 12 LINE",
"102 5 OFFCURVE",
"226 -9 OFFCURVE",
"240 -9 CURVE SMOOTH",
"264 -9 OFFCURVE",
"364 60 OFFCURVE",
"385 90 CURVE",
"399 118 OFFCURVE",
"409 175 OFFCURVE",
"409 245 CURVE SMOOTH",
"409 392 OFFCURVE",
"330 457 OFFCURVE",
"253 457 CURVE SMOOTH"
);
},
{
closed = 1;
nodes = (
"267 383 OFFCURVE",
"313 342 OFFCURVE",
"313 232 CURVE SMOOTH",
"313 91 OFFCURVE",
"298 53 OFFCURVE",
"275 49 CURVE SMOOTH",
"256 46 OFFCURVE",
"188 58 OFFCURVE",
"156 68 CURVE",
"156 343 LINE",
"185 358 OFFCURVE",
"240 383 OFFCURVE",
"247 383 CURVE SMOOTH"
);
}
);
width = 447;
},
{
layerId = "CB0A0A08-290D-4820-BDFF-3CAB47D8DECF";
paths = (
{
closed = 1;
nodes = (
"289 476 OFFCURVE",
"237 436 OFFCURVE",
"211 416 CURVE",
"204 418 LINE",
"213 621 LINE SMOOTH",
"213 629 OFFCURVE",
"180 664 OFFCURVE",
"173 664 CURVE SMOOTH",
"156 664 OFFCURVE",
"31 647 OFFCURVE",
"-4 641 CURVE",
"-4 572 LINE",
"40 557 LINE",
"40 28 LINE",
"86 18 OFFCURVE",
"240 -13 OFFCURVE",
"253 -13 CURVE SMOOTH",
"285 -13 OFFCURVE",
"420 68 OFFCURVE",
"448 99 CURVE",
"461 130 OFFCURVE",
"475 192 OFFCURVE",
"475 249 CURVE SMOOTH",
"475 385 OFFCURVE",
"413 476 OFFCURVE",
"294 476 CURVE SMOOTH"
);
},
{
closed = 1;
nodes = (
"280 360 OFFCURVE",
"290 296 OFFCURVE",
"290 234 CURVE SMOOTH",
"290 134 OFFCURVE",
"282 76 OFFCURVE",
"270 65 CURVE SMOOTH",
"262 57 OFFCURVE",
"233 82 OFFCURVE",
"213 100 CURVE",
"213 339 LINE",
"213 339 OFFCURVE",
"251 360 OFFCURVE",
"257 360 CURVE SMOOTH"
);
}
);
width = 495;
},
{
background = {
paths = (
{
closed = 1;
nodes = (
"210 450 OFFCURVE",
"158 405 OFFCURVE",
"120 374 CURVE",
"118 375 LINE",
"119 619 LINE SMOOTH",
"119 623 OFFCURVE",
"102 636 OFFCURVE",
"99 636 CURVE SMOOTH",
"91 636 OFFCURVE",
"49 628 OFFCURVE",
"32 624 CURVE",
"32 607 LINE",
"90 607 LINE",
"90 8 LINE",
"133 1 OFFCURVE",
"204 -10 OFFCURVE",
"225 -10 CURVE SMOOTH",
"244 -10 OFFCURVE",
"307 23 OFFCURVE",
"347 80 CURVE",
"364 114 OFFCURVE",
"380 171 OFFCURVE",
"380 245 CURVE SMOOTH",
"380 346 OFFCURVE",
"347 450 OFFCURVE",
"218 450 CURVE SMOOTH"
);
},
{
closed = 1;
nodes = (
"155 372 OFFCURVE",
"214 423 OFFCURVE",
"225 423 CURVE SMOOTH",
"294 423 OFFCURVE",
"351 381 OFFCURVE",
"351 238 CURVE SMOOTH",
"351 134 OFFCURVE",
"325 60 OFFCURVE",
"239 20 CURVE SMOOTH",
"213 8 OFFCURVE",
"154 23 OFFCURVE",
"119 31 CURVE",
"119 342 LINE"
);
}
);
};
layerId = "4F39836F-1187-466E-8FAB-7EBF43C51BB4";
paths = (
{
closed = 1;
nodes = (
"210 450 OFFCURVE",
"158 405 OFFCURVE",
"120 374 CURVE",
"118 375 LINE",
"119 619 LINE SMOOTH",
"119 623 OFFCURVE",
"102 636 OFFCURVE",
"99 636 CURVE SMOOTH",
"91 636 OFFCURVE",
"49 628 OFFCURVE",
"32 624 CURVE",
"32 607 LINE",
"90 607 LINE",
"90 8 LINE",
"133 1 OFFCURVE",
"204 -10 OFFCURVE",
"225 -10 CURVE SMOOTH",
"244 -10 OFFCURVE",
"307 21 OFFCURVE",
"347 80 CURVE",
"364 114 OFFCURVE",
"380 171 OFFCURVE",
"380 245 CURVE SMOOTH",
"380 346 OFFCURVE",
"347 450 OFFCURVE",
"218 450 CURVE SMOOTH"
);
},
{
closed = 1;
nodes = (
"294 423 OFFCURVE",
"351 381 OFFCURVE",
"351 238 CURVE SMOOTH",
"351 134 OFFCURVE",
"325 61 OFFCURVE",
"239 21 CURVE SMOOTH",
"213 9 OFFCURVE",
"154 23 OFFCURVE",
"119 31 CURVE",
"119 342 LINE",
"155 372 OFFCURVE",
"214 423 OFFCURVE",
"225 423 CURVE SMOOTH"
);
}
);
width = 435;
}
);
leftKerningGroup = b;
rightKerningGroup = o;
unicode = 0062;
},
{
glyphname = c;
lastChange = "2018-02-12 15:36:47 +0000";
layers = (
{
anchors = (
{
name = bottom;
position = "{188, 0}";
},
{
name = top;
position = "{187, 448}";
}
);
background = {
paths = (
{
closed = 1;
nodes = (
"196 -9 OFFCURVE",
"269 7 OFFCURVE",
"317 22 CURVE",
"317 64 LINE",
"204 64 LINE SMOOTH",
"183 64 OFFCURVE",
"134 104 OFFCURVE",
"134 216 CURVE SMOOTH",
"134 304 OFFCURVE",
"144 381 OFFCURVE",
"163 396 CURVE SMOOTH",
"167 399 OFFCURVE",
"172 400 OFFCURVE",
"177 400 CURVE SMOOTH",
"197 400 OFFCURVE",
"225 386 OFFCURVE",
"239 379 CURVE",
"253 310 LINE",
"314 310 LINE",
"317 438 LINE",
"281 449 OFFCURVE",
"238 457 OFFCURVE",
"207 457 CURVE SMOOTH",
"183 457 OFFCURVE",
"83 390 OFFCURVE",
"62 358 CURVE",
"48 332 OFFCURVE",
"38 269 OFFCURVE",
"38 203 CURVE SMOOTH",
"38 56 OFFCURVE",
"112 -9 OFFCURVE",
"181 -9 CURVE SMOOTH"
);
}
);
};
layerId = "555729A4-F539-4650-9C4F-3880CB033E7B";
paths = (
{
closed = 1;
nodes = (
"196 -9 OFFCURVE",
"269 7 OFFCURVE",
"317 22 CURVE",
"317 64 LINE",
"204 64 LINE SMOOTH",
"178 64 OFFCURVE",
"134 104 OFFCURVE",
"134 216 CURVE SMOOTH",
"134 304 OFFCURVE",
"144 376 OFFCURVE",
"163 391 CURVE SMOOTH",
"167 394 OFFCURVE",
"172 395 OFFCURVE",
"177 395 CURVE SMOOTH",
"197 395 OFFCURVE",
"225 386 OFFCURVE",
"239 379 CURVE",
"253 310 LINE",
"314 310 LINE",
"317 438 LINE",
"281 449 OFFCURVE",
"238 457 OFFCURVE",
"207 457 CURVE SMOOTH",
"183 457 OFFCURVE",
"83 390 OFFCURVE",
"62 358 CURVE",
"48 332 OFFCURVE",
"38 269 OFFCURVE",
"38 203 CURVE SMOOTH",
"38 56 OFFCURVE",
"112 -9 OFFCURVE",
"181 -9 CURVE SMOOTH"
);
}
);
width = 344;
},
{
anchors = (
{
name = bottom;
position = "{208, 0}";
},
{
name = top;
position = "{214, 462}";
}
);
background = {
paths = (
{
closed = 1;
nodes = (
"252 -13 OFFCURVE",
"351 30 OFFCURVE",
"380 41 CURVE",
"380 111 LINE",
"264 111 LINE SMOOTH",
"221 111 OFFCURVE",
"201 165 OFFCURVE",
"201 220 CURVE SMOOTH",
"201 301 OFFCURVE",
"209 391 OFFCURVE",
"220 391 CURVE SMOOTH",
"229 391 OFFCURVE",
"260 377 OFFCURVE",
"266 375 CURVE",
"284 291 LINE",
"377 291 LINE",
"380 452 LINE",
"336 467 OFFCURVE",
"276 476 OFFCURVE",
"238 476 CURVE SMOOTH",
"207 476 OFFCURVE",
"74 396 OFFCURVE",
"47 365 CURVE",
"34 332 OFFCURVE",
"20 266 OFFCURVE",
"20 205 CURVE SMOOTH",
"20 75 OFFCURVE",
"84 -13 OFFCURVE",
"207 -13 CURVE SMOOTH"
);
}
);
};
layerId = "CB0A0A08-290D-4820-BDFF-3CAB47D8DECF";
paths = (
{
closed = 1;
nodes = (
"252 -13 OFFCURVE",
"351 30 OFFCURVE",
"380 41 CURVE",
"380 111 LINE",
"266 111 LINE SMOOTH",
"214 111 OFFCURVE",
"201 170 OFFCURVE",
"201 235 CURVE SMOOTH",
"201 316 OFFCURVE",
"208 376 OFFCURVE",
"220 386 CURVE SMOOTH",
"223 389 OFFCURVE",
"227 390 OFFCURVE",
"231 390 CURVE SMOOTH",
"241 390 OFFCURVE",
"253 383 OFFCURVE",
"266 375 CURVE",
"284 291 LINE",
"377 291 LINE",
"380 452 LINE",
"336 467 OFFCURVE",
"276 476 OFFCURVE",
"238 476 CURVE SMOOTH",
"207 476 OFFCURVE",
"74 391 OFFCURVE",
"47 360 CURVE",
"34 327 OFFCURVE",
"20 266 OFFCURVE",
"20 205 CURVE SMOOTH",
"20 75 OFFCURVE",
"84 -13 OFFCURVE",
"207 -13 CURVE SMOOTH"
);
}
);
width = 399;
},
{
anchors = (
{
name = bottom;
position = "{188, 0}";
},
{
name = top;
position = "{198, 440}";
}
);
background = {
paths = (
{
closed = 1;
nodes = (
"225 -10 OFFCURVE",
"280 -2 OFFCURVE",
"296 1 CURVE",
"296 18 LINE",
"221 15 LINE",
"138 15 OFFCURVE",
"83 59 OFFCURVE",
"83 202 CURVE SMOOTH",
"83 323 OFFCURVE",
"113 363 OFFCURVE",
"148 392 CURVE SMOOTH",
"172 412 OFFCURVE",
"198 425 OFFCURVE",
"213 425 CURVE SMOOTH",
"226 425 OFFCURVE",
"247 422 OFFCURVE",
"266 418 CURVE",
"273 332 LINE",
"292 332 LINE",
"294 440 LINE",
"266 445 OFFCURVE",
"222 450 OFFCURVE",
"209 450 CURVE SMOOTH",
"190 450 OFFCURVE",
"125 417 OFFCURVE",
"86 360 CURVE",
"67 325 OFFCURVE",
"54 269 OFFCURVE",
"54 195 CURVE SMOOTH",
"54 65 OFFCURVE",
"109 -10 OFFCURVE",
"213 -10 CURVE SMOOTH"
);
}
);
};
layerId = "4F39836F-1187-466E-8FAB-7EBF43C51BB4";
paths = (
{
closed = 1;
nodes = (
"225 -10 OFFCURVE",
"280 -2 OFFCURVE",
"296 1 CURVE",
"296 18 LINE",
"221 15 LINE",
"138 15 OFFCURVE",
"83 59 OFFCURVE",
"83 202 CURVE SMOOTH",
"83 323 OFFCURVE",
"114 363 OFFCURVE",
"149 392 CURVE SMOOTH",
"173 412 OFFCURVE",
"198 425 OFFCURVE",
"213 425 CURVE SMOOTH",
"226 425 OFFCURVE",
"247 422 OFFCURVE",
"266 418 CURVE",
"273 332 LINE",
"292 332 LINE",
"294 440 LINE",
"266 445 OFFCURVE",
"222 450 OFFCURVE",
"209 450 CURVE SMOOTH",
"190 450 OFFCURVE",
"125 419 OFFCURVE",
"86 360 CURVE",
"67 325 OFFCURVE",
"54 269 OFFCURVE",
"54 195 CURVE SMOOTH",
"54 65 OFFCURVE",
"109 -10 OFFCURVE",
"213 -10 CURVE SMOOTH"
);
}
);
width = 322;
}
);
leftKerningGroup = o;
rightKerningGroup = c;
unicode = 0063;
},
{
glyphname = d;
lastChange = "2018-02-12 15:36:47 +0000";
layers = (
{
background = {
paths = (
{
closed = 1;
nodes = (
"38 56 OFFCURVE",
"118 -9 OFFCURVE",
"194 -9 CURVE SMOOTH",
"201 -9 OFFCURVE",
"259 37 OFFCURVE",
"294 63 CURVE",
"294 24 LINE SMOOTH",
"294 17 OFFCURVE",
"323 -9 OFFCURVE",
"328 -9 CURVE SMOOTH",
"337 -9 OFFCURVE",
"416 7 OFFCURVE",
"416 7 CURVE",
"416 44 LINE",
"382 58 LINE",
"382 427 LINE",
"387 613 LINE SMOOTH",
"387 620 OFFCURVE",
"358 646 OFFCURVE",
"352 646 CURVE SMOOTH",
"344 646 OFFCURVE",
"261 630 OFFCURVE",
"261 630 CURVE",
"261 593 LINE",
"296 579 LINE",
"296 446 LINE",
"256 452 OFFCURVE",
"220 457 OFFCURVE",
"207 457 CURVE SMOOTH",
"183 457 OFFCURVE",
"83 388 OFFCURVE",
"62 358 CURVE",
"48 330 OFFCURVE",
"38 273 OFFCURVE",
"38 203 CURVE SMOOTH"
);
},
{
closed = 1;
nodes = (
"134 357 OFFCURVE",
"149 400 OFFCURVE",
"172 404 CURVE SMOOTH",
"191 407 OFFCURVE",
"259 390 OFFCURVE",
"291 380 CURVE",
"291 105 LINE",
"291 105 OFFCURVE",
"210 65 OFFCURVE",
"200 65 CURVE SMOOTH",
"180 65 OFFCURVE",
"134 104 OFFCURVE",
"134 216 CURVE SMOOTH"
);
}
);
};
layerId = "555729A4-F539-4650-9C4F-3880CB033E7B";
paths = (
{
closed = 1;
nodes = (
"183 457 OFFCURVE",
"83 388 OFFCURVE",
"62 358 CURVE",
"48 330 OFFCURVE",
"38 273 OFFCURVE",
"38 203 CURVE SMOOTH",
"38 56 OFFCURVE",
"118 -9 OFFCURVE",
"194 -9 CURVE SMOOTH",
"201 -9 OFFCURVE",
"259 37 OFFCURVE",
"294 63 CURVE",
"294 24 LINE SMOOTH",
"294 17 OFFCURVE",
"323 -9 OFFCURVE",
"328 -9 CURVE SMOOTH",
"337 -9 OFFCURVE",
"416 7 OFFCURVE",
"416 7 CURVE",
"416 44 LINE",
"382 58 LINE",
"382 427 LINE",
"387 613 LINE SMOOTH",
"387 620 OFFCURVE",
"358 646 OFFCURVE",
"352 646 CURVE SMOOTH",
"344 646 OFFCURVE",
"261 630 OFFCURVE",
"261 630 CURVE",
"261 593 LINE",
"296 579 LINE",
"296 446 LINE",
"256 452 OFFCURVE",
"220 457 OFFCURVE",
"207 457 CURVE SMOOTH"
);
},
{
closed = 1;
nodes = (
"191 402 OFFCURVE",
"256 390 OFFCURVE",
"291 380 CURVE",
"291 105 LINE",
"291 105 OFFCURVE",
"210 65 OFFCURVE",
"200 65 CURVE SMOOTH",
"180 65 OFFCURVE",
"134 104 OFFCURVE",
"134 216 CURVE SMOOTH",
"134 357 OFFCURVE",
"149 395 OFFCURVE",
"172 399 CURVE SMOOTH"
);
}
);
width = 448;
},
{
background = {
paths = (
{
closed = 1;
nodes = (
"20 75 OFFCURVE",
"82 -13 OFFCURVE",
"201 -13 CURVE SMOOTH",
"206 -13 OFFCURVE",
"265 32 OFFCURVE",
"289 51 CURVE",
"289 30 LINE SMOOTH",
"289 22 OFFCURVE",
"322 -13 OFFCURVE",
"329 -13 CURVE SMOOTH",
"347 -13 OFFCURVE",
"499 10 OFFCURVE",
"499 10 CURVE",
"499 79 LINE",
"455 94 LINE",
"455 440 LINE",
"462 622 LINE SMOOTH",
"462 630 OFFCURVE",
"429 665 OFFCURVE",
"422 665 CURVE SMOOTH",
"403 665 OFFCURVE",
"238 642 OFFCURVE",
"238 642 CURVE",
"238 573 LINE",
"282 558 LINE",
"282 472 LINE",
"261 475 OFFCURVE",
"246 477 OFFCURVE",
"242 477 CURVE SMOOTH",
"210 477 OFFCURVE",
"75 396 OFFCURVE",
"47 365 CURVE",
"34 332 OFFCURVE",
"20 266 OFFCURVE",
"20 205 CURVE SMOOTH"
);
},
{
closed = 1;
nodes = (
"205 326 OFFCURVE",
"218 403 OFFCURVE",
"227 403 CURVE SMOOTH",
"236 403 OFFCURVE",
"282 364 OFFCURVE",
"282 364 CURVE",
"282 124 LINE",
"282 124 OFFCURVE",
"244 103 OFFCURVE",
"238 103 CURVE SMOOTH",
"215 103 OFFCURVE",
"205 163 OFFCURVE",
"205 220 CURVE SMOOTH"
);
}
);
};
layerId = "CB0A0A08-290D-4820-BDFF-3CAB47D8DECF";
paths = (
{
closed = 1;
nodes = (
"210 477 OFFCURVE",
"75 396 OFFCURVE",
"47 365 CURVE",
"34 332 OFFCURVE",
"20 266 OFFCURVE",
"20 205 CURVE SMOOTH",
"20 75 OFFCURVE",
"82 -13 OFFCURVE",
"201 -13 CURVE SMOOTH",
"206 -13 OFFCURVE",
"265 32 OFFCURVE",
"289 51 CURVE",
"289 30 LINE SMOOTH",
"289 22 OFFCURVE",
"322 -13 OFFCURVE",
"329 -13 CURVE SMOOTH",
"347 -13 OFFCURVE",
"499 10 OFFCURVE",
"499 10 CURVE",
"499 79 LINE",
"455 94 LINE",
"455 440 LINE",
"462 622 LINE SMOOTH",
"462 630 OFFCURVE",
"429 665 OFFCURVE",
"422 665 CURVE SMOOTH",
"403 665 OFFCURVE",
"238 642 OFFCURVE",
"238 642 CURVE",
"238 573 LINE",
"282 558 LINE",
"282 472 LINE",
"261 475 OFFCURVE",
"246 477 OFFCURVE",
"242 477 CURVE SMOOTH"
);
},
{
closed = 1;
nodes = (
"235 406 OFFCURVE",
"273 372 OFFCURVE",
"282 363 CURVE",
"282 124 LINE",
"282 124 OFFCURVE",
"244 103 OFFCURVE",
"238 103 CURVE SMOOTH",
"215 103 OFFCURVE",
"205 163 OFFCURVE",
"205 220 CURVE SMOOTH",
"205 326 OFFCURVE",
"212 389 OFFCURVE",
"226 399 CURVE SMOOTH"
);
}
);
width = 505;
},
{
background = {
paths = (
{
closed = 1;
nodes = (
"54 94 OFFCURVE",
"87 -10 OFFCURVE",
"216 -10 CURVE SMOOTH",
"223 -10 OFFCURVE",
"277 36 OFFCURVE",
"315 67 CURVE",
"315 7 LINE SMOOTH",
"315 3 OFFCURVE",
"332 -10 OFFCURVE",
"335 -10 CURVE SMOOTH",
"343 -10 OFFCURVE",
"402 2 OFFCURVE",
"402 2 CURVE",
"402 19 LINE",
"344 19 LINE",
"344 430 LINE",
"347 620 LINE SMOOTH",
"347 624 OFFCURVE",
"330 637 OFFCURVE",
"327 637 CURVE SMOOTH",
"318 637 OFFCURVE",
"257 625 OFFCURVE",
"257 625 CURVE",
"257 608 LINE",
"315 608 LINE",
"315 437 LINE",
"277 442 OFFCURVE",
"227 450 OFFCURVE",
"209 450 CURVE SMOOTH",
"190 450 OFFCURVE",
"127 417 OFFCURVE",
"87 360 CURVE",
"70 326 OFFCURVE",
"54 269 OFFCURVE",
"54 195 CURVE SMOOTH"
);
},
{
closed = 1;
nodes = (
"83 306 OFFCURVE",
"109 381 OFFCURVE",
"195 420 CURVE SMOOTH",
"221 432 OFFCURVE",
"273 419 OFFCURVE",
"315 408 CURVE",
"315 98 LINE",
"278 66 OFFCURVE",
"219 17 OFFCURVE",
"209 17 CURVE SMOOTH",
"140 17 OFFCURVE",
"83 59 OFFCURVE",
"83 202 CURVE SMOOTH"
);
}
);
};
layerId = "4F39836F-1187-466E-8FAB-7EBF43C51BB4";
paths = (
{
closed = 1;
nodes = (
"190 450 OFFCURVE",
"127 419 OFFCURVE",
"87 360 CURVE",
"70 326 OFFCURVE",
"54 269 OFFCURVE",
"54 195 CURVE SMOOTH",
"54 94 OFFCURVE",
"87 -10 OFFCURVE",
"216 -10 CURVE SMOOTH",
"223 -10 OFFCURVE",
"277 36 OFFCURVE",
"315 67 CURVE",
"315 7 LINE SMOOTH",
"315 3 OFFCURVE",
"332 -10 OFFCURVE",
"335 -10 CURVE SMOOTH",
"343 -10 OFFCURVE",
"402 2 OFFCURVE",
"402 2 CURVE",
"402 19 LINE",
"344 19 LINE",
"344 430 LINE",
"347 620 LINE SMOOTH",
"347 624 OFFCURVE",
"330 637 OFFCURVE",
"327 637 CURVE SMOOTH",
"318 637 OFFCURVE",
"257 625 OFFCURVE",
"257 625 CURVE",
"257 608 LINE",
"315 608 LINE",
"315 437 LINE",
"277 442 OFFCURVE",
"227 450 OFFCURVE",
"209 450 CURVE SMOOTH"
);
},
{
closed = 1;
nodes = (
"221 431 OFFCURVE",
"273 419 OFFCURVE",
"315 408 CURVE",
"315 98 LINE",
"278 66 OFFCURVE",
"219 17 OFFCURVE",
"209 17 CURVE SMOOTH",
"140 17 OFFCURVE",
"83 59 OFFCURVE",
"83 202 CURVE SMOOTH",
"83 306 OFFCURVE",
"109 380 OFFCURVE",
"195 419 CURVE SMOOTH"
);
}
);
width = 416;
}
);
leftKerningGroup = o;
rightKerningGroup = d;
unicode = 0064;
},
{
glyphname = eth;
lastChange = "2018-02-12 15:36:47 +0000";
layers = (
{
layerId = "4F39836F-1187-466E-8FAB-7EBF43C51BB4";
paths = (
{
closed = 1;
nodes = (
"206 335 OFFCURVE",
"272 313 OFFCURVE",
"299 300 CURVE",
"301 317 LINE",
"265 338 OFFCURVE",
"204 359 OFFCURVE",
"193 359 CURVE SMOOTH",
"102 359 OFFCURVE",
"53 275 OFFCURVE",
"53 182 CURVE SMOOTH",
"53 133 OFFCURVE",
"60 95 OFFCURVE",
"79 55 CURVE",
"99 21 OFFCURVE",
"149 -9 OFFCURVE",
"161 -9 CURVE SMOOTH",
"282 -9 OFFCURVE",
"322 141 OFFCURVE",
"322 283 CURVE SMOOTH",
"322 476 OFFCURVE",
"276 596 OFFCURVE",
"99 597 CURVE",
"106 578 LINE",
"250 573 OFFCURVE",
"293 476 OFFCURVE",
"293 284 CURVE SMOOTH",
"293 166 OFFCURVE",
"268 15 OFFCURVE",
"168 15 CURVE SMOOTH",
"112 15 OFFCURVE",
"81 102 OFFCURVE",
"81 174 CURVE SMOOTH",
"81 251 OFFCURVE",
"110 335 OFFCURVE",
"188 335 CURVE SMOOTH"
);
},
{
closed = 1;
nodes = (
"361 555 LINE",
"365 562 LINE",
"354 575 LINE",
"135 466 LINE",
"131 458 LINE",
"146 447 LINE"
);
}
);
width = 393;
},
{
layerId = "555729A4-F539-4650-9C4F-3880CB033E7B";
paths = (
{
closed = 1;
nodes = (
"225 322 OFFCURVE",
"269 301 OFFCURVE",
"294 288 CURVE",
"295 333 LINE",
"266 349 OFFCURVE",
"207 380 OFFCURVE",
"197 380 CURVE SMOOTH",
"78 380 OFFCURVE",
"36 284 OFFCURVE",
"36 214 CURVE SMOOTH",
"36 171 OFFCURVE",
"41 118 OFFCURVE",
"50 89 CURVE",
"75 54 OFFCURVE",
"168 -9 OFFCURVE",
"191 -9 CURVE SMOOTH",
"286 -9 OFFCURVE",
"386 25 OFFCURVE",
"386 303 CURVE SMOOTH",
"386 497 OFFCURVE",
"304 611 OFFCURVE",
"120 611 CURVE",
"138 560 LINE",
"268 553 OFFCURVE",
"290 462 OFFCURVE",
"290 204 CURVE SMOOTH",
"290 59 OFFCURVE",
"236 40 OFFCURVE",
"163 40 CURVE SMOOTH",
"138 40 OFFCURVE",
"132 125 OFFCURVE",
"132 191 CURVE SMOOTH",
"132 277 OFFCURVE",
"167 322 OFFCURVE",
"206 322 CURVE SMOOTH"
);
},
{
closed = 1;
nodes = (
"404 554 LINE",
"409 568 LINE",
"362 601 LINE",
"134 490 LINE",
"129 476 LINE",
"176 443 LINE"
);
}
);
width = 431;
},
{
layerId = "CB0A0A08-290D-4820-BDFF-3CAB47D8DECF";
paths = (
{
closed = 1;
nodes = (
"263 302 OFFCURVE",
"314 278 OFFCURVE",
"336 262 CURVE",
"334 341 LINE",
"306 359 OFFCURVE",
"198 392 OFFCURVE",
"189 392 CURVE SMOOTH",
"85 392 OFFCURVE",
"18 304 OFFCURVE",
"18 199 CURVE SMOOTH",
"18 168 OFFCURVE",
"28 122 OFFCURVE",
"40 93 CURVE",
"59 64 OFFCURVE",
"203 -9 OFFCURVE",
"223 -9 CURVE SMOOTH",
"362 -9 OFFCURVE",
"471 104 OFFCURVE",
"471 305 CURVE SMOOTH",
"471 530 OFFCURVE",
"350 658 OFFCURVE",
"131 634 CURVE",
"153 560 LINE",
"284 557 OFFCURVE",
"295 430 OFFCURVE",
"295 247 CURVE SMOOTH",
"295 145 OFFCURVE",
"279 72 OFFCURVE",
"231 72 CURVE SMOOTH",
"210 72 OFFCURVE",
"193 161 OFFCURVE",
"193 207 CURVE SMOOTH",
"193 257 OFFCURVE",
"206 302 OFFCURVE",
"245 302 CURVE SMOOTH"
);
},
{
closed = 1;
nodes = (
"477 554 LINE",
"475 582 LINE",
"435 615 LINE",
"175 481 LINE",
"178 452 LINE",
"221 421 LINE"
);
}
);
width = 493;
}
);
unicode = 00F0;
},
{
glyphname = dcroat;
lastChange = "2018-02-21 15:19:54 +0000";
layers = (
{
components = (
{
name = d;
}
);
layerId = "4F39836F-1187-466E-8FAB-7EBF43C51BB4";
paths = (
{
closed = 1;
nodes = (
"213 510 LINE",
"418 510 LINE",
"418 530 LINE",
"213 530 LINE"
);
}
);
width = 428;
},
{
components = (
{
name = d;
}
);
layerId = "555729A4-F539-4650-9C4F-3880CB033E7B";
paths = (
{
closed = 1;
nodes = (
"173 491 LINE",
"428 491 LINE",
"429 540 LINE",
"173 540 LINE"
);
}
);
width = 446;
},
{
components = (
{
name = d;
}
);
layerId = "CB0A0A08-290D-4820-BDFF-3CAB47D8DECF";
paths = (
{
closed = 1;
nodes = (
"162 494 LINE",
"504 494 LINE",
"504 544 LINE",
"162 544 LINE"
);
}
);
width = 507;
}
);
leftKerningGroup = o;
rightKerningGroup = d;
unicode = 0111;
},
{
glyphname = e;
lastChange = "2018-02-12 15:36:47 +0000";
layers = (
{
anchors = (
{
name = bottom;
position = "{214, 0}";
},
{
name = ogonek;
position = "{327, 26}";
},
{
name = top;
position = "{210, 448}";
}
);
background = {
paths = (
{
closed = 1;
nodes = (
"223 -9 OFFCURVE",
"308 11 OFFCURVE",
"356 26 CURVE",
"356 67 LINE",
"317 66 OFFCURVE",
"238 62 OFFCURVE",
"227 62 CURVE SMOOTH",
"199 62 OFFCURVE",
"134 89 OFFCURVE",
"134 221 CURVE",
"370 241 LINE",
"370 427 OFFCURVE",
"310 461 OFFCURVE",
"212 461 CURVE SMOOTH",
"186 461 OFFCURVE",
"83 390 OFFCURVE",
"62 358 CURVE",
"48 332 OFFCURVE",
"38 271 OFFCURVE",
"38 203 CURVE SMOOTH",
"38 56 OFFCURVE",
"122 -9 OFFCURVE",
"204 -9 CURVE SMOOTH"
);
},
{
closed = 1;
nodes = (
"136 321 OFFCURVE",
"148 391 OFFCURVE",
"166 399 CURVE SMOOTH",
"180 405 OFFCURVE",
"193 406 OFFCURVE",
"204 406 CURVE SMOOTH",
"255 406 OFFCURVE",
"273 356 OFFCURVE",
"273 280 CURVE",
"136 262 LINE"
);
}
);
};
layerId = "555729A4-F539-4650-9C4F-3880CB033E7B";
paths = (
{
closed = 1;
nodes = (
"223 -9 OFFCURVE",
"308 11 OFFCURVE",
"356 26 CURVE",
"356 67 LINE",
"317 66 OFFCURVE",
"238 62 OFFCURVE",
"227 62 CURVE SMOOTH",
"199 62 OFFCURVE",
"134 89 OFFCURVE",
"134 221 CURVE",
"370 241 LINE",
"370 427 OFFCURVE",
"310 461 OFFCURVE",
"212 461 CURVE SMOOTH",
"186 461 OFFCURVE",
"83 390 OFFCURVE",
"62 358 CURVE",
"48 332 OFFCURVE",
"38 271 OFFCURVE",
"38 203 CURVE SMOOTH",
"38 56 OFFCURVE",
"122 -9 OFFCURVE",
"204 -9 CURVE SMOOTH"
);
},
{
closed = 1;
nodes = (
"136 321 OFFCURVE",
"148 386 OFFCURVE",
"166 394 CURVE SMOOTH",
"180 400 OFFCURVE",
"193 401 OFFCURVE",
"204 401 CURVE SMOOTH",
"255 401 OFFCURVE",
"273 356 OFFCURVE",
"273 280 CURVE",
"136 262 LINE"
);
}
);
width = 405;
},
{
anchors = (
{
name = bottom;
position = "{232, 0}";
},
{
name = ogonek;
position = "{365, 44}";
},
{
name = top;
position = "{234, 462}";
}
);
layerId = "CB0A0A08-290D-4820-BDFF-3CAB47D8DECF";
paths = (
{
closed = 1;
nodes = (
"251 -14 OFFCURVE",
"384 32 OFFCURVE",
"415 44 CURVE",
"415 114 LINE",
"377 112 OFFCURVE",
"255 106 OFFCURVE",
"255 106 CURVE",
"216 106 OFFCURVE",
"197 154 OFFCURVE",
"197 201 CURVE",
"432 221 LINE",
"432 416 OFFCURVE",
"364 476 OFFCURVE",
"242 476 CURVE SMOOTH",
"210 476 OFFCURVE",
"75 395 OFFCURVE",
"47 364 CURVE",
"34 331 OFFCURVE",
"20 265 OFFCURVE",
"20 204 CURVE SMOOTH",
"20 74 OFFCURVE",
"91 -14 OFFCURVE",
"227 -14 CURVE SMOOTH"
);
},
{
closed = 1;
nodes = (
"200 352 OFFCURVE",
"212 402 OFFCURVE",
"219 402 CURVE SMOOTH",
"221 402 OFFCURVE",
"240 400 OFFCURVE",
"246 397 CURVE SMOOTH",
"260 388 OFFCURVE",
"270 342 OFFCURVE",
"270 288 CURVE",
"196 277 LINE"
);
}
);
width = 447;
},
{
anchors = (
{
name = bottom;
position = "{204, 0}";
},
{
name = ogonek;
position = "{312, 8}";
},
{
name = top;
position = "{206, 440}";
}
);
background = {
paths = (
{
closed = 1;
nodes = (
"242 -10 OFFCURVE",
"296 1 OFFCURVE",
"333 8 CURVE",
"333 26 LINE",
"304 23 OFFCURVE",
"229 15 OFFCURVE",
"221 15 CURVE SMOOTH",
"138 15 OFFCURVE",
"83 61 OFFCURVE",
"83 213 CURVE",
"350 238 LINE",
"348 394 OFFCURVE",
"300 450 OFFCURVE",
"209 450 CURVE SMOOTH",
"190 450 OFFCURVE",
"125 417 OFFCURVE",
"86 360 CURVE",
"67 325 OFFCURVE",
"54 269 OFFCURVE",
"54 205 CURVE SMOOTH",
"54 69 OFFCURVE",
"103 -10 OFFCURVE",
"213 -10 CURVE SMOOTH"
);
},
{
closed = 1;
nodes = (
"88 323 OFFCURVE",
"113 363 OFFCURVE",
"148 392 CURVE SMOOTH",
"172 412 OFFCURVE",
"198 425 OFFCURVE",
"213 425 CURVE SMOOTH",
"289 425 OFFCURVE",
"317 358 OFFCURVE",
"320 260 CURVE",
"84 238 LINE"
);
}
);
};
layerId = "4F39836F-1187-466E-8FAB-7EBF43C51BB4";
paths = (
{
closed = 1;
nodes = (
"242 -10 OFFCURVE",
"296 1 OFFCURVE",
"333 8 CURVE",
"333 26 LINE",
"304 23 OFFCURVE",
"229 15 OFFCURVE",
"221 15 CURVE SMOOTH",
"138 15 OFFCURVE",
"83 61 OFFCURVE",
"83 213 CURVE",
"350 238 LINE",
"348 394 OFFCURVE",
"300 450 OFFCURVE",
"209 450 CURVE SMOOTH",
"190 450 OFFCURVE",
"125 419 OFFCURVE",
"86 360 CURVE",
"67 325 OFFCURVE",
"54 269 OFFCURVE",
"54 205 CURVE SMOOTH",
"54 69 OFFCURVE",
"103 -10 OFFCURVE",
"213 -10 CURVE SMOOTH"
);
},
{
closed = 1;
nodes = (
"88 323 OFFCURVE",
"113 362 OFFCURVE",
"148 391 CURVE SMOOTH",
"172 411 OFFCURVE",
"198 425 OFFCURVE",
"213 425 CURVE SMOOTH",
"289 425 OFFCURVE",
"317 358 OFFCURVE",
"320 260 CURVE",
"84 238 LINE"
);
}
);
width = 384;
}
);
leftKerningGroup = o;
rightKerningGroup = e;
unicode = 0065;
},
{
glyphname = schwa;
lastChange = "2018-02-12 15:36:47 +0000";
layers = (
{
layerId = "4F39836F-1187-466E-8FAB-7EBF43C51BB4";
paths = (
{
closed = 1;
nodes = (
"162 450 OFFCURVE",
"108 439 OFFCURVE",
"71 432 CURVE",
"71 414 LINE",
"100 417 OFFCURVE",
"175 425 OFFCURVE",
"183 425 CURVE SMOOTH",
"266 425 OFFCURVE",
"321 379 OFFCURVE",
"321 227 CURVE",
"54 202 LINE",
"56 46 OFFCURVE",
"104 -10 OFFCURVE",
"195 -10 CURVE SMOOTH",
"214 -10 OFFCURVE",
"279 23 OFFCURVE",
"318 80 CURVE",
"337 115 OFFCURVE",
"350 171 OFFCURVE",
"350 235 CURVE SMOOTH",
"350 371 OFFCURVE",
"301 450 OFFCURVE",
"191 450 CURVE SMOOTH"
);
},
{
closed = 1;
nodes = (
"316 117 OFFCURVE",
"291 77 OFFCURVE",
"256 48 CURVE SMOOTH",
"232 28 OFFCURVE",
"206 15 OFFCURVE",
"191 15 CURVE SMOOTH",
"115 15 OFFCURVE",
"87 82 OFFCURVE",
"84 180 CURVE",
"320 202 LINE"
);
}
);
width = 384;
},
{
layerId = "555729A4-F539-4650-9C4F-3880CB033E7B";
paths = (
{
closed = 1;
nodes = (
"184 461 OFFCURVE",
"99 441 OFFCURVE",
"51 426 CURVE",
"51 385 LINE",
"90 386 OFFCURVE",
"169 390 OFFCURVE",
"180 390 CURVE SMOOTH",
"208 390 OFFCURVE",
"273 363 OFFCURVE",
"273 231 CURVE",
"37 211 LINE",
"37 25 OFFCURVE",
"97 -9 OFFCURVE",
"195 -9 CURVE SMOOTH",
"221 -9 OFFCURVE",
"324 62 OFFCURVE",
"345 94 CURVE",
"359 120 OFFCURVE",
"369 181 OFFCURVE",
"369 249 CURVE SMOOTH",
"369 396 OFFCURVE",
"285 461 OFFCURVE",
"203 461 CURVE SMOOTH"
);
},
{
closed = 1;
nodes = (
"271 131 OFFCURVE",
"259 61 OFFCURVE",
"241 53 CURVE SMOOTH",
"227 47 OFFCURVE",
"214 46 OFFCURVE",
"203 46 CURVE SMOOTH",
"152 46 OFFCURVE",
"134 96 OFFCURVE",
"134 172 CURVE",
"271 190 LINE"
);
}
);
width = 407;
},
{
layerId = "CB0A0A08-290D-4820-BDFF-3CAB47D8DECF";
paths = (
{
closed = 1;
nodes = (
"201 476 OFFCURVE",
"68 430 OFFCURVE",
"37 418 CURVE",
"37 348 LINE",
"75 350 OFFCURVE",
"197 356 OFFCURVE",
"197 356 CURVE",
"236 356 OFFCURVE",
"255 308 OFFCURVE",
"255 261 CURVE",
"20 241 LINE",
"20 46 OFFCURVE",
"88 -14 OFFCURVE",
"210 -14 CURVE SMOOTH",
"242 -14 OFFCURVE",
"377 67 OFFCURVE",
"405 98 CURVE",
"418 131 OFFCURVE",
"432 197 OFFCURVE",
"432 258 CURVE SMOOTH",
"432 388 OFFCURVE",
"361 476 OFFCURVE",
"225 476 CURVE SMOOTH"
);
},
{
closed = 1;
nodes = (
"252 110 OFFCURVE",
"240 60 OFFCURVE",
"233 60 CURVE SMOOTH",
"231 60 OFFCURVE",
"212 62 OFFCURVE",
"206 65 CURVE SMOOTH",
"192 74 OFFCURVE",
"182 120 OFFCURVE",
"182 174 CURVE",
"256 185 LINE"
);
}
);
width = 447;
}
);
unicode = 0259;
},
{
glyphname = f;
lastChange = "2018-02-12 15:36:47 +0000";
layers = (
{
anchors = (
{
name = top;
position = "{162, 640}";
}
);
layerId = "555729A4-F539-4650-9C4F-3880CB033E7B";
paths = (
{
closed = 1;
nodes = (
"112 -9 OFFCURVE",
"211 7 OFFCURVE",
"211 7 CURVE",
"211 48 LINE",
"160 63 LINE",
"160 394 LINE",
"255 394 LINE",
"255 448 LINE",
"160 448 LINE",
"161 526 LINE SMOOTH",
"161 554 OFFCURVE",
"171 582 OFFCURVE",
"180 582 CURVE SMOOTH",
"196 582 OFFCURVE",
"262 566 OFFCURVE",
"284 560 CURVE",
"288 570 OFFCURVE",
"304 606 OFFCURVE",
"304 610 CURVE SMOOTH",
"304 617 OFFCURVE",
"291 634 OFFCURVE",
"282 640 CURVE",
"255 643 OFFCURVE",
"204 646 OFFCURVE",
"194 646 CURVE SMOOTH",
"163 646 OFFCURVE",
"69 532 OFFCURVE",
"69 491 CURVE SMOOTH",
"69 453 LINE",
"22 434 LINE",
"22 395 LINE",
"69 395 LINE",
"69 24 LINE SMOOTH",
"69 17 OFFCURVE",
"97 -9 OFFCURVE",
"103 -9 CURVE SMOOTH"
);
}
);
width = 261;
},
{
anchors = (
{
name = top;
position = "{203, 640}";
}
);
layerId = "CB0A0A08-290D-4820-BDFF-3CAB47D8DECF";
paths = (
{
closed = 1;
nodes = (
"123 -13 OFFCURVE",
"290 16 OFFCURVE",
"290 16 CURVE",
"290 76 LINE",
"226 100 LINE",
"226 375 LINE",
"335 375 LINE",
"335 462 LINE",
"226 462 LINE",
"226 528 LINE SMOOTH",
"226 557 OFFCURVE",
"233 569 OFFCURVE",
"238 569 CURVE SMOOTH",
"252 569 OFFCURVE",
"333 529 OFFCURVE",
"352 520 CURVE",
"355 520 OFFCURVE",
"389 602 OFFCURVE",
"389 609 CURVE SMOOTH",
"389 616 OFFCURVE",
"376 651 OFFCURVE",
"369 658 CURVE",
"326 661 OFFCURVE",
"234 665 OFFCURVE",
"220 665 CURVE SMOOTH",
"175 665 OFFCURVE",
"53 548 OFFCURVE",
"53 506 CURVE SMOOTH",
"53 467 LINE",
"-5 448 LINE",
"-5 376 LINE",
"53 376 LINE",
"53 31 LINE SMOOTH",
"53 24 OFFCURVE",
"98 -13 OFFCURVE",
"106 -13 CURVE SMOOTH"
);
}
);
width = 329;
},
{
anchors = (
{
name = top;
position = "{127, 611}";
}
);
layerId = "4F39836F-1187-466E-8FAB-7EBF43C51BB4";
paths = (
{
closed = 1;
nodes = (
"97 -10 OFFCURVE",
"155 2 OFFCURVE",
"155 2 CURVE",
"155 19 LINE",
"97 19 LINE",
"97 415 LINE",
"192 415 LINE",
"192 440 LINE",
"97 440 LINE",
"97 515 LINE SMOOTH",
"97 586 OFFCURVE",
"127 611 OFFCURVE",
"131 611 CURVE SMOOTH",
"155 611 OFFCURVE",
"235 600 OFFCURVE",
"235 600 CURVE",
"235 600 OFFCURVE",
"245 616 OFFCURVE",
"245 619 CURVE SMOOTH",
"245 623 OFFCURVE",
"235 631 OFFCURVE",
"235 631 CURVE",
"235 631 OFFCURVE",
"170 637 OFFCURVE",
"137 637 CURVE SMOOTH",
"98 637 OFFCURVE",
"68 580 OFFCURVE",
"68 513 CURVE SMOOTH",
"68 442 LINE",
"20 435 LINE",
"20 415 LINE",
"68 415 LINE",
"68 7 LINE SMOOTH",
"68 3 OFFCURVE",
"85 -10 OFFCURVE",
"88 -10 CURVE SMOOTH"
);
}
);
width = 190;
}
);
leftKerningGroup = f;
rightKerningGroup = f;
unicode = 0066;
},
{
glyphname = g;
lastChange = "2018-02-12 15:36:47 +0000";
layers = (
{
anchors = (
{
name = top;
position = "{220, 448}";
}
);
background = {
paths = (
{
closed = 1;
nodes = (
"271 -181 OFFCURVE",
"373 -87 OFFCURVE",
"373 -21 CURVE SMOOTH",
"373 434 LINE",
"348 438 OFFCURVE",
"224 457 OFFCURVE",
"208 457 CURVE SMOOTH",
"184 457 OFFCURVE",
"82 386 OFFCURVE",
"61 358 CURVE",
"47 326 OFFCURVE",
"40 267 OFFCURVE",
"40 229 CURVE SMOOTH",
"40 100 OFFCURVE",
"107 30 OFFCURVE",
"158 30 CURVE",
"34 -82 LINE",
"25 -155 LINE",
"64 -164 OFFCURVE",
"179 -181 OFFCURVE",
"230 -181 CURVE SMOOTH"
);
},
{
closed = 1;
nodes = (
"231 -135 OFFCURVE",
"124 -111 OFFCURVE",
"105 -103 CURVE",
"105 -97 LINE",
"135 -69 OFFCURVE",
"236 28 OFFCURVE",
"280 67 CURVE",
"285 65 LINE",
"285 15 LINE SMOOTH",
"285 -51 OFFCURVE",
"275 -135 OFFCURVE",
"260 -135 CURVE SMOOTH"
);
},
{
closed = 1;
nodes = (
"188 76 OFFCURVE",
"135 109 OFFCURVE",
"135 228 CURVE SMOOTH",
"135 328 OFFCURVE",
"147 393 OFFCURVE",
"175 403 CURVE SMOOTH",
"190 408 OFFCURVE",
"253 390 OFFCURVE",
"282 380 CURVE",
"282 120 LINE",
"282 120 OFFCURVE",
"219 76 OFFCURVE",
"209 76 CURVE SMOOTH"
);
}
);
};
layerId = "555729A4-F539-4650-9C4F-3880CB033E7B";
paths = (
{
closed = 1;
nodes = (
"271 -181 OFFCURVE",
"373 -87 OFFCURVE",
"373 -21 CURVE SMOOTH",
"373 434 LINE",
"348 438 OFFCURVE",
"224 457 OFFCURVE",
"208 457 CURVE SMOOTH",
"184 457 OFFCURVE",
"82 386 OFFCURVE",
"61 358 CURVE",
"47 326 OFFCURVE",
"40 267 OFFCURVE",
"40 229 CURVE SMOOTH",
"40 100 OFFCURVE",
"107 30 OFFCURVE",
"158 30 CURVE",
"34 -82 LINE",
"25 -155 LINE",
"64 -164 OFFCURVE",
"179 -181 OFFCURVE",
"230 -181 CURVE SMOOTH"
);
},
{
closed = 1;
nodes = (
"231 -135 OFFCURVE",
"124 -111 OFFCURVE",
"105 -103 CURVE",
"105 -97 LINE",
"135 -69 OFFCURVE",
"236 28 OFFCURVE",
"280 67 CURVE",
"285 65 LINE",
"285 15 LINE SMOOTH",
"285 -51 OFFCURVE",
"275 -135 OFFCURVE",
"260 -135 CURVE SMOOTH"
);
},
{
closed = 1;
nodes = (
"188 76 OFFCURVE",
"135 109 OFFCURVE",
"135 228 CURVE SMOOTH",
"135 328 OFFCURVE",
"147 388 OFFCURVE",
"175 398 CURVE SMOOTH",
"190 403 OFFCURVE",
"253 390 OFFCURVE",
"282 380 CURVE",
"282 120 LINE",
"282 120 OFFCURVE",
"219 76 OFFCURVE",
"209 76 CURVE SMOOTH"
);
}
);
width = 428;
},
{
anchors = (
{
name = top;
position = "{241, 462}";
}
);
background = {
paths = (
{
closed = 1;
nodes = (
"280 -186 OFFCURVE",
"434 -89 OFFCURVE",
"434 -22 CURVE SMOOTH",
"434 436 LINE",
"434 436 OFFCURVE",
"237 477 OFFCURVE",
"221 477 CURVE SMOOTH",
"193 477 OFFCURVE",
"72 396 OFFCURVE",
"46 365 CURVE",
"33 336 OFFCURVE",
"19 278 OFFCURVE",
"19 225 CURVE SMOOTH",
"19 133 OFFCURVE",
"61 66 OFFCURVE",
"141 44 CURVE",
"19 -65 LINE",
"10 -156 LINE",
"49 -167 OFFCURVE",
"166 -186 OFFCURVE",
"215 -186 CURVE SMOOTH"
);
},
{
closed = 1;
nodes = (
"229 -112 OFFCURVE",
"165 -92 OFFCURVE",
"154 -85 CURVE",
"154 -77 LINE",
"171 -58 OFFCURVE",
"236 11 OFFCURVE",
"265 42 CURVE",
"271 39 LINE",
"271 -6 LINE SMOOTH",
"271 -54 OFFCURVE",
"261 -112 OFFCURVE",
"245 -112 CURVE SMOOTH"
);
},
{
closed = 1;
nodes = (
"209 131 OFFCURVE",
"199 188 OFFCURVE",
"199 240 CURVE SMOOTH",
"199 334 OFFCURVE",
"212 403 OFFCURVE",
"221 403 CURVE SMOOTH",
"228 403 OFFCURVE",
"266 364 OFFCURVE",
"266 364 CURVE",
"266 154 LINE",
"266 154 OFFCURVE",
"238 131 OFFCURVE",
"232 131 CURVE SMOOTH"
);
}
);
};
layerId = "CB0A0A08-290D-4820-BDFF-3CAB47D8DECF";
paths = (
{
closed = 1;
nodes = (
"280 -186 OFFCURVE",
"434 -89 OFFCURVE",
"434 -22 CURVE SMOOTH",
"434 436 LINE",
"434 436 OFFCURVE",
"237 477 OFFCURVE",
"221 477 CURVE SMOOTH",
"193 477 OFFCURVE",
"72 396 OFFCURVE",
"46 365 CURVE",
"33 336 OFFCURVE",
"19 278 OFFCURVE",
"19 225 CURVE SMOOTH",
"19 133 OFFCURVE",
"61 66 OFFCURVE",
"141 44 CURVE",
"19 -65 LINE",
"10 -156 LINE",
"49 -167 OFFCURVE",
"166 -186 OFFCURVE",
"215 -186 CURVE SMOOTH"
);
},
{
closed = 1;
nodes = (
"229 -112 OFFCURVE",
"165 -92 OFFCURVE",
"154 -85 CURVE",
"154 -77 LINE",
"171 -58 OFFCURVE",
"236 11 OFFCURVE",
"265 42 CURVE",
"271 39 LINE",
"271 -6 LINE SMOOTH",
"271 -54 OFFCURVE",
"261 -112 OFFCURVE",
"245 -112 CURVE SMOOTH"
);
},
{
closed = 1;
nodes = (
"209 131 OFFCURVE",
"199 186 OFFCURVE",
"199 250 CURVE SMOOTH",
"199 339 OFFCURVE",
"207 393 OFFCURVE",
"221 401 CURVE SMOOTH",
"228 405 OFFCURVE",
"266 364 OFFCURVE",
"266 364 CURVE",
"266 154 LINE",
"266 154 OFFCURVE",
"238 131 OFFCURVE",
"232 131 CURVE SMOOTH"
);
}
);
width = 469;
},
{
anchors = (
{
name = top;
position = "{215, 440}";
}
);
background = {
paths = (
{
closed = 1;
nodes = (
"304 -175 OFFCURVE",
"331 -110 OFFCURVE",
"331 -52 CURVE SMOOTH",
"331 434 LINE",
"287 441 OFFCURVE",
"224 450 OFFCURVE",
"203 450 CURVE SMOOTH",
"182 450 OFFCURVE",
"121 420 OFFCURVE",
"83 361 CURVE",
"67 326 OFFCURVE",
"54 285 OFFCURVE",
"54 212 CURVE SMOOTH",
"54 120 OFFCURVE",
"86 33 OFFCURVE",
"191 26 CURVE",
"47 -110 LINE",
"44 -139 LINE",
"88 -152 OFFCURVE",
"181 -175 OFFCURVE",
"262 -175 CURVE SMOOTH"
);
},
{
closed = 1;
nodes = (
"189 -151 OFFCURVE",
"98 -129 OFFCURVE",
"74 -122 CURVE",
"74 -119 LINE",
"110 -83 OFFCURVE",
"247 46 OFFCURVE",
"300 95 CURVE",
"302 93 LINE",
"302 -46 LINE SMOOTH",
"302 -124 OFFCURVE",
"267 -151 OFFCURVE",
"265 -151 CURVE SMOOTH"
);
},
{
closed = 1;
nodes = (
"144 51 OFFCURVE",
"83 77 OFFCURVE",
"83 219 CURVE SMOOTH",
"83 367 OFFCURVE",
"149 404 OFFCURVE",
"185 419 CURVE SMOOTH",
"209 429 OFFCURVE",
"246 422 OFFCURVE",
"302 411 CURVE",
"302 130 LINE",
"302 130 OFFCURVE",
"218 51 OFFCURVE",
"209 51 CURVE SMOOTH"
);
}
);
};
layerId = "4F39836F-1187-466E-8FAB-7EBF43C51BB4";
paths = (
{
closed = 1;
nodes = (
"304 -175 OFFCURVE",
"331 -110 OFFCURVE",
"331 -52 CURVE SMOOTH",
"331 434 LINE",
"287 441 OFFCURVE",
"224 450 OFFCURVE",
"203 450 CURVE SMOOTH",
"182 450 OFFCURVE",
"121 422 OFFCURVE",
"83 361 CURVE",
"67 326 OFFCURVE",
"54 285 OFFCURVE",
"54 212 CURVE SMOOTH",
"54 120 OFFCURVE",
"86 33 OFFCURVE",
"191 26 CURVE",
"47 -110 LINE",
"44 -139 LINE",
"88 -152 OFFCURVE",
"181 -175 OFFCURVE",
"262 -175 CURVE SMOOTH"
);
},
{
closed = 1;
nodes = (
"189 -151 OFFCURVE",
"98 -129 OFFCURVE",
"74 -122 CURVE",
"74 -119 LINE",
"110 -83 OFFCURVE",
"247 46 OFFCURVE",
"300 95 CURVE",
"302 93 LINE",
"302 -46 LINE SMOOTH",
"302 -124 OFFCURVE",
"267 -151 OFFCURVE",
"265 -151 CURVE SMOOTH"
);
},
{
closed = 1;
nodes = (
"144 51 OFFCURVE",
"83 77 OFFCURVE",
"83 219 CURVE SMOOTH",
"83 367 OFFCURVE",
"149 403 OFFCURVE",
"185 418 CURVE SMOOTH",
"209 428 OFFCURVE",
"246 422 OFFCURVE",
"302 411 CURVE",
"302 130 LINE",
"302 130 OFFCURVE",
"218 51 OFFCURVE",
"209 51 CURVE SMOOTH"
);
}
);
width = 387;
}
);
leftKerningGroup = g;
rightKerningGroup = g;
unicode = 0067;
},
{
glyphname = h;
lastChange = "2018-02-12 15:36:47 +0000";
layers = (
{
anchors = (
{
name = bottom;
position = "{245, 0}";
},
{
name = center;
position = "{167, 523}";
},
{
name = top;
position = "{111, 603}";
}
);
layerId = "555729A4-F539-4650-9C4F-3880CB033E7B";
paths = (
{
closed = 1;
nodes = (
"111 -9 OFFCURVE",
"194 7 OFFCURVE",
"194 7 CURVE",
"194 44 LINE",
"160 59 LINE",
"160 344 LINE",
"178 352 OFFCURVE",
"246 382 OFFCURVE",
"255 382 CURVE SMOOTH",
"270 382 OFFCURVE",
"313 384 OFFCURVE",
"313 288 CURVE SMOOTH",
"313 24 LINE SMOOTH",
"313 17 OFFCURVE",
"341 -9 OFFCURVE",
"347 -9 CURVE SMOOTH",
"356 -9 OFFCURVE",
"439 7 OFFCURVE",
"439 7 CURVE",
"439 44 LINE",
"404 59 LINE",
"404 288 LINE SMOOTH",
"404 418 OFFCURVE",
"351 456 OFFCURVE",
"260 456 CURVE SMOOTH",
"256 456 OFFCURVE",
"195 412 OFFCURVE",
"160 386 CURVE",
"155 387 LINE",
"160 613 LINE SMOOTH",
"160 620 OFFCURVE",
"131 646 OFFCURVE",
"125 646 CURVE SMOOTH",
"116 646 OFFCURVE",
"34 630 OFFCURVE",
"34 630 CURVE",
"34 593 LINE",
"69 579 LINE",
"69 24 LINE SMOOTH",
"69 17 OFFCURVE",
"96 -9 OFFCURVE",
"102 -9 CURVE SMOOTH"
);
}
);
width = 474;
},
{
anchors = (
{
name = bottom;
position = "{270, 0}";
},
{
name = center;
position = "{177, 529}";
},
{
name = top;
position = "{120, 640}";
}
);
layerId = "CB0A0A08-290D-4820-BDFF-3CAB47D8DECF";
paths = (
{
closed = 1;
nodes = (
"109 -13 OFFCURVE",
"256 12 OFFCURVE",
"256 12 CURVE",
"256 80 LINE",
"213 95 LINE",
"213 341 LINE",
"227 348 OFFCURVE",
"251 360 OFFCURVE",
"257 360 CURVE SMOOTH",
"266 360 OFFCURVE",
"285 355 OFFCURVE",
"285 331 CURVE SMOOTH",
"285 31 LINE SMOOTH",
"285 22 OFFCURVE",
"329 -13 OFFCURVE",
"338 -13 CURVE SMOOTH",
"353 -13 OFFCURVE",
"501 12 OFFCURVE",
"501 12 CURVE",
"501 80 LINE",
"458 95 LINE",
"458 333 LINE SMOOTH",
"458 443 OFFCURVE",
"399 476 OFFCURVE",
"298 476 CURVE SMOOTH",
"290 476 OFFCURVE",
"242 441 OFFCURVE",
"212 417 CURVE",
"204 419 LINE",
"213 622 LINE SMOOTH",
"213 630 OFFCURVE",
"180 665 OFFCURVE",
"173 665 CURVE SMOOTH",
"155 665 OFFCURVE",
"-4 642 OFFCURVE",
"-4 642 CURVE",
"-4 573 LINE",
"40 558 LINE",
"40 31 LINE SMOOTH",
"40 22 OFFCURVE",
"83 -13 OFFCURVE",
"92 -13 CURVE SMOOTH"
);
}
);
width = 509;
},
{
anchors = (
{
name = bottom;
position = "{248, 0}";
},
{
name = center;
position = "{130, 523}";
},
{
name = top;
position = "{103, 601}";
}
);
layerId = "4F39836F-1187-466E-8FAB-7EBF43C51BB4";
paths = (
{
closed = 1;
nodes = (
"118 -10 OFFCURVE",
"176 2 OFFCURVE",
"176 2 CURVE",
"176 19 LINE",
"118 19 LINE",
"118 342 LINE",
"155 372 OFFCURVE",
"221 423 OFFCURVE",
"226 423 CURVE SMOOTH",
"285 423 OFFCURVE",
"339 413 OFFCURVE",
"339 290 CURVE SMOOTH",
"339 7 LINE SMOOTH",
"339 3 OFFCURVE",
"354 -10 OFFCURVE",
"359 -10 CURVE SMOOTH",
"368 -10 OFFCURVE",
"426 2 OFFCURVE",
"426 2 CURVE",
"426 19 LINE",
"368 19 LINE",
"368 276 LINE SMOOTH",
"368 411 OFFCURVE",
"331 450 OFFCURVE",
"220 450 CURVE SMOOTH",
"215 450 OFFCURVE",
"148 397 OFFCURVE",
"118 373 CURVE",
"116 374 LINE",
"118 620 LINE SMOOTH",
"118 624 OFFCURVE",
"101 637 OFFCURVE",
"98 637 CURVE SMOOTH",
"89 637 OFFCURVE",
"31 625 OFFCURVE",
"31 625 CURVE",
"31 608 LINE",
"89 608 LINE",
"89 7 LINE SMOOTH",
"89 3 OFFCURVE",
"106 -10 OFFCURVE",
"109 -10 CURVE SMOOTH"
);
}
);
width = 454;
}
);
leftKerningGroup = h;
rightKerningGroup = n;
unicode = 0068;
},
{
glyphname = i;
lastChange = "2018-02-12 15:36:47 +0000";
layers = (
{
anchors = (
{
name = bottom;
position = "{116, 0}";
},
{
name = ogonek;
position = "{165, 7}";
}
);
layerId = "555729A4-F539-4650-9C4F-3880CB033E7B";
paths = (
{
closed = 1;
nodes = (
"118 -9 OFFCURVE",
"194 7 OFFCURVE",
"194 7 CURVE",
"194 44 LINE",
"159 54 LINE",
"159 419 LINE",
"159 428 OFFCURVE",
"127 456 OFFCURVE",
"119 456 CURVE SMOOTH",
"110 456 OFFCURVE",
"34 441 OFFCURVE",
"34 441 CURVE",
"34 404 LINE",
"69 393 LINE",
"69 28 LINE SMOOTH",
"69 21 OFFCURVE",
"102 -9 OFFCURVE",
"109 -9 CURVE SMOOTH"
);
},
{
closed = 1;
nodes = (
"155 537 LINE",
"160 624 LINE",
"145 646 LINE",
"68 641 LINE",
"75 537 LINE"
);
}
);
width = 228;
},
{
anchors = (
{
name = bottom;
position = "{146, 0}";
},
{
name = ogonek;
position = "{220, 12}";
}
);
layerId = "CB0A0A08-290D-4820-BDFF-3CAB47D8DECF";
paths = (
{
closed = 1;
nodes = (
"123 -13 OFFCURVE",
"270 12 OFFCURVE",
"270 12 CURVE",
"270 80 LINE",
"227 95 LINE",
"227 433 LINE SMOOTH",
"227 441 OFFCURVE",
"194 476 OFFCURVE",
"187 476 CURVE SMOOTH",
"169 476 OFFCURVE",
"10 453 OFFCURVE",
"10 453 CURVE",
"10 384 LINE",
"54 369 LINE",
"54 31 LINE SMOOTH",
"54 22 OFFCURVE",
"97 -13 OFFCURVE",
"106 -13 CURVE SMOOTH"
);
},
{
closed = 1;
nodes = (
"217 530 LINE",
"228 634 LINE",
"202 664 LINE",
"53 657 LINE",
"65 530 LINE"
);
}
);
width = 280;
},
{
anchors = (
{
name = bottom;
position = "{115, 0}";
},
{
name = ogonek;
position = "{155, 2}";
}
);
layerId = "4F39836F-1187-466E-8FAB-7EBF43C51BB4";
paths = (
{
closed = 1;
nodes = (
"118 -10 OFFCURVE",
"176 2 OFFCURVE",
"176 2 CURVE",
"176 19 LINE",
"118 19 LINE",
"118 433 LINE SMOOTH",
"118 437 OFFCURVE",
"101 450 OFFCURVE",
"98 450 CURVE SMOOTH",
"89 450 OFFCURVE",
"31 438 OFFCURVE",
"31 438 CURVE",
"31 421 LINE",
"89 421 LINE",
"89 7 LINE SMOOTH",
"89 3 OFFCURVE",
"106 -10 OFFCURVE",
"109 -10 CURVE SMOOTH"
);
},
{
closed = 1;
nodes = (
"115 551 LINE",
"121 607 LINE",
"113 617 LINE",
"85 614 LINE",
"91 551 LINE"
);
}
);
width = 212;
}
);
leftKerningGroup = i;
rightKerningGroup = i;
unicode = 0069;
},
{
glyphname = idotless;
lastChange = "2018-02-12 15:36:47 +0000";
layers = (
{
anchors = (
{
name = bottom;
position = "{108, 0}";
},
{
name = top;
position = "{102, 440}";
}
);
layerId = "4F39836F-1187-466E-8FAB-7EBF43C51BB4";
paths = (
{
closed = 1;
nodes = (
"118 -10 OFFCURVE",
"176 2 OFFCURVE",
"176 2 CURVE",
"176 19 LINE",
"118 19 LINE",
"118 433 LINE SMOOTH",
"118 437 OFFCURVE",
"101 450 OFFCURVE",
"98 450 CURVE SMOOTH",
"89 450 OFFCURVE",
"31 438 OFFCURVE",
"31 438 CURVE",
"31 421 LINE",
"89 421 LINE",
"89 7 LINE SMOOTH",
"89 3 OFFCURVE",
"106 -10 OFFCURVE",
"109 -10 CURVE SMOOTH"
);
}
);
width = 212;
},
{
anchors = (
{
name = bottom;
position = "{116, 0}";
},
{
name = top;
position = "{113, 448}";
}
);
layerId = "555729A4-F539-4650-9C4F-3880CB033E7B";
paths = (
{
closed = 1;
nodes = (
"118 -9 OFFCURVE",
"194 7 OFFCURVE",
"194 7 CURVE",
"194 44 LINE",
"159 54 LINE",
"159 419 LINE",
"159 428 OFFCURVE",
"127 456 OFFCURVE",
"119 456 CURVE SMOOTH",
"110 456 OFFCURVE",
"34 441 OFFCURVE",
"34 441 CURVE",
"34 404 LINE",
"69 393 LINE",
"69 28 LINE SMOOTH",
"69 21 OFFCURVE",
"102 -9 OFFCURVE",
"109 -9 CURVE SMOOTH"
);
}
);
width = 228;
},
{
anchors = (
{
name = bottom;
position = "{149, 0}";
},
{
name = top;
position = "{133, 462}";
}
);
layerId = "CB0A0A08-290D-4820-BDFF-3CAB47D8DECF";
paths = (
{
closed = 1;
nodes = (
"123 -13 OFFCURVE",
"270 12 OFFCURVE",
"270 12 CURVE",
"270 80 LINE",
"227 95 LINE",
"227 433 LINE SMOOTH",
"227 441 OFFCURVE",
"194 476 OFFCURVE",
"187 476 CURVE SMOOTH",
"169 476 OFFCURVE",
"10 453 OFFCURVE",
"10 453 CURVE",
"10 384 LINE",
"54 369 LINE",
"54 31 LINE SMOOTH",
"54 22 OFFCURVE",
"97 -13 OFFCURVE",
"106 -13 CURVE SMOOTH"
);
}
);
width = 280;
}
);
leftKerningGroup = i;
rightKerningGroup = i;
unicode = 0131;
},
{
glyphname = ibreve;
lastChange = "2018-03-30 19:06:05 +0000";
layers = (
{
components = (
{
name = idotless;
}
);
layerId = "4F39836F-1187-466E-8FAB-7EBF43C51BB4";
paths = (
{
closed = 1;
nodes = (
"148 532 OFFCURVE",
"184 562 OFFCURVE",
"210 617 CURVE",
"198 625 LINE",
"170 581 OFFCURVE",
"142 559 OFFCURVE",
"101 559 CURVE SMOOTH",
"64 559 OFFCURVE",
"33 581 OFFCURVE",
"2 625 CURVE",
"-10 617 LINE",
"16 562 OFFCURVE",
"52 532 OFFCURVE",
"101 532 CURVE SMOOTH"
);
}
);
width = 212;
},
{
components = (
{
name = idotless;
}
);
layerId = "555729A4-F539-4650-9C4F-3880CB033E7B";
paths = (
{
closed = 1;
nodes = (
"181 531 OFFCURVE",
"222 586 OFFCURVE",
"242 631 CURVE",
"214 656 LINE",
"181 622 OFFCURVE",
"159 596 OFFCURVE",
"111 596 CURVE SMOOTH",
"63 596 OFFCURVE",
"41 622 OFFCURVE",
"8 656 CURVE",
"-20 631 LINE",
"0 586 OFFCURVE",
"41 531 OFFCURVE",
"111 531 CURVE SMOOTH"
);
}
);
width = 228;
},
{
components = (
{
name = idotless;
}
);
layerId = "CB0A0A08-290D-4820-BDFF-3CAB47D8DECF";
paths = (
{
closed = 1;
nodes = (
"219 531 OFFCURVE",
"270 584 OFFCURVE",
"292 636 CURVE",
"242 686 LINE",
"210 652 OFFCURVE",
"179 632 OFFCURVE",
"134 632 CURVE SMOOTH",
"95 632 OFFCURVE",
"62 652 OFFCURVE",
"33 686 CURVE",
"-17 636 LINE",
"5 584 OFFCURVE",
"56 531 OFFCURVE",
"134 531 CURVE SMOOTH"
);
}
);
width = 280;
}
);
leftKerningGroup = i;
rightKerningGroup = i;
unicode = 012D;
},
{
glyphname = iinvertedbreve;
lastChange = "2018-02-21 15:19:54 +0000";
layers = (
{
components = (
{
name = idotless;
}
);
layerId = "4F39836F-1187-466E-8FAB-7EBF43C51BB4";
paths = (
{
closed = 1;
nodes = (
"52 625 OFFCURVE",
"16 595 OFFCURVE",
"-10 540 CURVE",
"2 532 LINE",
"33 576 OFFCURVE",
"64 598 OFFCURVE",
"101 598 CURVE SMOOTH",
"142 598 OFFCURVE",
"170 576 OFFCURVE",
"198 532 CURVE",
"210 540 LINE",
"184 595 OFFCURVE",
"148 625 OFFCURVE",
"101 625 CURVE SMOOTH"
);
}
);
width = 212;
},
{
components = (
{
name = idotless;
}
);
layerId = "555729A4-F539-4650-9C4F-3880CB033E7B";
paths = (
{
closed = 1;
nodes = (
"41 656 OFFCURVE",
"0 601 OFFCURVE",
"-20 556 CURVE",
"8 531 LINE",
"41 565 OFFCURVE",
"63 591 OFFCURVE",
"111 591 CURVE SMOOTH",
"159 591 OFFCURVE",
"181 565 OFFCURVE",
"214 531 CURVE",
"242 556 LINE",
"222 601 OFFCURVE",
"181 656 OFFCURVE",
"111 656 CURVE SMOOTH"
);
}
);
width = 228;
},
{
components = (
{
name = idotless;
}
);
layerId = "CB0A0A08-290D-4820-BDFF-3CAB47D8DECF";
paths = (
{
closed = 1;
nodes = (
"56 686 OFFCURVE",
"5 633 OFFCURVE",
"-17 581 CURVE",
"33 531 LINE",
"62 565 OFFCURVE",
"95 585 OFFCURVE",
"134 585 CURVE SMOOTH",
"179 585 OFFCURVE",
"210 565 OFFCURVE",
"242 531 CURVE",
"292 581 LINE",
"270 633 OFFCURVE",
"219 686 OFFCURVE",
"134 686 CURVE SMOOTH"
);
}
);
width = 280;
}
);
unicode = 020B;
},
{
glyphname = idieresis;
lastChange = "2018-03-30 19:13:50 +0000";
layers = (
{
components = (
{
name = idotless;
}
);
layerId = "4F39836F-1187-466E-8FAB-7EBF43C51BB4";
paths = (
{
closed = 1;
nodes = (
"172 541 LINE",
"180 602 LINE",
"170 613 LINE",
"141 610 LINE",
"147 541 LINE"
);
},
{
closed = 1;
nodes = (
"56 541 LINE",
"64 602 LINE",
"54 613 LINE",
"25 610 LINE",
"31 541 LINE"
);
}
);
width = 212;
},
{
components = (
{
name = idotless;
}
);
layerId = "555729A4-F539-4650-9C4F-3880CB033E7B";
paths = (
{
closed = 1;
nodes = (
"230 543 LINE",
"235 630 LINE",
"220 652 LINE",
"143 647 LINE",
"150 543 LINE"
);
},
{
closed = 1;
nodes = (
"75 543 LINE",
"80 630 LINE",
"65 652 LINE",
"-12 647 LINE",
"-5 543 LINE"
);
}
);
width = 228;
},
{
components = (
{
name = idotless;
}
);
layerId = "CB0A0A08-290D-4820-BDFF-3CAB47D8DECF";
paths = (
{
closed = 1;
nodes = (
"303 543 LINE",
"315 647 LINE",
"289 677 LINE",
"146 670 LINE",
"157 543 LINE"
);
},
{
closed = 1;
nodes = (
"109 543 LINE",
"121 647 LINE",
"95 677 LINE",
"-48 670 LINE",
"-37 543 LINE"
);
}
);
width = 280;
}
);
leftKerningGroup = i;
rightKerningGroup = i;
unicode = 00EF;
},
{
glyphname = j;
lastChange = "2018-02-12 15:36:47 +0000";
layers = (
{
layerId = "555729A4-F539-4650-9C4F-3880CB033E7B";
paths = (
{
closed = 1;
nodes = (
"69 -181 OFFCURVE",
"159 -84 OFFCURVE",
"159 -22 CURVE SMOOTH",
"159 419 LINE",
"159 428 OFFCURVE",
"126 456 OFFCURVE",
"119 456 CURVE SMOOTH",
"110 456 OFFCURVE",
"21 441 OFFCURVE",
"21 441 CURVE",
"21 402 LINE",
"69 392 LINE",
"69 13 LINE SMOOTH",
"69 -22 OFFCURVE",
"67 -89 OFFCURVE",
"44 -102 CURVE SMOOTH",
"36 -108 OFFCURVE",
"-38 -112 OFFCURVE",
"-57 -113 CURVE",
"-57 -152 LINE",
"-22 -164 OFFCURVE",
"24 -181 OFFCURVE",
"38 -181 CURVE SMOOTH"
);
},
{
closed = 1;
nodes = (
"155 537 LINE",
"160 624 LINE",
"145 646 LINE",
"68 641 LINE",
"75 537 LINE"
);
}
);
width = 219;
},
{
layerId = "CB0A0A08-290D-4820-BDFF-3CAB47D8DECF";
paths = (
{
closed = 1;
nodes = (
"125 -186 OFFCURVE",
"229 -87 OFFCURVE",
"229 -23 CURVE SMOOTH",
"229 433 LINE SMOOTH",
"229 441 OFFCURVE",
"196 476 OFFCURVE",
"189 476 CURVE SMOOTH",
"171 476 OFFCURVE",
"12 453 OFFCURVE",
"12 453 CURVE",
"12 384 LINE",
"56 369 LINE",
"56 12 LINE SMOOTH",
"56 -14 OFFCURVE",
"53 -63 OFFCURVE",
"35 -73 CURVE",
"28 -78 OFFCURVE",
"-46 -84 OFFCURVE",
"-65 -84 CURVE",
"-65 -166 LINE",
"-8 -176 OFFCURVE",
"63 -186 OFFCURVE",
"88 -186 CURVE SMOOTH"
);
},
{
closed = 1;
nodes = (
"219 530 LINE",
"230 634 LINE",
"204 664 LINE",
"55 657 LINE",
"67 530 LINE"
);
}
);
width = 265;
},
{
layerId = "4F39836F-1187-466E-8FAB-7EBF43C51BB4";
paths = (
{
closed = 1;
nodes = (
"73 -175 OFFCURVE",
"108 -118 OFFCURVE",
"108 -51 CURVE SMOOTH",
"108 433 LINE SMOOTH",
"108 437 OFFCURVE",
"91 450 OFFCURVE",
"88 450 CURVE SMOOTH",
"79 450 OFFCURVE",
"21 438 OFFCURVE",
"21 438 CURVE",
"21 421 LINE",
"79 421 LINE",
"79 -53 LINE SMOOTH",
"79 -116 OFFCURVE",
"48 -149 OFFCURVE",
"41 -149 CURVE SMOOTH",
"32 -149 OFFCURVE",
"-14 -149 OFFCURVE",
"-27 -149 CURVE",
"-27 -166 LINE",
"-9 -169 OFFCURVE",
"28 -175 OFFCURVE",
"39 -175 CURVE SMOOTH"
);
},
{
closed = 1;
nodes = (
"105 551 LINE",
"111 607 LINE",
"103 617 LINE",
"75 614 LINE",
"81 551 LINE"
);
}
);
width = 165;
}
);
leftKerningGroup = j;
rightKerningGroup = j;
unicode = 006A;
},
{
glyphname = jdotless;
lastChange = "2018-02-12 15:36:47 +0000";
layers = (
{
anchors = (
{
name = top;
position = "{84, 440}";
}
);
layerId = "4F39836F-1187-466E-8FAB-7EBF43C51BB4";
paths = (
{
closed = 1;
nodes = (
"73 -175 OFFCURVE",
"108 -118 OFFCURVE",
"108 -51 CURVE SMOOTH",
"108 433 LINE SMOOTH",
"108 437 OFFCURVE",
"91 450 OFFCURVE",
"88 450 CURVE SMOOTH",
"79 450 OFFCURVE",
"21 438 OFFCURVE",
"21 438 CURVE",
"21 421 LINE",
"79 421 LINE",
"79 -53 LINE SMOOTH",
"79 -116 OFFCURVE",
"48 -149 OFFCURVE",
"41 -149 CURVE SMOOTH",
"32 -149 OFFCURVE",
"-14 -149 OFFCURVE",
"-27 -149 CURVE",
"-27 -166 LINE",
"-9 -169 OFFCURVE",
"28 -175 OFFCURVE",
"39 -175 CURVE SMOOTH"
);
}
);
width = 162;
},
{
anchors = (
{
name = top;
position = "{108, 448}";
}
);
layerId = "555729A4-F539-4650-9C4F-3880CB033E7B";
paths = (
{
closed = 1;
nodes = (
"69 -181 OFFCURVE",
"159 -84 OFFCURVE",
"159 -22 CURVE SMOOTH",
"159 419 LINE",
"159 428 OFFCURVE",
"126 456 OFFCURVE",
"119 456 CURVE SMOOTH",
"110 456 OFFCURVE",
"21 441 OFFCURVE",
"21 441 CURVE",
"21 402 LINE",
"69 392 LINE",
"69 13 LINE SMOOTH",
"69 -22 OFFCURVE",
"67 -89 OFFCURVE",
"44 -102 CURVE SMOOTH",
"36 -108 OFFCURVE",
"-38 -112 OFFCURVE",
"-57 -113 CURVE",
"-57 -152 LINE",
"-22 -164 OFFCURVE",
"24 -181 OFFCURVE",
"38 -181 CURVE SMOOTH"
);
}
);
width = 218;
},
{
anchors = (
{
name = top;
position = "{133, 462}";
}
);
layerId = "CB0A0A08-290D-4820-BDFF-3CAB47D8DECF";
paths = (
{
closed = 1;
nodes = (
"125 -186 OFFCURVE",
"229 -87 OFFCURVE",
"229 -23 CURVE SMOOTH",
"229 433 LINE SMOOTH",
"229 441 OFFCURVE",
"196 476 OFFCURVE",
"189 476 CURVE SMOOTH",
"171 476 OFFCURVE",
"12 453 OFFCURVE",
"12 453 CURVE",
"12 384 LINE",
"56 369 LINE",
"56 12 LINE SMOOTH",
"56 -14 OFFCURVE",
"53 -63 OFFCURVE",
"35 -73 CURVE",
"28 -78 OFFCURVE",
"-46 -84 OFFCURVE",
"-65 -84 CURVE",
"-65 -166 LINE",
"-8 -176 OFFCURVE",
"63 -186 OFFCURVE",
"88 -186 CURVE SMOOTH"
);
}
);
width = 265;
}
);
leftKerningGroup = j;
rightKerningGroup = j;
unicode = 0237;
},
{
glyphname = k;
lastChange = "2018-02-22 02:21:08 +0000";
layers = (
{
anchors = (
{
name = bottom;
position = "{240, 0}";
}
);
layerId = "555729A4-F539-4650-9C4F-3880CB033E7B";
paths = (
{
closed = 1;
nodes = (
"362 -9 OFFCURVE",
"436 7 OFFCURVE",
"436 7 CURVE",
"436 44 LINE",
"396 60 LINE",
"252 254 LINE",
"399 408 LINE",
"399 419 OFFCURVE",
"387 455 OFFCURVE",
"381 455 CURVE SMOOTH",
"372 455 OFFCURVE",
"251 448 OFFCURVE",
"251 448 CURVE",
"251 400 LINE",
"295 394 LINE",
"179 262 LINE",
"179 221 LINE",
"315 23 LINE SMOOTH",
"321 15 OFFCURVE",
"348 -9 OFFCURVE",
"354 -9 CURVE SMOOTH"
);
},
{
closed = 1;
nodes = (
"112 -9 OFFCURVE",
"194 7 OFFCURVE",
"194 7 CURVE",
"194 44 LINE",
"160 59 LINE",
"160 613 LINE",
"160 620 OFFCURVE",
"133 646 OFFCURVE",
"127 646 CURVE SMOOTH",
"118 646 OFFCURVE",
"34 630 OFFCURVE",
"34 630 CURVE",
"34 593 LINE",
"70 579 LINE",
"70 24 LINE SMOOTH",
"70 17 OFFCURVE",
"97 -9 OFFCURVE",
"103 -9 CURVE SMOOTH"
);
}
);
width = 438;
},
{
anchors = (
{
name = bottom;
position = "{251, 0}";
}
);
layerId = "CB0A0A08-290D-4820-BDFF-3CAB47D8DECF";
paths = (
{
closed = 1;
nodes = (
"370 -13 OFFCURVE",
"507 12 OFFCURVE",
"507 12 CURVE",
"507 80 LINE",
"464 95 LINE",
"368 258 LINE",
"499 405 LINE",
"499 416 OFFCURVE",
"480 473 OFFCURVE",
"472 473 CURVE SMOOTH",
"462 473 OFFCURVE",
"261 462 OFFCURVE",
"261 462 CURVE",
"261 388 LINE",
"332 378 LINE",
"230 263 LINE",
"230 202 LINE",
"311 17 LINE",
"317 8 OFFCURVE",
"352 -13 OFFCURVE",
"360 -13 CURVE SMOOTH"
);
},
{
closed = 1;
nodes = (
"109 -13 OFFCURVE",
"252 12 OFFCURVE",
"252 12 CURVE",
"252 80 LINE",
"213 95 LINE",
"213 622 LINE SMOOTH",
"213 630 OFFCURVE",
"180 665 OFFCURVE",
"173 665 CURVE SMOOTH",
"155 665 OFFCURVE",
"-4 642 OFFCURVE",
"-4 642 CURVE",
"-4 573 LINE",
"40 558 LINE",
"40 31 LINE SMOOTH",
"40 22 OFFCURVE",
"83 -13 OFFCURVE",
"92 -13 CURVE SMOOTH"
);
}
);
width = 511;
},
{
anchors = (
{
name = bottom;
position = "{227, 0}";
}
);
layerId = "4F39836F-1187-466E-8FAB-7EBF43C51BB4";
paths = (
{
closed = 1;
nodes = (
"365 -10 OFFCURVE",
"416 2 OFFCURVE",
"416 2 CURVE",
"416 19 LINE",
"356 19 LINE",
"190 239 LINE",
"388 427 LINE",
"388 430 OFFCURVE",
"380 450 OFFCURVE",
"376 450 CURVE SMOOTH",
"367 450 OFFCURVE",
"276 442 OFFCURVE",
"276 442 CURVE",
"276 422 LINE",
"346 422 LINE",
"157 243 LINE",
"157 236 LINE",
"329 7 LINE SMOOTH",
"335 -1 OFFCURVE",
"352 -10 OFFCURVE",
"358 -10 CURVE SMOOTH"
);
},
{
closed = 1;
nodes = (
"118 -10 OFFCURVE",
"176 2 OFFCURVE",
"176 2 CURVE",
"176 19 LINE",
"118 19 LINE",
"118 620 LINE SMOOTH",
"118 624 OFFCURVE",
"101 637 OFFCURVE",
"98 637 CURVE SMOOTH",
"89 637 OFFCURVE",
"31 625 OFFCURVE",
"31 625 CURVE",
"31 608 LINE",
"89 608 LINE",
"89 7 LINE SMOOTH",
"89 3 OFFCURVE",
"106 -10 OFFCURVE",
"109 -10 CURVE SMOOTH"
);
}
);
width = 440;
}
);
leftKerningGroup = h;
rightKerningGroup = k;
unicode = 006B;
},
{
glyphname = kgreenlandic;
lastChange = "2018-02-12 15:36:47 +0000";
layers = (
{
layerId = "4F39836F-1187-466E-8FAB-7EBF43C51BB4";
paths = (
{
closed = 1;
nodes = (
"371 -10 OFFCURVE",
"422 2 OFFCURVE",
"422 2 CURVE",
"422 19 LINE",
"362 19 LINE",
"191 212 LINE",
"394 427 LINE",
"394 430 OFFCURVE",
"386 450 OFFCURVE",
"382 450 CURVE SMOOTH",
"373 450 OFFCURVE",
"282 442 OFFCURVE",
"282 442 CURVE",
"282 422 LINE",
"354 422 LINE",
"163 213 LINE",
"163 206 LINE",
"335 7 LINE SMOOTH",
"342 -1 OFFCURVE",
"358 -10 OFFCURVE",
"364 -10 CURVE SMOOTH"
);
},
{
closed = 1;
nodes = (
"124 -10 OFFCURVE",
"182 2 OFFCURVE",
"182 2 CURVE",
"182 19 LINE",
"124 19 LINE",
"124 433 LINE SMOOTH",
"124 437 OFFCURVE",
"107 450 OFFCURVE",
"104 450 CURVE SMOOTH",
"95 450 OFFCURVE",
"37 438 OFFCURVE",
"37 438 CURVE",
"37 421 LINE",
"95 421 LINE",
"95 7 LINE SMOOTH",
"95 3 OFFCURVE",
"112 -10 OFFCURVE",
"115 -10 CURVE SMOOTH"
);
}
);
width = 452;
},
{
layerId = "555729A4-F539-4650-9C4F-3880CB033E7B";
paths = (
{
closed = 1;
nodes = (
"362 -9 OFFCURVE",
"436 7 OFFCURVE",
"436 7 CURVE",
"436 44 LINE",
"396 60 LINE",
"250 224 LINE",
"399 408 LINE",
"399 419 OFFCURVE",
"387 455 OFFCURVE",
"381 455 CURVE SMOOTH",
"372 455 OFFCURVE",
"251 448 OFFCURVE",
"251 448 CURVE",
"251 400 LINE",
"301 394 LINE",
"179 232 LINE",
"179 191 LINE",
"315 23 LINE SMOOTH",
"321 15 OFFCURVE",
"348 -9 OFFCURVE",
"354 -9 CURVE SMOOTH"
);
},
{
closed = 1;
nodes = (
"112 -9 OFFCURVE",
"194 7 OFFCURVE",
"194 7 CURVE",
"194 44 LINE",
"160 59 LINE",
"160 422 LINE",
"160 429 OFFCURVE",
"133 455 OFFCURVE",
"127 455 CURVE SMOOTH",
"118 455 OFFCURVE",
"34 439 OFFCURVE",
"34 439 CURVE",
"34 402 LINE",
"70 388 LINE",
"70 24 LINE SMOOTH",
"70 17 OFFCURVE",
"97 -9 OFFCURVE",
"103 -9 CURVE SMOOTH"
);
}
);
width = 438;
},
{
layerId = "CB0A0A08-290D-4820-BDFF-3CAB47D8DECF";
paths = (
{
closed = 1;
nodes = (
"370 -13 OFFCURVE",
"507 12 OFFCURVE",
"507 12 CURVE",
"507 80 LINE",
"464 95 LINE",
"368 242 LINE",
"499 405 LINE",
"499 416 OFFCURVE",
"480 473 OFFCURVE",
"472 473 CURVE SMOOTH",
"462 473 OFFCURVE",
"261 462 OFFCURVE",
"261 462 CURVE",
"261 388 LINE",
"334 378 LINE",
"230 247 LINE",
"230 186 LINE",
"311 17 LINE",
"317 8 OFFCURVE",
"352 -13 OFFCURVE",
"360 -13 CURVE SMOOTH"
);
},
{
closed = 1;
nodes = (
"109 -13 OFFCURVE",
"252 12 OFFCURVE",
"252 12 CURVE",
"252 80 LINE",
"213 95 LINE",
"213 433 LINE SMOOTH",
"213 441 OFFCURVE",
"180 476 OFFCURVE",
"173 476 CURVE SMOOTH",
"155 476 OFFCURVE",
"-4 453 OFFCURVE",
"-4 453 CURVE",
"-4 384 LINE",
"40 369 LINE",
"40 31 LINE SMOOTH",
"40 22 OFFCURVE",
"83 -13 OFFCURVE",
"92 -13 CURVE SMOOTH"
);
}
);
width = 511;
}
);
rightKerningGroup = k;
unicode = 0138;
},
{
glyphname = l;
lastChange = "2018-02-12 15:36:47 +0000";
layers = (
{
anchors = (
{
name = bottom;
position = "{118, 0}";
},
{
name = center;
position = "{105, 329}";
},
{
name = top;
position = "{113, 613}";
}
);
layerId = "555729A4-F539-4650-9C4F-3880CB033E7B";
paths = (
{
closed = 1;
nodes = (
"112 -9 OFFCURVE",
"194 7 OFFCURVE",
"194 7 CURVE",
"194 44 LINE",
"160 59 LINE",
"160 613 LINE",
"160 620 OFFCURVE",
"133 646 OFFCURVE",
"127 646 CURVE SMOOTH",
"118 646 OFFCURVE",
"34 630 OFFCURVE",
"34 630 CURVE",
"34 593 LINE",
"70 579 LINE",
"70 24 LINE SMOOTH",
"70 17 OFFCURVE",
"97 -9 OFFCURVE",
"103 -9 CURVE SMOOTH"
);
}
);
width = 229;
},
{
anchors = (
{
name = bottom;
position = "{134, 0}";
},
{
name = center;
position = "{118, 329}";
},
{
name = top;
position = "{120, 642}";
}
);
layerId = "CB0A0A08-290D-4820-BDFF-3CAB47D8DECF";
paths = (
{
closed = 1;
nodes = (
"109 -13 OFFCURVE",
"256 12 OFFCURVE",
"256 12 CURVE",
"256 80 LINE",
"213 95 LINE",
"213 622 LINE SMOOTH",
"213 630 OFFCURVE",
"180 665 OFFCURVE",
"173 665 CURVE SMOOTH",
"155 665 OFFCURVE",
"-4 642 OFFCURVE",
"-4 642 CURVE",
"-4 573 LINE",
"40 558 LINE",
"40 31 LINE SMOOTH",
"40 22 OFFCURVE",
"83 -13 OFFCURVE",
"92 -13 CURVE SMOOTH"
);
}
);
width = 264;
},
{
anchors = (
{
name = bottom;
position = "{109, 0}";
},
{
name = center;
position = "{111, 338}";
},
{
name = top;
position = "{104, 591}";
}
);
layerId = "4F39836F-1187-466E-8FAB-7EBF43C51BB4";
paths = (
{
closed = 1;
nodes = (
"118 -10 OFFCURVE",
"176 2 OFFCURVE",
"176 2 CURVE",
"176 19 LINE",
"118 19 LINE",
"118 620 LINE SMOOTH",
"118 624 OFFCURVE",
"101 637 OFFCURVE",
"98 637 CURVE SMOOTH",
"89 637 OFFCURVE",
"31 625 OFFCURVE",
"31 625 CURVE",
"31 608 LINE",
"89 608 LINE",
"89 7 LINE SMOOTH",
"89 3 OFFCURVE",
"106 -10 OFFCURVE",
"109 -10 CURVE SMOOTH"
);
}
);
width = 212;
}
);
leftKerningGroup = h;
rightKerningGroup = l;
unicode = 006C;
},
{
glyphname = lslash;
lastChange = "2018-02-26 23:50:59 +0000";
layers = (
{
background = {
paths = (
{
closed = 1;
nodes = (
"22 274 LINE",
"32 271 LINE",
"203 394 LINE",
"204 412 LINE",
"195 415 LINE",
"23 291 LINE"
);
}
);
};
components = (
{
name = l;
},
{
name = slashshortcomb;
transform = "{1, 0, 0, 1, 2, 21}";
}
);
layerId = "4F39836F-1187-466E-8FAB-7EBF43C51BB4";
width = 212;
},
{
background = {
paths = (
{
closed = 1;
nodes = (
"15 243 LINE",
"29 240 LINE",
"251 363 LINE",
"251 421 LINE",
"237 424 LINE",
"15 302 LINE"
);
}
);
};
components = (
{
name = l;
},
{
name = slashshortcomb;
transform = "{1, 0, 0, 1, -23, 0}";
}
);
layerId = "555729A4-F539-4650-9C4F-3880CB033E7B";
width = 229;
},
{
components = (
{
name = l;
},
{
name = slashshortcomb;
transform = "{1, 0, 0, 1, -36, 0}";
}
);
layerId = "CB0A0A08-290D-4820-BDFF-3CAB47D8DECF";
width = 264;
}
);
leftKerningGroup = h;
rightKerningGroup = l;
unicode = 0142;
},
{
glyphname = m;
lastChange = "2018-02-12 15:36:47 +0000";
layers = (
{
layerId = "555729A4-F539-4650-9C4F-3880CB033E7B";
paths = (
{
closed = 1;
nodes = (
"112 -9 OFFCURVE",
"194 7 OFFCURVE",
"194 7 CURVE",
"194 44 LINE",
"160 59 LINE",
"160 344 LINE",
"160 344 OFFCURVE",
"231 382 OFFCURVE",
"241 382 CURVE SMOOTH",
"255 382 OFFCURVE",
"299 384 OFFCURVE",
"299 288 CURVE SMOOTH",
"299 24 LINE SMOOTH",
"299 17 OFFCURVE",
"328 -9 OFFCURVE",
"334 -9 CURVE SMOOTH",
"342 -9 OFFCURVE",
"424 7 OFFCURVE",
"424 7 CURVE",
"424 44 LINE",
"390 59 LINE",
"390 344 LINE",
"390 344 OFFCURVE",
"457 382 OFFCURVE",
"466 382 CURVE SMOOTH",
"481 382 OFFCURVE",
"529 384 OFFCURVE",
"529 288 CURVE SMOOTH",
"529 24 LINE SMOOTH",
"529 17 OFFCURVE",
"558 -9 OFFCURVE",
"564 -9 CURVE SMOOTH",
"572 -9 OFFCURVE",
"654 7 OFFCURVE",
"654 7 CURVE",
"654 44 LINE",
"620 59 LINE",
"620 288 LINE SMOOTH",
"620 418 OFFCURVE",
"560 456 OFFCURVE",
"461 456 CURVE SMOOTH",
"457 456 OFFCURVE",
"406 412 OFFCURVE",
"378 386 CURVE",
"357 439 OFFCURVE",
"309 456 OFFCURVE",
"246 456 CURVE SMOOTH",
"242 456 OFFCURVE",
"187 412 OFFCURVE",
"157 386 CURVE",
"157 424 LINE SMOOTH",
"157 430 OFFCURVE",
"131 456 OFFCURVE",
"125 456 CURVE SMOOTH",
"116 456 OFFCURVE",
"34 441 OFFCURVE",
"34 441 CURVE",
"34 404 LINE",
"69 389 LINE",
"69 24 LINE SMOOTH",
"69 17 OFFCURVE",
"97 -9 OFFCURVE",
"103 -9 CURVE SMOOTH"
);
}
);
width = 689;
},
{
layerId = "CB0A0A08-290D-4820-BDFF-3CAB47D8DECF";
paths = (
{
closed = 1;
nodes = (
"122 -13 OFFCURVE",
"265 12 OFFCURVE",
"265 12 CURVE",
"265 80 LINE",
"227 95 LINE",
"227 340 LINE",
"227 340 OFFCURVE",
"259 359 OFFCURVE",
"263 359 CURVE SMOOTH",
"272 359 OFFCURVE",
"291 355 OFFCURVE",
"291 330 CURVE SMOOTH",
"291 31 LINE SMOOTH",
"291 22 OFFCURVE",
"335 -13 OFFCURVE",
"344 -13 CURVE SMOOTH",
"359 -13 OFFCURVE",
"502 12 OFFCURVE",
"502 12 CURVE",
"502 80 LINE",
"464 95 LINE",
"464 340 LINE",
"464 340 OFFCURVE",
"496 359 OFFCURVE",
"500 359 CURVE SMOOTH",
"509 359 OFFCURVE",
"528 355 OFFCURVE",
"528 330 CURVE SMOOTH",
"528 31 LINE SMOOTH",
"528 22 OFFCURVE",
"572 -13 OFFCURVE",
"581 -13 CURVE SMOOTH",
"596 -13 OFFCURVE",
"744 12 OFFCURVE",
"744 12 CURVE",
"744 80 LINE",
"701 95 LINE",
"701 332 LINE SMOOTH",
"701 442 OFFCURVE",
"642 475 OFFCURVE",
"529 475 CURVE SMOOTH",
"521 475 OFFCURVE",
"477 437 OFFCURVE",
"449 413 CURVE",
"425 458 OFFCURVE",
"373 475 OFFCURVE",
"304 475 CURVE SMOOTH",
"296 475 OFFCURVE",
"248 437 OFFCURVE",
"220 413 CURVE",
"220 432 LINE SMOOTH",
"220 440 OFFCURVE",
"187 475 OFFCURVE",
"180 475 CURVE SMOOTH",
"162 475 OFFCURVE",
"10 452 OFFCURVE",
"10 452 CURVE",
"10 383 LINE",
"54 368 LINE",
"54 31 LINE SMOOTH",
"54 22 OFFCURVE",
"97 -13 OFFCURVE",
"106 -13 CURVE SMOOTH"
);
}
);
width = 752;
},
{
layerId = "4F39836F-1187-466E-8FAB-7EBF43C51BB4";
paths = (
{
closed = 1;
nodes = (
"118 -11 OFFCURVE",
"176 1 OFFCURVE",
"176 1 CURVE",
"176 18 LINE",
"118 18 LINE",
"118 342 LINE",
"118 342 OFFCURVE",
"213 423 OFFCURVE",
"224 423 CURVE SMOOTH",
"279 423 OFFCURVE",
"327 415 OFFCURVE",
"327 310 CURVE SMOOTH",
"327 6 LINE SMOOTH",
"327 2 OFFCURVE",
"341 -11 OFFCURVE",
"347 -11 CURVE SMOOTH",
"356 -11 OFFCURVE",
"414 1 OFFCURVE",
"414 1 CURVE",
"414 18 LINE",
"356 18 LINE",
"356 342 LINE",
"356 342 OFFCURVE",
"451 423 OFFCURVE",
"462 423 CURVE SMOOTH",
"516 423 OFFCURVE",
"565 413 OFFCURVE",
"565 290 CURVE SMOOTH",
"565 6 LINE SMOOTH",
"565 2 OFFCURVE",
"579 -11 OFFCURVE",
"585 -11 CURVE SMOOTH",
"594 -11 OFFCURVE",
"652 1 OFFCURVE",
"652 1 CURVE",
"652 18 LINE",
"594 18 LINE",
"594 276 LINE SMOOTH",
"594 411 OFFCURVE",
"558 450 OFFCURVE",
"452 450 CURVE SMOOTH",
"447 450 OFFCURVE",
"376 392 OFFCURVE",
"352 371 CURVE",
"336 425 OFFCURVE",
"294 450 OFFCURVE",
"218 450 CURVE SMOOTH",
"213 450 OFFCURVE",
"141 394 OFFCURVE",
"116 371 CURVE",
"118 433 LINE SMOOTH",
"118 437 OFFCURVE",
"101 450 OFFCURVE",
"98 450 CURVE SMOOTH",
"89 450 OFFCURVE",
"31 438 OFFCURVE",
"31 438 CURVE",
"31 421 LINE",
"89 421 LINE",
"89 6 LINE SMOOTH",
"89 2 OFFCURVE",
"106 -11 OFFCURVE",
"109 -11 CURVE SMOOTH"
);
}
);
width = 680;
}
);
leftKerningGroup = n;
rightKerningGroup = n;
unicode = 006D;
},
{
glyphname = n;
lastChange = "2018-02-22 22:26:46 +0000";
layers = (
{
anchors = (
{
name = bottom;
position = "{238, 0}";
},
{
name = top;
position = "{240, 448}";
}
);
layerId = "555729A4-F539-4650-9C4F-3880CB033E7B";
paths = (
{
closed = 1;
nodes = (
"112 -9 OFFCURVE",
"194 7 OFFCURVE",
"194 7 CURVE",
"194 44 LINE",
"160 59 LINE",
"160 344 LINE",
"198 361 OFFCURVE",
"243 382 OFFCURVE",
"255 382 CURVE SMOOTH",
"269 382 OFFCURVE",
"313 384 OFFCURVE",
"313 288 CURVE SMOOTH",
"313 24 LINE SMOOTH",
"313 17 OFFCURVE",
"342 -9 OFFCURVE",
"348 -9 CURVE SMOOTH",
"356 -9 OFFCURVE",
"439 7 OFFCURVE",
"439 7 CURVE",
"439 44 LINE",
"404 59 LINE",
"404 288 LINE SMOOTH",
"404 418 OFFCURVE",
"350 456 OFFCURVE",
"260 456 CURVE SMOOTH",
"254 456 OFFCURVE",
"192 412 OFFCURVE",
"157 386 CURVE",
"157 424 LINE SMOOTH",
"157 430 OFFCURVE",
"131 456 OFFCURVE",
"125 456 CURVE SMOOTH",
"116 456 OFFCURVE",
"34 441 OFFCURVE",
"34 441 CURVE",
"34 404 LINE",
"69 389 LINE",
"69 24 LINE SMOOTH",
"69 17 OFFCURVE",
"97 -9 OFFCURVE",
"103 -9 CURVE SMOOTH"
);
}
);
width = 474;
},
{
anchors = (
{
name = bottom;
position = "{268, 0}";
},
{
name = top;
position = "{265, 462}";
}
);
layerId = "CB0A0A08-290D-4820-BDFF-3CAB47D8DECF";
paths = (
{
closed = 1;
nodes = (
"123 -13 OFFCURVE",
"270 12 OFFCURVE",
"270 12 CURVE",
"270 80 LINE",
"227 95 LINE",
"227 341 LINE",
"246 350 OFFCURVE",
"268 360 OFFCURVE",
"271 360 CURVE SMOOTH",
"280 360 OFFCURVE",
"299 356 OFFCURVE",
"299 331 CURVE SMOOTH",
"299 31 LINE SMOOTH",
"299 22 OFFCURVE",
"343 -13 OFFCURVE",
"352 -13 CURVE SMOOTH",
"367 -13 OFFCURVE",
"515 12 OFFCURVE",
"515 12 CURVE",
"515 80 LINE",
"472 95 LINE",
"472 333 LINE SMOOTH",
"472 443 OFFCURVE",
"413 476 OFFCURVE",
"312 476 CURVE SMOOTH",
"304 476 OFFCURVE",
"250 438 OFFCURVE",
"220 414 CURVE",
"220 433 LINE SMOOTH",
"220 441 OFFCURVE",
"187 476 OFFCURVE",
"180 476 CURVE SMOOTH",
"162 476 OFFCURVE",
"10 453 OFFCURVE",
"10 453 CURVE",
"10 384 LINE",
"54 369 LINE",
"54 31 LINE SMOOTH",
"54 22 OFFCURVE",
"97 -13 OFFCURVE",
"106 -13 CURVE SMOOTH"
);
}
);
width = 523;
},
{
anchors = (
{
name = bottom;
position = "{236, 0}";
},
{
name = top;
position = "{233, 440}";
}
);
background = {
paths = (
{
closed = 1;
nodes = (
"118 -10 OFFCURVE",
"176 2 OFFCURVE",
"176 2 CURVE",
"176 19 LINE",
"118 19 LINE",
"118 342 LINE",
"118 342 OFFCURVE",
"215 423 OFFCURVE",
"226 423 CURVE SMOOTH",
"285 423 OFFCURVE",
"339 413 OFFCURVE",
"339 290 CURVE SMOOTH",
"339 7 LINE SMOOTH",
"339 3 OFFCURVE",
"354 -10 OFFCURVE",
"359 -10 CURVE SMOOTH",
"368 -10 OFFCURVE",
"426 2 OFFCURVE",
"426 2 CURVE",
"426 19 LINE",
"368 19 LINE",
"368 276 LINE SMOOTH",
"368 411 OFFCURVE",
"331 450 OFFCURVE",
"220 450 CURVE SMOOTH",
"215 450 OFFCURVE",
"141 394 OFFCURVE",
"116 371 CURVE",
"118 433 LINE SMOOTH",
"118 437 OFFCURVE",
"101 450 OFFCURVE",
"98 450 CURVE SMOOTH",
"89 450 OFFCURVE",
"31 438 OFFCURVE",
"31 438 CURVE",
"31 421 LINE",
"89 421 LINE",
"89 7 LINE SMOOTH",
"89 3 OFFCURVE",
"106 -10 OFFCURVE",
"109 -10 CURVE SMOOTH"
);
}
);
};
layerId = "4F39836F-1187-466E-8FAB-7EBF43C51BB4";
paths = (
{
closed = 1;
nodes = (
"118 -10 OFFCURVE",
"176 2 OFFCURVE",
"176 2 CURVE",
"176 19 LINE",
"118 19 LINE",
"118 342 LINE",
"158 376 OFFCURVE",
"218 423 OFFCURVE",
"226 423 CURVE SMOOTH",
"285 423 OFFCURVE",
"339 413 OFFCURVE",
"339 290 CURVE SMOOTH",
"339 7 LINE SMOOTH",
"339 3 OFFCURVE",
"354 -10 OFFCURVE",
"359 -10 CURVE SMOOTH",
"368 -10 OFFCURVE",
"426 2 OFFCURVE",
"426 2 CURVE",
"426 19 LINE",
"368 19 LINE",
"368 276 LINE SMOOTH",
"368 411 OFFCURVE",
"331 450 OFFCURVE",
"220 450 CURVE SMOOTH",
"213 450 OFFCURVE",
"145 394 OFFCURVE",
"116 371 CURVE",
"118 433 LINE SMOOTH",
"118 437 OFFCURVE",
"101 450 OFFCURVE",
"98 450 CURVE SMOOTH",
"89 450 OFFCURVE",
"31 438 OFFCURVE",
"31 438 CURVE",
"31 421 LINE",
"89 421 LINE",
"89 7 LINE SMOOTH",
"89 3 OFFCURVE",
"106 -10 OFFCURVE",
"109 -10 CURVE SMOOTH"
);
}
);
width = 454;
}
);
leftKerningGroup = n;
rightKerningGroup = n;
unicode = 006E;
},
{
glyphname = nhookleft;
lastChange = "2018-02-12 15:36:47 +0000";
layers = (
{
layerId = "4F39836F-1187-466E-8FAB-7EBF43C51BB4";
paths = (
{
closed = 1;
nodes = (
"205 450 OFFCURVE",
"131 394 OFFCURVE",
"106 371 CURVE",
"108 433 LINE SMOOTH",
"108 437 OFFCURVE",
"91 450 OFFCURVE",
"88 450 CURVE SMOOTH",
"79 450 OFFCURVE",
"21 438 OFFCURVE",
"21 438 CURVE",
"21 421 LINE",
"79 421 LINE",
"79 -53 LINE SMOOTH",
"79 -116 OFFCURVE",
"50 -146 OFFCURVE",
"43 -147 CURVE SMOOTH",
"20 -150 OFFCURVE",
"-4 -149 OFFCURVE",
"-27 -149 CURVE",
"-27 -166 LINE",
"-9 -169 OFFCURVE",
"28 -175 OFFCURVE",
"39 -175 CURVE SMOOTH",
"64 -175 OFFCURVE",
"108 -118 OFFCURVE",
"108 -61 CURVE SMOOTH",
"108 342 LINE",
"108 342 OFFCURVE",
"205 423 OFFCURVE",
"216 423 CURVE SMOOTH",
"275 423 OFFCURVE",
"329 413 OFFCURVE",
"329 290 CURVE SMOOTH",
"329 7 LINE SMOOTH",
"329 3 OFFCURVE",
"344 -10 OFFCURVE",
"349 -10 CURVE SMOOTH",
"358 -10 OFFCURVE",
"416 2 OFFCURVE",
"416 2 CURVE",
"416 19 LINE",
"358 19 LINE",
"358 276 LINE SMOOTH",
"358 411 OFFCURVE",
"321 450 OFFCURVE",
"210 450 CURVE SMOOTH"
);
}
);
width = 444;
},
{
layerId = "555729A4-F539-4650-9C4F-3880CB033E7B";
paths = (
{
closed = 1;
nodes = (
"254 456 OFFCURVE",
"192 412 OFFCURVE",
"157 386 CURVE",
"157 424 LINE SMOOTH",
"157 430 OFFCURVE",
"131 456 OFFCURVE",
"125 456 CURVE SMOOTH",
"116 456 OFFCURVE",
"34 441 OFFCURVE",
"34 441 CURVE",
"34 404 LINE",
"69 389 LINE",
"69 13 LINE SMOOTH",
"69 -22 OFFCURVE",
"65 -86 OFFCURVE",
"44 -102 CURVE SMOOTH",
"36 -108 OFFCURVE",
"-38 -112 OFFCURVE",
"-57 -113 CURVE",
"-57 -152 LINE",
"-22 -164 OFFCURVE",
"24 -181 OFFCURVE",
"38 -181 CURVE SMOOTH",
"69 -181 OFFCURVE",
"160 -84 OFFCURVE",
"160 -22 CURVE SMOOTH",
"160 344 LINE",
"198 361 OFFCURVE",
"243 382 OFFCURVE",
"255 382 CURVE SMOOTH",
"269 382 OFFCURVE",
"313 384 OFFCURVE",
"313 288 CURVE SMOOTH",
"313 24 LINE SMOOTH",
"313 17 OFFCURVE",
"342 -9 OFFCURVE",
"348 -9 CURVE SMOOTH",
"356 -9 OFFCURVE",
"439 7 OFFCURVE",
"439 7 CURVE",
"439 44 LINE",
"404 59 LINE",
"404 288 LINE SMOOTH",
"404 418 OFFCURVE",
"350 456 OFFCURVE",
"260 456 CURVE SMOOTH"
);
}
);
width = 474;
},
{
layerId = "CB0A0A08-290D-4820-BDFF-3CAB47D8DECF";
paths = (
{
closed = 1;
nodes = (
"304 476 OFFCURVE",
"250 438 OFFCURVE",
"220 414 CURVE",
"220 433 LINE SMOOTH",
"220 441 OFFCURVE",
"187 476 OFFCURVE",
"180 476 CURVE SMOOTH",
"162 476 OFFCURVE",
"10 453 OFFCURVE",
"10 453 CURVE",
"10 384 LINE",
"54 369 LINE",
"54 12 LINE SMOOTH",
"54 -14 OFFCURVE",
"51 -63 OFFCURVE",
"33 -73 CURVE",
"26 -78 OFFCURVE",
"-48 -84 OFFCURVE",
"-67 -84 CURVE",
"-67 -166 LINE",
"-10 -176 OFFCURVE",
"61 -186 OFFCURVE",
"86 -186 CURVE SMOOTH",
"123 -186 OFFCURVE",
"227 -87 OFFCURVE",
"227 -23 CURVE SMOOTH",
"227 341 LINE",
"246 350 OFFCURVE",
"268 360 OFFCURVE",
"271 360 CURVE SMOOTH",
"280 360 OFFCURVE",
"299 356 OFFCURVE",
"299 331 CURVE SMOOTH",
"299 31 LINE SMOOTH",
"299 22 OFFCURVE",
"343 -13 OFFCURVE",
"352 -13 CURVE SMOOTH",
"367 -13 OFFCURVE",
"515 12 OFFCURVE",
"515 12 CURVE",
"515 80 LINE",
"472 95 LINE",
"472 333 LINE SMOOTH",
"472 443 OFFCURVE",
"413 476 OFFCURVE",
"312 476 CURVE SMOOTH"
);
}
);
width = 523;
}
);
leftKerningGroup = n;
rightKerningGroup = n;
unicode = 0272;
},
{
glyphname = eng;
lastChange = "2018-02-12 15:36:47 +0000";
layers = (
{
layerId = "4F39836F-1187-466E-8FAB-7EBF43C51BB4";
paths = (
{
closed = 1;
nodes = (
"215 450 OFFCURVE",
"141 394 OFFCURVE",
"116 371 CURVE",
"118 433 LINE SMOOTH",
"118 437 OFFCURVE",
"101 450 OFFCURVE",
"98 450 CURVE SMOOTH",
"89 450 OFFCURVE",
"31 438 OFFCURVE",
"31 438 CURVE",
"31 421 LINE",
"89 421 LINE",
"89 7 LINE SMOOTH",
"89 3 OFFCURVE",
"106 -10 OFFCURVE",
"109 -10 CURVE SMOOTH",
"118 -10 OFFCURVE",
"176 2 OFFCURVE",
"176 2 CURVE",
"176 19 LINE",
"118 19 LINE",
"118 342 LINE",
"118 342 OFFCURVE",
"215 423 OFFCURVE",
"226 423 CURVE SMOOTH",
"285 423 OFFCURVE",
"339 413 OFFCURVE",
"339 290 CURVE SMOOTH",
"339 -53 LINE SMOOTH",
"339 -116 OFFCURVE",
"310 -146 OFFCURVE",
"303 -147 CURVE SMOOTH",
"280 -150 OFFCURVE",
"256 -149 OFFCURVE",
"233 -149 CURVE",
"233 -166 LINE",
"251 -169 OFFCURVE",
"288 -175 OFFCURVE",
"299 -175 CURVE SMOOTH",
"328 -175 OFFCURVE",
"368 -115 OFFCURVE",
"368 -53 CURVE SMOOTH",
"368 276 LINE SMOOTH",
"368 411 OFFCURVE",
"331 450 OFFCURVE",
"220 450 CURVE SMOOTH"
);
}
);
width = 443;
},
{
layerId = "555729A4-F539-4650-9C4F-3880CB033E7B";
paths = (
{
closed = 1;
nodes = (
"254 456 OFFCURVE",
"192 412 OFFCURVE",
"157 386 CURVE",
"157 424 LINE SMOOTH",
"157 430 OFFCURVE",
"131 456 OFFCURVE",
"125 456 CURVE SMOOTH",
"116 456 OFFCURVE",
"34 441 OFFCURVE",
"34 441 CURVE",
"34 404 LINE",
"69 389 LINE",
"69 24 LINE SMOOTH",
"69 17 OFFCURVE",
"97 -9 OFFCURVE",
"103 -9 CURVE SMOOTH",
"112 -9 OFFCURVE",
"194 7 OFFCURVE",
"194 7 CURVE",
"194 44 LINE",
"160 59 LINE",
"160 344 LINE",
"198 361 OFFCURVE",
"243 382 OFFCURVE",
"255 382 CURVE SMOOTH",
"269 382 OFFCURVE",
"313 384 OFFCURVE",
"313 288 CURVE SMOOTH",
"313 13 LINE SMOOTH",
"313 -22 OFFCURVE",
"311 -89 OFFCURVE",
"288 -102 CURVE",
"280 -108 OFFCURVE",
"206 -112 OFFCURVE",
"187 -113 CURVE",
"187 -152 LINE",
"222 -164 OFFCURVE",
"268 -181 OFFCURVE",
"282 -181 CURVE SMOOTH",
"313 -181 OFFCURVE",
"404 -84 OFFCURVE",
"404 -22 CURVE SMOOTH",
"404 288 LINE SMOOTH",
"404 418 OFFCURVE",
"350 456 OFFCURVE",
"260 456 CURVE SMOOTH"
);
}
);
width = 449;
},
{
layerId = "CB0A0A08-290D-4820-BDFF-3CAB47D8DECF";
paths = (
{
closed = 1;
nodes = (
"304 476 OFFCURVE",
"250 438 OFFCURVE",
"220 414 CURVE",
"220 433 LINE SMOOTH",
"220 441 OFFCURVE",
"187 476 OFFCURVE",
"180 476 CURVE SMOOTH",
"162 476 OFFCURVE",
"10 453 OFFCURVE",
"10 453 CURVE",
"10 384 LINE",
"54 369 LINE",
"54 31 LINE SMOOTH",
"54 22 OFFCURVE",
"97 -13 OFFCURVE",
"106 -13 CURVE SMOOTH",
"123 -13 OFFCURVE",
"270 12 OFFCURVE",
"270 12 CURVE",
"270 80 LINE",
"227 95 LINE",
"227 341 LINE",
"246 350 OFFCURVE",
"268 360 OFFCURVE",
"271 360 CURVE SMOOTH",
"280 360 OFFCURVE",
"299 356 OFFCURVE",
"299 331 CURVE SMOOTH",
"299 12 LINE SMOOTH",
"299 -14 OFFCURVE",
"296 -63 OFFCURVE",
"278 -73 CURVE",
"271 -78 OFFCURVE",
"197 -84 OFFCURVE",
"178 -84 CURVE",
"178 -166 LINE",
"235 -176 OFFCURVE",
"306 -186 OFFCURVE",
"331 -186 CURVE SMOOTH",
"368 -186 OFFCURVE",
"472 -87 OFFCURVE",
"472 -23 CURVE SMOOTH",
"472 333 LINE SMOOTH",
"472 443 OFFCURVE",
"413 476 OFFCURVE",
"312 476 CURVE SMOOTH"
);
}
);
width = 523;
}
);
leftKerningGroup = n;
rightKerningGroup = j;
unicode = 014B;
},
{
glyphname = o;
lastChange = "2018-02-12 15:36:47 +0000";
layers = (
{
anchors = (
{
name = bottom;
position = "{221, 0}";
},
{
name = center;
position = "{221, 217}";
},
{
name = ogonek;
position = "{243, 0}";
},
{
name = top;
position = "{226, 448}";
},
{
name = topright;
position = "{237, 448}";
}
);
background = {
paths = (
{
closed = 1;
nodes = (
"270 -9 OFFCURVE",
"372 62 OFFCURVE",
"393 90 CURVE",
"404 122 OFFCURVE",
"415 181 OFFCURVE",
"415 249 CURVE SMOOTH",
"415 386 OFFCURVE",
"346 461 OFFCURVE",
"211 461 CURVE SMOOTH",
"187 461 OFFCURVE",
"83 390 OFFCURVE",
"62 358 CURVE",
"48 332 OFFCURVE",
"38 271 OFFCURVE",
"38 209 CURVE SMOOTH",
"38 57 OFFCURVE",
"109 -9 OFFCURVE",
"246 -9 CURVE SMOOTH"
);
},
{
closed = 1;
nodes = (
"197 48 OFFCURVE",
"134 78 OFFCURVE",
"134 223 CURVE SMOOTH",
"134 324 OFFCURVE",
"148 389 OFFCURVE",
"166 399 CURVE SMOOTH",
"179 406 OFFCURVE",
"192 407 OFFCURVE",
"206 407 CURVE SMOOTH",
"282 407 OFFCURVE",
"319 337 OFFCURVE",
"319 236 CURVE SMOOTH",
"319 151 OFFCURVE",
"309 104 OFFCURVE",
"302 73 CURVE",
"302 73 OFFCURVE",
"258 50 OFFCURVE",
"251 48 CURVE"
);
}
);
};
layerId = "555729A4-F539-4650-9C4F-3880CB033E7B";
paths = (
{
closed = 1;
nodes = (
"270 -9 OFFCURVE",
"372 62 OFFCURVE",
"393 90 CURVE",
"404 122 OFFCURVE",
"415 181 OFFCURVE",
"415 249 CURVE SMOOTH",
"415 386 OFFCURVE",
"346 461 OFFCURVE",
"211 461 CURVE SMOOTH",
"187 461 OFFCURVE",
"83 390 OFFCURVE",
"62 358 CURVE",
"48 332 OFFCURVE",
"38 271 OFFCURVE",
"38 209 CURVE SMOOTH",
"38 57 OFFCURVE",
"109 -9 OFFCURVE",
"246 -9 CURVE SMOOTH"
);
},
{
closed = 1;
nodes = (
"197 48 OFFCURVE",
"134 78 OFFCURVE",
"134 223 CURVE SMOOTH",
"134 324 OFFCURVE",
"148 384 OFFCURVE",
"166 394 CURVE SMOOTH",
"179 401 OFFCURVE",
"192 402 OFFCURVE",
"206 402 CURVE SMOOTH",
"282 402 OFFCURVE",
"319 337 OFFCURVE",
"319 236 CURVE SMOOTH",
"319 151 OFFCURVE",
"309 104 OFFCURVE",
"302 73 CURVE",
"302 73 OFFCURVE",
"258 50 OFFCURVE",
"251 48 CURVE"
);
}
);
width = 453;
},
{
anchors = (
{
name = bottom;
position = "{256, 0}";
},
{
name = center;
position = "{254, 231}";
},
{
name = ogonek;
position = "{260, 0}";
},
{
name = top;
position = "{261, 462}";
},
{
name = topright;
position = "{289, 462}";
}
);
background = {
paths = (
{
closed = 1;
nodes = (
"302 -13 OFFCURVE",
"436 67 OFFCURVE",
"464 99 CURVE",
"477 130 OFFCURVE",
"491 189 OFFCURVE",
"491 255 CURVE SMOOTH",
"491 396 OFFCURVE",
"408 476 OFFCURVE",
"246 476 CURVE SMOOTH",
"214 476 OFFCURVE",
"75 392 OFFCURVE",
"47 360 CURVE",
"34 329 OFFCURVE",
"20 264 OFFCURVE",
"20 207 CURVE SMOOTH",
"20 56 OFFCURVE",
"112 -13 OFFCURVE",
"270 -13 CURVE SMOOTH"
);
},
{
closed = 1;
nodes = (
"239 69 OFFCURVE",
"205 101 OFFCURVE",
"205 222 CURVE SMOOTH",
"205 322 OFFCURVE",
"218 398 OFFCURVE",
"227 398 CURVE SMOOTH",
"232 398 OFFCURVE",
"262 393 OFFCURVE",
"270 387 CURVE SMOOTH",
"296 366 OFFCURVE",
"306 305 OFFCURVE",
"306 240 CURVE SMOOTH",
"306 159 OFFCURVE",
"301 111 OFFCURVE",
"297 81 CURVE",
"297 81 OFFCURVE",
"273 70 OFFCURVE",
"269 69 CURVE"
);
}
);
};
layerId = "CB0A0A08-290D-4820-BDFF-3CAB47D8DECF";
paths = (
{
closed = 1;
nodes = (
"302 -13 OFFCURVE",
"436 67 OFFCURVE",
"464 99 CURVE",
"477 130 OFFCURVE",
"491 189 OFFCURVE",
"491 255 CURVE SMOOTH",
"491 396 OFFCURVE",
"408 476 OFFCURVE",
"246 476 CURVE SMOOTH",
"214 476 OFFCURVE",
"75 392 OFFCURVE",
"47 360 CURVE",
"34 329 OFFCURVE",
"20 264 OFFCURVE",
"20 207 CURVE SMOOTH",
"20 56 OFFCURVE",
"112 -13 OFFCURVE",
"270 -13 CURVE SMOOTH"
);
},
{
closed = 1;
nodes = (
"239 69 OFFCURVE",
"205 101 OFFCURVE",
"205 222 CURVE SMOOTH",
"205 322 OFFCURVE",
"214 390 OFFCURVE",
"227 394 CURVE SMOOTH",
"233 396 OFFCURVE",
"238 396 OFFCURVE",
"243 396 CURVE SMOOTH",
"295 396 OFFCURVE",
"306 314 OFFCURVE",
"306 240 CURVE SMOOTH",
"306 159 OFFCURVE",
"301 111 OFFCURVE",
"297 81 CURVE",
"297 81 OFFCURVE",
"273 70 OFFCURVE",
"269 69 CURVE"
);
}
);
width = 511;
},
{
anchors = (
{
name = bottom;
position = "{214, 0}";
},
{
name = center;
position = "{225, 217}";
},
{
name = ogonek;
position = "{234, 0}";
},
{
name = top;
position = "{224, 440}";
},
{
name = topright;
position = "{258, 440}";
}
);
background = {
paths = (
{
closed = 1;
nodes = (
"247 -10 OFFCURVE",
"318 33 OFFCURVE",
"345 67 CURVE",
"369 99 OFFCURVE",
"385 168 OFFCURVE",
"385 235 CURVE SMOOTH",
"385 379 OFFCURVE",
"321 450 OFFCURVE",
"209 450 CURVE SMOOTH",
"190 450 OFFCURVE",
"125 417 OFFCURVE",
"86 360 CURVE",
"67 325 OFFCURVE",
"54 269 OFFCURVE",
"54 205 CURVE SMOOTH",
"54 56 OFFCURVE",
"121 -10 OFFCURVE",
"225 -10 CURVE SMOOTH"
);
},
{
closed = 1;
nodes = (
"119 19 OFFCURVE",
"83 101 OFFCURVE",
"83 205 CURVE SMOOTH",
"83 302 OFFCURVE",
"101 353 OFFCURVE",
"148 392 CURVE SMOOTH",
"172 412 OFFCURVE",
"198 425 OFFCURVE",
"213 425 CURVE SMOOTH",
"304 425 OFFCURVE",
"356 355 OFFCURVE",
"356 235 CURVE SMOOTH",
"356 157 OFFCURVE",
"338 99 OFFCURVE",
"318 76 CURVE",
"298 53 OFFCURVE",
"247 16 OFFCURVE",
"221 16 CURVE SMOOTH"
);
}
);
};
layerId = "4F39836F-1187-466E-8FAB-7EBF43C51BB4";
paths = (
{
closed = 1;
nodes = (
"247 -10 OFFCURVE",
"318 33 OFFCURVE",
"345 67 CURVE",
"369 99 OFFCURVE",
"385 168 OFFCURVE",
"385 235 CURVE SMOOTH",
"385 379 OFFCURVE",
"321 450 OFFCURVE",
"209 450 CURVE SMOOTH",
"190 450 OFFCURVE",
"125 419 OFFCURVE",
"86 360 CURVE",
"67 325 OFFCURVE",
"54 269 OFFCURVE",
"54 205 CURVE SMOOTH",
"54 56 OFFCURVE",
"121 -10 OFFCURVE",
"225 -10 CURVE SMOOTH"
);
},
{
closed = 1;
nodes = (
"119 19 OFFCURVE",
"83 101 OFFCURVE",
"83 205 CURVE SMOOTH",
"83 302 OFFCURVE",
"101 352 OFFCURVE",
"148 391 CURVE SMOOTH",
"172 411 OFFCURVE",
"198 425 OFFCURVE",
"213 425 CURVE SMOOTH",
"304 425 OFFCURVE",
"356 355 OFFCURVE",
"356 235 CURVE SMOOTH",
"356 157 OFFCURVE",
"338 99 OFFCURVE",
"318 76 CURVE",
"298 53 OFFCURVE",
"247 16 OFFCURVE",
"221 16 CURVE SMOOTH"
);
}
);
width = 439;
}
);
leftKerningGroup = o;
rightKerningGroup = o;
unicode = 006F;
},
{
glyphname = oslash;
lastChange = "2018-02-27 01:18:18 +0000";
layers = (
{
anchors = (
{
name = top;
position = "{229, 409}";
}
);
background = {
paths = (
{
closed = 1;
nodes = (
"82 -62 LINE",
"85 -73 LINE",
"99 -79 LINE",
"373 505 LINE",
"371 516 LINE",
"356 522 LINE"
);
}
);
};
components = (
{
name = o;
},
{
name = slashlongcomb;
transform = "{1, 0, 0, 1, 7, 0}";
}
);
layerId = "4F39836F-1187-466E-8FAB-7EBF43C51BB4";
width = 439;
},
{
anchors = (
{
name = top;
position = "{238, 438}";
}
);
background = {
paths = (
{
closed = 1;
nodes = (
"62 -72 LINE",
"75 -89 LINE",
"105 -89 LINE",
"385 515 LINE",
"375 532 LINE",
"342 532 LINE"
);
}
);
};
components = (
{
name = o;
},
{
name = slashlongcomb;
transform = "{1, 0, 0, 1, 1, 0}";
}
);
layerId = "555729A4-F539-4650-9C4F-3880CB033E7B";
width = 453;
},
{
anchors = (
{
name = top;
position = "{252, 468}";
}
);
components = (
{
name = o;
},
{
name = slashlongcomb;
transform = "{1, 0, 0, 1, 6, 14}";
}
);
layerId = "CB0A0A08-290D-4820-BDFF-3CAB47D8DECF";
width = 511;
}
);
leftKerningGroup = o;
rightKerningGroup = o;
unicode = 00F8;
},
